<?xml version="1.0" encoding="UTF-8" standalone="no"?>
<!-- Created with Inkscape (http://www.inkscape.org/) -->

<svg
   xmlns:dc="http://purl.org/dc/elements/1.1/"
   xmlns:cc="http://creativecommons.org/ns#"
   xmlns:rdf="http://www.w3.org/1999/02/22-rdf-syntax-ns#"
   xmlns:svg="http://www.w3.org/2000/svg"
   xmlns="http://www.w3.org/2000/svg"
   xmlns:sodipodi="http://sodipodi.sourceforge.net/DTD/sodipodi-0.dtd"
   xmlns:inkscape="http://www.inkscape.org/namespaces/inkscape"
   width="210mm"
   height="297mm"
   viewBox="0 0 210 297"
   version="1.1"
   id="svg8"
   inkscape:version="0.92.4 (5da689c313, 2019-01-14)"
   sodipodi:docname="diagramaporce.svg">
  <defs
     id="defs2">
    <marker
       inkscape:stockid="Arrow1Send"
       orient="auto"
       refY="0"
       refX="0"
       id="marker2505-4-6-5"
       style="overflow:visible"
       inkscape:isstock="true">
      <path
         inkscape:connector-curvature="0"
         id="path2503-5-18-03"
         d="M 0,0 5,-5 -12.5,0 5,5 Z"
         style="fill:#008066;fill-opacity:1;fill-rule:evenodd;stroke:#008066;stroke-width:1.00000003pt;stroke-opacity:1"
         transform="matrix(-0.2,0,0,-0.2,-1.2,0)" />
    </marker>
    <marker
       inkscape:stockid="Arrow1Send"
       orient="auto"
       refY="0"
       refX="0"
       id="marker2505-4-6-1"
       style="overflow:visible"
       inkscape:isstock="true">
      <path
         inkscape:connector-curvature="0"
         id="path2503-5-18-0"
         d="M 0,0 5,-5 -12.5,0 5,5 Z"
         style="fill:#008066;fill-opacity:1;fill-rule:evenodd;stroke:#008066;stroke-width:1.00000003pt;stroke-opacity:1"
         transform="matrix(-0.2,0,0,-0.2,-1.2,0)" />
    </marker>
    <marker
       inkscape:stockid="Arrow1Send"
       orient="auto"
       refY="0"
       refX="0"
       id="marker2505-4-6-8"
       style="overflow:visible"
       inkscape:isstock="true">
      <path
         inkscape:connector-curvature="0"
         id="path2503-5-18-71"
         d="M 0,0 5,-5 -12.5,0 5,5 Z"
         style="fill:#008066;fill-opacity:1;fill-rule:evenodd;stroke:#008066;stroke-width:1.00000003pt;stroke-opacity:1"
         transform="matrix(-0.2,0,0,-0.2,-1.2,0)" />
    </marker>
    <marker
       inkscape:stockid="Arrow1Send"
       orient="auto"
       refY="0"
       refX="0"
       id="marker2505-4-6-7"
       style="overflow:visible"
       inkscape:isstock="true">
      <path
         inkscape:connector-curvature="0"
         id="path2503-5-18-4"
         d="M 0,0 5,-5 -12.5,0 5,5 Z"
         style="fill:#008066;fill-opacity:1;fill-rule:evenodd;stroke:#008066;stroke-width:1.00000003pt;stroke-opacity:1"
         transform="matrix(-0.2,0,0,-0.2,-1.2,0)" />
    </marker>
    <marker
       inkscape:stockid="Arrow1Send"
       orient="auto"
       refY="0"
       refX="0"
       id="marker2505-4-6-68"
       style="overflow:visible"
       inkscape:isstock="true">
      <path
         inkscape:connector-curvature="0"
         id="path2503-5-18-7"
         d="M 0,0 5,-5 -12.5,0 5,5 Z"
         style="fill:#008066;fill-opacity:1;fill-rule:evenodd;stroke:#008066;stroke-width:1.00000003pt;stroke-opacity:1"
         transform="matrix(-0.2,0,0,-0.2,-1.2,0)" />
    </marker>
    <marker
       inkscape:stockid="Arrow1Send"
       orient="auto"
       refY="0"
       refX="0"
       id="marker2505-4-6-6"
       style="overflow:visible"
       inkscape:isstock="true">
      <path
         inkscape:connector-curvature="0"
         id="path2503-5-18-2"
         d="M 0,0 5,-5 -12.5,0 5,5 Z"
         style="fill:#008066;fill-opacity:1;fill-rule:evenodd;stroke:#008066;stroke-width:1.00000003pt;stroke-opacity:1"
         transform="matrix(-0.2,0,0,-0.2,-1.2,0)" />
    </marker>
    <marker
       inkscape:stockid="Arrow1Send"
       orient="auto"
       refY="0"
       refX="0"
       id="marker2505-4-6"
       style="overflow:visible"
       inkscape:isstock="true">
      <path
         inkscape:connector-curvature="0"
         id="path2503-5-18"
         d="M 0,0 5,-5 -12.5,0 5,5 Z"
         style="fill:#008066;fill-opacity:1;fill-rule:evenodd;stroke:#008066;stroke-width:1.00000003pt;stroke-opacity:1"
         transform="matrix(-0.2,0,0,-0.2,-1.2,0)" />
    </marker>
    <marker
       inkscape:stockid="Arrow1Send"
       orient="auto"
       refY="0"
       refX="0"
       id="Arrow1Send"
       style="overflow:visible"
       inkscape:isstock="true">
      <path
         inkscape:connector-curvature="0"
         id="path2218"
         d="M 0,0 5,-5 -12.5,0 5,5 Z"
         style="fill:#214478;fill-opacity:1;fill-rule:evenodd;stroke:#214478;stroke-width:1.00000003pt;stroke-opacity:1"
         transform="matrix(-0.2,0,0,-0.2,-1.2,0)" />
    </marker>
    <marker
       inkscape:stockid="Arrow1Send"
       orient="auto"
       refY="0"
       refX="0"
       id="marker2521"
       style="overflow:visible"
       inkscape:isstock="true">
      <path
         inkscape:connector-curvature="0"
         id="path2519"
         d="M 0,0 5,-5 -12.5,0 5,5 Z"
         style="fill:#782167;fill-opacity:1;fill-rule:evenodd;stroke:#782167;stroke-width:1.00000003pt;stroke-opacity:1"
         transform="matrix(-0.2,0,0,-0.2,-1.2,0)" />
    </marker>
    <marker
       inkscape:stockid="Arrow1Send"
       orient="auto"
       refY="0"
       refX="0"
       id="marker2513"
       style="overflow:visible"
       inkscape:isstock="true">
      <path
         inkscape:connector-curvature="0"
         id="path2511"
         d="M 0,0 5,-5 -12.5,0 5,5 Z"
         style="fill:#782167;fill-opacity:1;fill-rule:evenodd;stroke:#782167;stroke-width:1.00000003pt;stroke-opacity:1"
         transform="matrix(-0.2,0,0,-0.2,-1.2,0)" />
    </marker>
    <marker
       inkscape:stockid="Arrow1Send"
       orient="auto"
       refY="0"
       refX="0"
       id="marker2481"
       style="overflow:visible"
       inkscape:isstock="true">
      <path
         inkscape:connector-curvature="0"
         id="path2479"
         d="M 0,0 5,-5 -12.5,0 5,5 Z"
         style="fill:#008091;fill-opacity:1;fill-rule:evenodd;stroke:#008091;stroke-width:1.00000003pt;stroke-opacity:1"
         transform="matrix(-0.2,0,0,-0.2,-1.2,0)" />
    </marker>
    <marker
       inkscape:stockid="Arrow1Send"
       orient="auto"
       refY="0"
       refX="0"
       id="marker2489"
       style="overflow:visible"
       inkscape:isstock="true">
      <path
         inkscape:connector-curvature="0"
         id="path2487"
         d="M 0,0 5,-5 -12.5,0 5,5 Z"
         style="fill:#008091;fill-opacity:1;fill-rule:evenodd;stroke:#008091;stroke-width:1.00000003pt;stroke-opacity:1"
         transform="matrix(-0.2,0,0,-0.2,-1.2,0)" />
    </marker>
    <marker
       inkscape:stockid="Arrow1Send"
       orient="auto"
       refY="0"
       refX="0"
       id="marker2529"
       style="overflow:visible"
       inkscape:isstock="true">
      <path
         inkscape:connector-curvature="0"
         id="path2527"
         d="M 0,0 5,-5 -12.5,0 5,5 Z"
         style="fill:#214478;fill-opacity:1;fill-rule:evenodd;stroke:#214478;stroke-width:1.00000003pt;stroke-opacity:1"
         transform="matrix(-0.2,0,0,-0.2,-1.2,0)" />
    </marker>
    <marker
       inkscape:stockid="Arrow1Send"
       orient="auto"
       refY="0"
       refX="0"
       id="marker2497"
       style="overflow:visible"
       inkscape:isstock="true">
      <path
         inkscape:connector-curvature="0"
         id="path2495"
         d="M 0,0 5,-5 -12.5,0 5,5 Z"
         style="fill:#214478;fill-opacity:1;fill-rule:evenodd;stroke:#214478;stroke-width:1.00000003pt;stroke-opacity:1"
         transform="matrix(-0.2,0,0,-0.2,-1.2,0)" />
    </marker>
    <marker
       inkscape:stockid="Arrow1Send"
       orient="auto"
       refY="0"
       refX="0"
       id="marker2505"
       style="overflow:visible"
       inkscape:isstock="true">
      <path
         inkscape:connector-curvature="0"
         id="path2503"
         d="M 0,0 5,-5 -12.5,0 5,5 Z"
         style="fill:#214478;fill-opacity:1;fill-rule:evenodd;stroke:#214478;stroke-width:1.00000003pt;stroke-opacity:1"
         transform="matrix(-0.2,0,0,-0.2,-1.2,0)" />
    </marker>
  </defs>
  <sodipodi:namedview
     id="base"
     pagecolor="#ffffff"
     bordercolor="#666666"
     borderopacity="1.0"
     inkscape:pageopacity="0.0"
     inkscape:pageshadow="2"
     inkscape:zoom="0.7"
     inkscape:cx="271.82243"
     inkscape:cy="576.82844"
     inkscape:document-units="mm"
     inkscape:current-layer="layer1"
     showgrid="false"
     inkscape:window-width="1920"
     inkscape:window-height="1017"
     inkscape:window-x="-8"
     inkscape:window-y="-8"
     inkscape:window-maximized="1" />
  <metadata
     id="metadata5">
    <rdf:RDF>
      <cc:Work
         rdf:about="">
        <dc:format>image/svg+xml</dc:format>
        <dc:type
           rdf:resource="http://purl.org/dc/dcmitype/StillImage" />
        <dc:title></dc:title>
      </cc:Work>
    </rdf:RDF>
  </metadata>
  <g
     inkscape:label="Capa 1"
     inkscape:groupmode="layer"
     id="layer1">
    <path
       style="fill:#ffffff;fill-rule:evenodd;stroke:none;stroke-width:0.26458341;stroke-linecap:butt;stroke-linejoin:miter;stroke-miterlimit:4;stroke-dasharray:none;stroke-dashoffset:0;stroke-opacity:1"
       d="M 12.109078,44.189265 11.862567,195.64704 H 199.04815 V 44.353255 Z"
       id="path862-2"
       inkscape:connector-curvature="0"
       sodipodi:nodetypes="ccccc" />
    <path
       inkscape:connector-curvature="0"
       id="path1037-8-0-6"
       d="m 75.361018,147.457 c 6.744219,0.0167 6.462971,0.004 6.930017,0.31716 0.22114,0.14826 0.513738,0.46036 0.650419,0.69349 l 0.248404,0.42388 0.02987,3.69599 c 0.01673,2.03279 0,3.85895 -0.02628,4.05817 -0.08841,0.56489 -1.276967,2.11832 -1.733965,2.26679 -7.905772,0.31786 -15.206752,0.13983 -22.996272,0.0633 l -0.415779,-0.32206 c -0.228679,-0.17707 -0.518051,-0.54579 -0.642904,-0.81933 -0.219359,-0.4803 -0.228201,-0.61816 -0.258918,-4.02566 -0.02151,-2.42461 0,-3.68783 0.08483,-4.03831 0.08961,-0.39144 0.271212,-0.6802 0.782107,-1.24196 0.998932,-1.09835 0.973961,-1.09325 5.267845,-1.08004 1.981043,0.006 4.400924,0.006 5.377645,0.004 12.475515,0.0318 -6.686643,0.0407 6.703119,0.004 z"
       style="fill:#bc9d82;fill-opacity:1;stroke-width:1"
       sodipodi:nodetypes="ccccccccccccsccc" />
    <text
       xml:space="preserve"
       style="font-style:normal;font-variant:normal;font-weight:normal;font-stretch:normal;font-size:3.38260579px;line-height:1.25;font-family:sans-serif;-inkscape-font-specification:sans-serif;letter-spacing:0px;word-spacing:0px;fill:#000000;fill-opacity:1;stroke:none;stroke-width:0.26458332px;stroke-linecap:butt;stroke-linejoin:miter;stroke-opacity:1"
       x="65.175591"
       y="84.468819"
       id="text5904"
       transform="scale(1.0000655,0.99993451)"><tspan
         sodipodi:role="line"
         id="tspan5902"
         x="65.175591"
         y="84.468819"
         style="fill:#000000;stroke-width:0.26458332px">GPP</tspan></text>
    <path
       inkscape:connector-curvature="0"
       id="path1037-8-0"
       d="m 133.25882,147.3954 c 6.7441,0.0167 6.46297,0.004 6.93001,0.31718 0.22103,0.14826 0.51375,0.46032 0.65031,0.69347 l 0.24839,0.4239 0.0299,3.69597 c 0.0167,2.03277 0,3.85897 -0.0263,4.05819 -0.0884,0.5649 -1.27696,2.11832 -1.73396,2.26677 -7.90589,0.31788 -15.20676,0.13985 -22.99628,0.0633 l -0.41578,-0.32202 c -0.22868,-0.17713 -0.51805,-0.54584 -0.64291,-0.81937 -0.21936,-0.48031 -0.2282,-0.61814 -0.2589,-4.02564 -0.0215,-2.42463 0,-3.68786 0.0848,-4.03833 0.0896,-0.39142 0.27123,-0.6802 0.7821,-1.24196 0.99896,-1.09834 0.97397,-1.09325 5.26784,-1.08004 1.98105,0.006 4.40093,0.006 5.37765,0.004 12.47553,0.0318 -6.68663,0.0407 6.70313,0.004 z"
       style="fill:#c8b7be;stroke-width:1"
       sodipodi:nodetypes="ccccccccccccsccc" />
    <path
       style="fill:#214478;fill-opacity:1;fill-rule:evenodd;stroke:#214478;stroke-width:0.46500009;stroke-linecap:butt;stroke-linejoin:miter;stroke-miterlimit:4;stroke-dasharray:none;stroke-dashoffset:0;stroke-opacity:1;marker-end:url(#marker2505)"
       d="m 83.324497,153.24624 29.974663,-0.11398"
       id="path2773-7"
       inkscape:connector-curvature="0"
       sodipodi:nodetypes="cc" />
    <text
       xml:space="preserve"
       style="font-style:normal;font-variant:normal;font-weight:normal;font-stretch:normal;font-size:4.28020906px;line-height:1.25;font-family:'Bell MT';-inkscape-font-specification:'Bell MT';letter-spacing:0px;word-spacing:0px;fill:#000000;fill-opacity:1;stroke:none;stroke-width:0.26458332px;stroke-linecap:butt;stroke-linejoin:miter;stroke-opacity:1"
       x="64.463814"
       y="154.14719"
       id="text923-18-3"
       transform="scale(0.99998519,1.0000148)"><tspan
         sodipodi:role="line"
         id="tspan921-4-6"
         x="64.463814"
         y="154.14719"
         style="font-style:normal;font-variant:normal;font-weight:normal;font-stretch:normal;font-size:4.28020906px;font-family:'Bell MT';-inkscape-font-specification:'Bell MT';stroke-width:0.26458332px">Wood</tspan></text>
    <text
       xml:space="preserve"
       style="font-style:normal;font-variant:normal;font-weight:normal;font-stretch:normal;font-size:4.28020906px;line-height:1.25;font-family:'Bell MT';-inkscape-font-specification:'Bell MT';letter-spacing:0px;word-spacing:0px;fill:#000000;fill-opacity:1;stroke:none;stroke-width:0.26458332px;stroke-linecap:butt;stroke-linejoin:miter;stroke-opacity:1"
       x="115.34873"
       y="152.07561"
       id="text937-0-5"
       transform="scale(0.99998519,1.0000148)"><tspan
         sodipodi:role="line"
         x="115.34873"
         y="152.07561"
         style="font-style:normal;font-variant:normal;font-weight:normal;font-stretch:normal;font-size:4.28020906px;font-family:'Bell MT';-inkscape-font-specification:'Bell MT';stroke-width:0.26458332px"
         id="tspan939-5-9">Coarse Woody</tspan><tspan
         sodipodi:role="line"
         x="115.34873"
         y="157.42587"
         style="font-style:normal;font-variant:normal;font-weight:normal;font-stretch:normal;font-size:4.28020906px;font-family:'Bell MT';-inkscape-font-specification:'Bell MT';stroke-width:0.26458332px"
         id="tspan2595">    Debrys </tspan></text>
    <path
       style="fill:#214478;fill-rule:evenodd;stroke:#214478;stroke-width:0.465;stroke-linecap:butt;stroke-linejoin:miter;stroke-miterlimit:4;stroke-dasharray:none;stroke-opacity:1;marker-end:url(#marker2497)"
       d="m 72.376491,109.71409 -0.01195,36.03317"
       id="path949-2-9"
       inkscape:connector-curvature="0"
       sodipodi:nodetypes="cc" />
    <path
       style="fill:#214478;fill-rule:evenodd;stroke:#214478;stroke-width:0.46500009;stroke-linecap:butt;stroke-linejoin:miter;stroke-miterlimit:4;stroke-dasharray:none;stroke-opacity:1;marker-end:url(#marker2529)"
       d="m 142.25804,152.0617 15.13159,-10.36037"
       id="path2777-5"
       inkscape:connector-curvature="0"
       sodipodi:nodetypes="cc" />
    <path
       style="fill:none;fill-rule:evenodd;stroke:#008091;stroke-width:0.465;stroke-linecap:butt;stroke-linejoin:miter;stroke-miterlimit:4;stroke-dasharray:none;stroke-opacity:1;marker-end:url(#marker2489)"
       d="m 83.374557,104.9681 h 4.98851 v 14.11256"
       id="path2769-6"
       inkscape:connector-curvature="0" />
    <path
       style="fill:none;fill-rule:evenodd;stroke:#008091;stroke-width:0.46499991;stroke-linecap:butt;stroke-linejoin:miter;stroke-miterlimit:4;stroke-dasharray:none;stroke-opacity:1;marker-end:url(#marker2481)"
       d="m 61.17615,104.7661 h -5.642401 v 17.85616"
       id="path2769-6-6"
       inkscape:connector-curvature="0" />
    <path
       style="fill:#782167;fill-rule:evenodd;stroke:#782167;stroke-width:0.465;stroke-linecap:butt;stroke-linejoin:miter;stroke-miterlimit:4;stroke-dasharray:none;stroke-opacity:1;marker-end:url(#marker2513)"
       d="m 101.94029,126.80639 11.35815,-0.0234"
       id="path2773-9-4"
       inkscape:connector-curvature="0"
       sodipodi:nodetypes="cc" />
    <path
       style="fill:#782167;fill-rule:evenodd;stroke:#782167;stroke-width:0.46500009;stroke-linecap:butt;stroke-linejoin:miter;stroke-miterlimit:4;stroke-dasharray:none;stroke-opacity:1;marker-end:url(#marker2521)"
       d="m 141.86401,125.64924 15.37508,7.53439"
       id="path2775-8"
       inkscape:connector-curvature="0"
       sodipodi:nodetypes="cc" />
    <path
       inkscape:connector-curvature="0"
       id="path1037-8-0-6-2"
       d="m 59.141702,124.44873 c 6.744099,0.0167 6.462971,0.004 6.930017,0.31716 0.22102,0.1483 0.513738,0.46036 0.650299,0.69349 l 0.248404,0.42392 0.02987,3.69595 c 0.01673,2.03279 0,3.85895 -0.02629,4.05817 -0.08841,0.5649 -1.277086,2.11832 -1.733965,2.26679 -7.905891,0.3179 -15.206747,0.13983 -22.996388,0.0633 l -0.415779,-0.32206 c -0.228678,-0.17709 -0.517931,-0.54581 -0.642904,-0.81934 -0.21924,-0.48031 -0.228081,-0.61816 -0.258786,-4.02567 -0.02151,-2.4246 0,-3.68783 0.08483,-4.03831 0.08961,-0.39144 0.271212,-0.68018 0.782094,-1.24195 0.998825,-1.09835 0.973974,-1.09326 5.267846,-1.08005 1.980923,0.006 4.400804,0.006 5.377526,0.004 12.47563,0.0318 -6.686512,0.0407 6.703235,0.004 z"
       style="fill:#bea568;fill-opacity:1;stroke-width:1"
       sodipodi:nodetypes="ccccccccccccsccc" />
    <text
       xml:space="preserve"
       style="font-style:normal;font-variant:normal;font-weight:normal;font-stretch:normal;font-size:4.28020906px;line-height:1.25;font-family:'Bell MT';-inkscape-font-specification:'Bell MT';letter-spacing:0px;word-spacing:0px;fill:#000000;fill-opacity:1;stroke:none;stroke-width:0.26458332px;stroke-linecap:butt;stroke-linejoin:miter;stroke-opacity:1"
       x="42.442307"
       y="130.95377"
       id="text931-4-6"
       transform="scale(0.99998519,1.0000148)"><tspan
         sodipodi:role="line"
         x="42.442307"
         y="130.95377"
         style="font-style:normal;font-variant:normal;font-weight:normal;font-stretch:normal;font-size:4.28020906px;font-family:'Bell MT';-inkscape-font-specification:'Bell MT';stroke-width:0.26458332px"
         id="tspan933-5-8">Coarse Roots</tspan></text>
    <path
       inkscape:connector-curvature="0"
       id="path1037-8-0-6-2-3"
       d="m 94.443366,121.14084 c 6.744084,0.0167 6.462954,0.004 6.929994,0.31719 0.22115,0.14826 0.51376,0.46033 0.65032,0.69346 l 0.24838,0.42392 0.0299,3.69595 c 0.0167,2.03279 0,3.85898 -0.0263,4.05819 -0.0884,0.5649 -1.27709,2.11832 -1.73397,2.26677 -7.905889,0.31789 -15.20675,0.13985 -22.99627,0.0633 l -0.415779,-0.32205 c -0.228666,-0.17713 -0.518051,-0.54584 -0.642904,-0.81937 -0.219359,-0.48029 -0.2282,-0.61814 -0.258906,-4.02564 -0.02151,-2.42464 0,-3.68784 0.08483,-4.03835 0.08961,-0.39141 0.271212,-0.68015 0.782106,-1.24194 0.998932,-1.09835 0.973974,-1.09323 5.267834,-1.08005 1.981043,0.006 4.400923,0.006 5.377645,0.004 12.475524,0.0318 -6.686632,0.0408 6.703131,0.004 z"
       style="fill:#bea579;fill-opacity:1;stroke-width:1"
       sodipodi:nodetypes="ccccccccccccsccc" />
    <text
       xml:space="preserve"
       style="font-style:normal;font-variant:normal;font-weight:normal;font-stretch:normal;font-size:4.28020906px;line-height:1.25;font-family:'Bell MT';-inkscape-font-specification:'Bell MT';letter-spacing:0px;word-spacing:0px;fill:#000000;fill-opacity:1;stroke:none;stroke-width:0.26458332px;stroke-linecap:butt;stroke-linejoin:miter;stroke-opacity:1"
       x="78.316811"
       y="127.95564"
       id="text927-6"
       transform="scale(0.99998519,1.0000148)"><tspan
         sodipodi:role="line"
         x="78.316811"
         y="127.95564"
         style="font-style:normal;font-variant:normal;font-weight:normal;font-stretch:normal;font-size:4.28020906px;font-family:'Bell MT';-inkscape-font-specification:'Bell MT';stroke-width:0.26458332px"
         id="tspan3927-69"> Fine Roots </tspan></text>
    <path
       inkscape:connector-curvature="0"
       id="path1037-8-0-6-2-3-3"
       d="m 77.31065,98.238728 c 6.7441,0.01673 6.462959,0.0036 6.929994,0.317187 0.221151,0.148258 0.513761,0.460355 0.650323,0.69349 l 0.24838,0.423879 0.02987,3.695966 c 0.01673,2.03281 0,3.85897 -0.02629,4.05819 -0.08841,0.5649 -1.277086,2.11832 -1.733964,2.26681 -7.905891,0.31788 -15.206752,0.13981 -22.996273,0.0633 l -0.415778,-0.32206 c -0.228798,-0.17709 -0.518051,-0.54581 -0.642904,-0.81934 -0.219359,-0.48031 -0.228201,-0.61813 -0.258906,-4.02563 -0.02151,-2.42464 0,-3.68786 0.08483,-4.03834 0.08961,-0.39145 0.271212,-0.68019 0.782094,-1.241957 0.998825,-1.098373 0.973974,-1.093248 5.267846,-1.080034 1.980924,0.006 4.400923,0.006 5.377645,0.0036 12.475515,0.03178 -6.686631,0.04074 6.703119,0.0036 z"
       style="fill:#5ba04d;fill-opacity:1;stroke-width:1"
       sodipodi:nodetypes="ccccccccccccsccc" />
    <text
       xml:space="preserve"
       style="font-style:normal;font-variant:normal;font-weight:normal;font-stretch:normal;font-size:4.28020906px;line-height:1.25;font-family:'Bell MT';-inkscape-font-specification:'Bell MT';letter-spacing:0px;word-spacing:0px;fill:#000000;fill-opacity:1;stroke:none;stroke-width:0.26458332px;stroke-linecap:butt;stroke-linejoin:miter;stroke-opacity:1"
       x="65.151039"
       y="104.59341"
       id="text919-2"
       transform="scale(0.99998519,1.0000148)"><tspan
         sodipodi:role="line"
         id="tspan917-0"
         x="65.151039"
         y="104.59341"
         style="font-style:normal;font-variant:normal;font-weight:normal;font-stretch:normal;font-size:4.28020906px;font-family:'Bell MT';-inkscape-font-specification:'Bell MT';stroke-width:0.26458332px">Foliage</tspan></text>
    <path
       inkscape:connector-curvature="0"
       id="path1037-8-0-6-2-3-3-3"
       d="m 132.99095,121.00833 c 6.7441,0.0167 6.46298,0.004 6.93001,0.31719 0.22103,0.14825 0.51375,0.46035 0.65031,0.69349 l 0.24839,0.42388 0.0299,3.69596 c 0.0167,2.03277 0,3.85898 -0.0263,4.05819 -0.0884,0.5649 -1.27697,2.11832 -1.73397,2.2668 -7.90589,0.31785 -15.20676,0.13982 -22.99628,0.0633 l -0.41578,-0.32206 c -0.22868,-0.17709 -0.51805,-0.54581 -0.6429,-0.81937 -0.21936,-0.48028 -0.2282,-0.61813 -0.25891,-4.02564 -0.0215,-2.4246 0,-3.68783 0.0848,-4.03831 0.0896,-0.39144 0.27121,-0.68018 0.78209,-1.24195 0.99895,-1.09837 0.97398,-1.09326 5.26785,-1.08004 1.98104,0.006 4.40092,0.006 5.37764,0.004 12.47553,0.0318 -6.68663,0.0407 6.70313,0.004 z"
       style="fill:#decd87;fill-opacity:1;stroke-width:1"
       sodipodi:nodetypes="ccccccccccccsccc" />
    <path
       inkscape:connector-curvature="0"
       id="path1037-8-0-6-2-3-3-8"
       d="m 177.33126,130.99014 c 6.7441,0.0167 6.46297,0.004 6.93,0.31716 0.22103,0.1483 0.51375,0.46036 0.65031,0.69349 l 0.24839,0.42392 0.0299,3.69595 c 0.0167,2.03279 0,3.85899 -0.0263,4.0582 -0.0884,0.5649 -1.27709,2.11832 -1.73397,2.26676 -7.90589,0.31789 -15.20675,0.13986 -22.99627,0.0633 l -0.41591,-0.32202 c -0.22868,-0.17713 -0.51793,-0.54584 -0.6429,-0.81937 -0.21924,-0.48031 -0.22808,-0.61814 -0.25879,-4.02564 -0.0215,-2.42461 0,-3.68784 0.0848,-4.03831 0.0896,-0.39144 0.27121,-0.68022 0.78209,-1.24196 0.99896,-1.09837 0.97399,-1.09325 5.26786,-1.08007 1.98104,0.006 4.40091,0.006 5.37765,0.004 12.47551,0.0317 -6.68665,0.0407 6.70312,0.004 z"
       style="fill:#93a7ac;fill-opacity:1;stroke-width:1"
       sodipodi:nodetypes="ccccccccccccsccc" />
    <text
       xml:space="preserve"
       style="font-style:normal;font-variant:normal;font-weight:normal;font-stretch:normal;font-size:4.28020906px;line-height:1.25;font-family:'Bell MT';-inkscape-font-specification:'Bell MT';letter-spacing:0px;word-spacing:0px;fill:#000000;fill-opacity:1;stroke:none;stroke-width:0.26458332px;stroke-linecap:butt;stroke-linejoin:miter;stroke-opacity:1"
       x="118.42085"
       y="127.70238"
       id="text943-8-9"
       transform="scale(0.99998519,1.0000148)"><tspan
         sodipodi:role="line"
         x="118.42085"
         y="127.70238"
         style="font-style:normal;font-variant:normal;font-weight:normal;font-stretch:normal;font-size:4.28020906px;font-family:'Bell MT';-inkscape-font-specification:'Bell MT';stroke-width:0.26458332px"
         id="tspan7341-4-2">Fine Litter</tspan></text>
    <text
       xml:space="preserve"
       style="font-style:normal;font-variant:normal;font-weight:normal;font-stretch:normal;font-size:4.28020906px;line-height:1.25;font-family:'Bell MT';-inkscape-font-specification:'Bell MT';letter-spacing:0px;word-spacing:0px;fill:#000000;fill-opacity:1;stroke:none;stroke-width:0.26458332px;stroke-linecap:butt;stroke-linejoin:miter;stroke-opacity:1"
       x="162.23866"
       y="137.52722"
       id="text947-4-7"
       transform="scale(0.99998519,1.0000148)"><tspan
         sodipodi:role="line"
         x="162.23866"
         y="137.52722"
         style="font-style:normal;font-variant:normal;font-weight:normal;font-stretch:normal;font-size:4.28020906px;font-family:'Bell MT';-inkscape-font-specification:'Bell MT';stroke-width:0.26458332px"
         id="tspan7343-26-6">Soil Carbon</tspan></text>
    <path
       style="fill:#214478;fill-rule:evenodd;stroke:#214478;stroke-width:0.465;stroke-linecap:butt;stroke-linejoin:miter;stroke-miterlimit:4;stroke-dasharray:none;stroke-opacity:1;marker-end:url(#Arrow1Send)"
       d="m 68.280596,85.892572 -9.43e-4,11.065163"
       id="path949-2-9-4"
       inkscape:connector-curvature="0"
       sodipodi:nodetypes="cc" />
    <text
       xml:space="preserve"
       style="font-style:normal;font-variant:normal;font-weight:normal;font-stretch:normal;font-size:4.60945559px;line-height:1.25;font-family:'Bell MT';-inkscape-font-specification:'Bell MT';letter-spacing:0px;word-spacing:0px;fill:#000000;fill-opacity:1;stroke:none;stroke-width:0.26458332px;stroke-linecap:butt;stroke-linejoin:miter;stroke-opacity:1"
       x="92.764244"
       y="81.651344"
       id="text1514"><tspan
         sodipodi:role="line"
         id="tspan1512"
         x="92.764244"
         y="81.651344"
         style="font-style:normal;font-variant:normal;font-weight:normal;font-stretch:normal;font-family:'Bell MT';-inkscape-font-specification:'Bell MT';stroke-width:0.26458332px">Atmosphere</tspan></text>
    <path
       style="fill:#008066;fill-opacity:1;fill-rule:evenodd;stroke:#008066;stroke-width:0.46500015;stroke-linecap:butt;stroke-linejoin:miter;stroke-miterlimit:4;stroke-dasharray:none;stroke-dashoffset:0;stroke-opacity:1;marker-end:url(#marker2505-4-6)"
       d="M 68.797926,147.4467 68.684423,137.26743"
       id="path2773-7-2-0"
       inkscape:connector-curvature="0"
       sodipodi:nodetypes="cc" />
    <path
       style="fill:#008066;fill-opacity:1;fill-rule:evenodd;stroke:#008066;stroke-width:0.46500015;stroke-linecap:butt;stroke-linejoin:miter;stroke-miterlimit:4;stroke-dasharray:none;stroke-dashoffset:0;stroke-opacity:1;marker-end:url(#marker2505-4-6-6)"
       d="M 77.888298,97.7318 77.774796,87.552511"
       id="path2773-7-2-0-9"
       inkscape:connector-curvature="0"
       sodipodi:nodetypes="cc" />
    <path
       style="fill:#008066;fill-opacity:1;fill-rule:evenodd;stroke:#008066;stroke-width:0.46500015;stroke-linecap:butt;stroke-linejoin:miter;stroke-miterlimit:4;stroke-dasharray:none;stroke-dashoffset:0;stroke-opacity:1;marker-end:url(#marker2505-4-6-68)"
       d="m 127.12955,147.31162 -0.1135,-10.17929"
       id="path2773-7-2-0-4"
       inkscape:connector-curvature="0"
       sodipodi:nodetypes="cc" />
    <path
       style="fill:#008066;fill-opacity:1;fill-rule:evenodd;stroke:#008066;stroke-width:0.46500015;stroke-linecap:butt;stroke-linejoin:miter;stroke-miterlimit:4;stroke-dasharray:none;stroke-dashoffset:0;stroke-opacity:1;marker-end:url(#marker2505-4-6-7)"
       d="m 127.91188,120.71187 -0.1135,-10.17929"
       id="path2773-7-2-0-2"
       inkscape:connector-curvature="0"
       sodipodi:nodetypes="cc" />
    <path
       style="fill:#008066;fill-opacity:1;fill-rule:evenodd;stroke:#008066;stroke-width:0.46500015;stroke-linecap:butt;stroke-linejoin:miter;stroke-miterlimit:4;stroke-dasharray:none;stroke-dashoffset:0;stroke-opacity:1;marker-end:url(#marker2505-4-6-8)"
       d="m 171.80546,130.84489 -0.1135,-10.17927"
       id="path2773-7-2-0-5"
       inkscape:connector-curvature="0"
       sodipodi:nodetypes="cc"
       inkscape:transform-center-x="49.273538"
       inkscape:transform-center-y="-13.572785" />
    <path
       style="fill:#008066;fill-opacity:1;fill-rule:evenodd;stroke:#008066;stroke-width:0.46500015;stroke-linecap:butt;stroke-linejoin:miter;stroke-miterlimit:4;stroke-dasharray:none;stroke-dashoffset:0;stroke-opacity:1;marker-end:url(#marker2505-4-6-1)"
       d="M 48.658822,124.44355 48.545319,114.26429"
       id="path2773-7-2-0-46"
       inkscape:connector-curvature="0"
       sodipodi:nodetypes="cc" />
    <path
       style="fill:#008066;fill-opacity:1;fill-rule:evenodd;stroke:#008066;stroke-width:0.46500015;stroke-linecap:butt;stroke-linejoin:miter;stroke-miterlimit:4;stroke-dasharray:none;stroke-dashoffset:0;stroke-opacity:1;marker-end:url(#marker2505-4-6-5)"
       d="M 93.194954,121.27844 93.081451,111.09915"
       id="path2773-7-2-0-6"
       inkscape:connector-curvature="0"
       sodipodi:nodetypes="cc" />
  </g>
</svg>
