<?xml version="1.0" encoding="UTF-8" standalone="no"?>
<!-- Created with Inkscape (http://www.inkscape.org/) -->

<svg
   xmlns:dc="http://purl.org/dc/elements/1.1/"
   xmlns:cc="http://creativecommons.org/ns#"
   xmlns:rdf="http://www.w3.org/1999/02/22-rdf-syntax-ns#"
   xmlns:svg="http://www.w3.org/2000/svg"
   xmlns="http://www.w3.org/2000/svg"
   xmlns:sodipodi="http://sodipodi.sourceforge.net/DTD/sodipodi-0.dtd"
   xmlns:inkscape="http://www.inkscape.org/namespaces/inkscape"
   width="297mm"
   height="210mm"
   viewBox="0 0 297 210"
   version="1.1"
   id="svg3569"
   inkscape:version="0.92.4 (5da689c313, 2019-01-14)"
   sodipodi:docname="porcemodel2.svg">
  <defs
     id="defs3563">
    <marker
       inkscape:stockid="Arrow1Send"
       orient="auto"
       refY="0"
       refX="0"
       id="marker2505-4-6-5"
       style="overflow:visible"
       inkscape:isstock="true">
      <path
         inkscape:connector-curvature="0"
         id="path2503-5-18-03"
         d="M 0,0 5,-5 -12.5,0 5,5 Z"
         style="fill:#008066;fill-opacity:1;fill-rule:evenodd;stroke:#008066;stroke-width:1.00000003pt;stroke-opacity:1"
         transform="matrix(-0.2,0,0,-0.2,-1.2,0)" />
    </marker>
    <marker
       inkscape:stockid="Arrow1Send"
       orient="auto"
       refY="0"
       refX="0"
       id="marker2505-4-6-1"
       style="overflow:visible"
       inkscape:isstock="true">
      <path
         inkscape:connector-curvature="0"
         id="path2503-5-18-0"
         d="M 0,0 5,-5 -12.5,0 5,5 Z"
         style="fill:#008066;fill-opacity:1;fill-rule:evenodd;stroke:#008066;stroke-width:1.00000003pt;stroke-opacity:1"
         transform="matrix(-0.2,0,0,-0.2,-1.2,0)" />
    </marker>
    <marker
       inkscape:stockid="Arrow1Send"
       orient="auto"
       refY="0"
       refX="0"
       id="marker2505-4-6-8"
       style="overflow:visible"
       inkscape:isstock="true">
      <path
         inkscape:connector-curvature="0"
         id="path2503-5-18-71"
         d="M 0,0 5,-5 -12.5,0 5,5 Z"
         style="fill:#008066;fill-opacity:1;fill-rule:evenodd;stroke:#008066;stroke-width:1.00000003pt;stroke-opacity:1"
         transform="matrix(-0.2,0,0,-0.2,-1.2,0)" />
    </marker>
    <marker
       inkscape:stockid="Arrow1Send"
       orient="auto"
       refY="0"
       refX="0"
       id="marker2505-4-6-7"
       style="overflow:visible"
       inkscape:isstock="true">
      <path
         inkscape:connector-curvature="0"
         id="path2503-5-18-4"
         d="M 0,0 5,-5 -12.5,0 5,5 Z"
         style="fill:#008066;fill-opacity:1;fill-rule:evenodd;stroke:#008066;stroke-width:1.00000003pt;stroke-opacity:1"
         transform="matrix(-0.2,0,0,-0.2,-1.2,0)" />
    </marker>
    <marker
       inkscape:stockid="Arrow1Send"
       orient="auto"
       refY="0"
       refX="0"
       id="marker2505-4-6-68"
       style="overflow:visible"
       inkscape:isstock="true">
      <path
         inkscape:connector-curvature="0"
         id="path2503-5-18-7"
         d="M 0,0 5,-5 -12.5,0 5,5 Z"
         style="fill:#008066;fill-opacity:1;fill-rule:evenodd;stroke:#008066;stroke-width:1.00000003pt;stroke-opacity:1"
         transform="matrix(-0.2,0,0,-0.2,-1.2,0)" />
    </marker>
    <marker
       inkscape:stockid="Arrow1Send"
       orient="auto"
       refY="0"
       refX="0"
       id="marker2505-4-6-6"
       style="overflow:visible"
       inkscape:isstock="true">
      <path
         inkscape:connector-curvature="0"
         id="path2503-5-18-2"
         d="M 0,0 5,-5 -12.5,0 5,5 Z"
         style="fill:#008066;fill-opacity:1;fill-rule:evenodd;stroke:#008066;stroke-width:1.00000003pt;stroke-opacity:1"
         transform="matrix(-0.2,0,0,-0.2,-1.2,0)" />
    </marker>
    <marker
       inkscape:stockid="Arrow1Send"
       orient="auto"
       refY="0"
       refX="0"
       id="marker2505-4-6"
       style="overflow:visible"
       inkscape:isstock="true">
      <path
         inkscape:connector-curvature="0"
         id="path2503-5-18"
         d="M 0,0 5,-5 -12.5,0 5,5 Z"
         style="fill:#008066;fill-opacity:1;fill-rule:evenodd;stroke:#008066;stroke-width:1.00000003pt;stroke-opacity:1"
         transform="matrix(-0.2,0,0,-0.2,-1.2,0)" />
    </marker>
    <marker
       inkscape:stockid="Arrow2Mend"
       orient="auto"
       refY="0"
       refX="0"
       id="marker1902-8-29-1-8"
       style="overflow:visible"
       inkscape:isstock="true">
      <path
         inkscape:connector-curvature="0"
         id="path1575-6-8-6-0"
         style="fill:#000000;fill-opacity:1;fill-rule:evenodd;stroke:#000000;stroke-width:0.625;stroke-linejoin:round;stroke-opacity:1"
         d="M 8.7185878,4.0337352 -2.2072895,0.01601326 8.7185884,-4.0017078 c -1.7454984,2.3720609 -1.7354408,5.6174519 -6e-7,8.035443 z"
         transform="scale(-0.6)" />
    </marker>
    <marker
       inkscape:stockid="Arrow2Mend"
       orient="auto"
       refY="0"
       refX="0"
       id="marker1902-0-0"
       style="overflow:visible"
       inkscape:isstock="true">
      <path
         inkscape:connector-curvature="0"
         id="path1575-7-4"
         style="fill:#000000;fill-opacity:1;fill-rule:evenodd;stroke:#000000;stroke-width:0.625;stroke-linejoin:round;stroke-opacity:1"
         d="M 8.7185878,4.0337352 -2.2072895,0.01601326 8.7185884,-4.0017078 c -1.7454984,2.3720609 -1.7354408,5.6174519 -6e-7,8.035443 z"
         transform="scale(-0.6)" />
    </marker>
    <marker
       inkscape:stockid="Arrow2Mend"
       orient="auto"
       refY="0"
       refX="0"
       id="marker1902-0-3"
       style="overflow:visible"
       inkscape:isstock="true">
      <path
         inkscape:connector-curvature="0"
         id="path1575-7-3"
         style="fill:#000000;fill-opacity:1;fill-rule:evenodd;stroke:#000000;stroke-width:0.625;stroke-linejoin:round;stroke-opacity:1"
         d="M 8.7185878,4.0337352 -2.2072895,0.01601326 8.7185884,-4.0017078 c -1.7454984,2.3720609 -1.7354408,5.6174519 -6e-7,8.035443 z"
         transform="scale(-0.6)" />
    </marker>
    <marker
       inkscape:stockid="Arrow2Mend"
       orient="auto"
       refY="0"
       refX="0"
       id="marker1902-0"
       style="overflow:visible"
       inkscape:isstock="true">
      <path
         inkscape:connector-curvature="0"
         id="path1575-7"
         style="fill:#000000;fill-opacity:1;fill-rule:evenodd;stroke:#000000;stroke-width:0.625;stroke-linejoin:round;stroke-opacity:1"
         d="M 8.7185878,4.0337352 -2.2072895,0.01601326 8.7185884,-4.0017078 c -1.7454984,2.3720609 -1.7354408,5.6174519 -6e-7,8.035443 z"
         transform="scale(-0.6)" />
    </marker>
    <marker
       inkscape:stockid="Arrow2Mend"
       orient="auto"
       refY="0"
       refX="0"
       id="marker1902-8-29-1"
       style="overflow:visible"
       inkscape:isstock="true">
      <path
         inkscape:connector-curvature="0"
         id="path1575-6-8-6"
         style="fill:#000000;fill-opacity:1;fill-rule:evenodd;stroke:#000000;stroke-width:0.625;stroke-linejoin:round;stroke-opacity:1"
         d="M 8.7185878,4.0337352 -2.2072895,0.01601326 8.7185884,-4.0017078 c -1.7454984,2.3720609 -1.7354408,5.6174519 -6e-7,8.035443 z"
         transform="scale(-0.6)" />
    </marker>
    <marker
       inkscape:stockid="Arrow2Mend"
       orient="auto"
       refY="0"
       refX="0"
       id="marker1902-8-29-0"
       style="overflow:visible"
       inkscape:isstock="true">
      <path
         inkscape:connector-curvature="0"
         id="path1575-6-8-9"
         style="fill:#000000;fill-opacity:1;fill-rule:evenodd;stroke:#000000;stroke-width:0.625;stroke-linejoin:round;stroke-opacity:1"
         d="M 8.7185878,4.0337352 -2.2072895,0.01601326 8.7185884,-4.0017078 c -1.7454984,2.3720609 -1.7354408,5.6174519 -6e-7,8.035443 z"
         transform="scale(-0.6)" />
    </marker>
    <marker
       inkscape:stockid="Arrow2Mend"
       orient="auto"
       refY="0"
       refX="0"
       id="marker1938-2"
       style="overflow:visible"
       inkscape:isstock="true">
      <path
         inkscape:connector-curvature="0"
         id="path1936-6"
         style="fill:#000000;fill-opacity:1;fill-rule:evenodd;stroke:#000000;stroke-width:0.625;stroke-linejoin:round;stroke-opacity:1"
         d="M 8.7185878,4.0337352 -2.2072895,0.01601326 8.7185884,-4.0017078 c -1.7454984,2.3720609 -1.7354408,5.6174519 -6e-7,8.035443 z"
         transform="scale(-0.6)" />
    </marker>
    <marker
       inkscape:stockid="Arrow2Mend"
       orient="auto"
       refY="0"
       refX="0"
       id="marker1902-8-29"
       style="overflow:visible"
       inkscape:isstock="true">
      <path
         inkscape:connector-curvature="0"
         id="path1575-6-8"
         style="fill:#000000;fill-opacity:1;fill-rule:evenodd;stroke:#000000;stroke-width:0.625;stroke-linejoin:round;stroke-opacity:1"
         d="M 8.7185878,4.0337352 -2.2072895,0.01601326 8.7185884,-4.0017078 c -1.7454984,2.3720609 -1.7354408,5.6174519 -6e-7,8.035443 z"
         transform="scale(-0.6)" />
    </marker>
    <marker
       inkscape:stockid="Arrow2Mend"
       orient="auto"
       refY="0"
       refX="0"
       id="marker1902-8-4"
       style="overflow:visible"
       inkscape:isstock="true">
      <path
         inkscape:connector-curvature="0"
         id="path1575-6-6"
         style="fill:#000000;fill-opacity:1;fill-rule:evenodd;stroke:#000000;stroke-width:0.625;stroke-linejoin:round;stroke-opacity:1"
         d="M 8.7185878,4.0337352 -2.2072895,0.01601326 8.7185884,-4.0017078 c -1.7454984,2.3720609 -1.7354408,5.6174519 -6e-7,8.035443 z"
         transform="scale(-0.6)" />
    </marker>
    <marker
       inkscape:stockid="Arrow2Mend"
       orient="auto"
       refY="0"
       refX="0"
       id="marker1902-8-8"
       style="overflow:visible"
       inkscape:isstock="true">
      <path
         inkscape:connector-curvature="0"
         id="path1575-6-4"
         style="fill:#000000;fill-opacity:1;fill-rule:evenodd;stroke:#000000;stroke-width:0.625;stroke-linejoin:round;stroke-opacity:1"
         d="M 8.7185878,4.0337352 -2.2072895,0.01601326 8.7185884,-4.0017078 c -1.7454984,2.3720609 -1.7354408,5.6174519 -6e-7,8.035443 z"
         transform="scale(-0.6)" />
    </marker>
    <marker
       inkscape:stockid="Arrow2Mend"
       orient="auto"
       refY="0"
       refX="0"
       id="marker1902-8-6"
       style="overflow:visible"
       inkscape:isstock="true">
      <path
         inkscape:connector-curvature="0"
         id="path1575-6-0"
         style="fill:#000000;fill-opacity:1;fill-rule:evenodd;stroke:#000000;stroke-width:0.625;stroke-linejoin:round;stroke-opacity:1"
         d="M 8.7185878,4.0337352 -2.2072895,0.01601326 8.7185884,-4.0017078 c -1.7454984,2.3720609 -1.7354408,5.6174519 -6e-7,8.035443 z"
         transform="scale(-0.6)" />
    </marker>
    <marker
       inkscape:stockid="Arrow2Mend"
       orient="auto"
       refY="0"
       refX="0"
       id="marker1902-8-3"
       style="overflow:visible"
       inkscape:isstock="true">
      <path
         inkscape:connector-curvature="0"
         id="path1575-6-9"
         style="fill:#000000;fill-opacity:1;fill-rule:evenodd;stroke:#000000;stroke-width:0.625;stroke-linejoin:round;stroke-opacity:1"
         d="M 8.7185878,4.0337352 -2.2072895,0.01601326 8.7185884,-4.0017078 c -1.7454984,2.3720609 -1.7354408,5.6174519 -6e-7,8.035443 z"
         transform="scale(-0.6)" />
    </marker>
    <marker
       inkscape:stockid="Arrow2Mend"
       orient="auto"
       refY="0"
       refX="0"
       id="marker1969"
       style="overflow:visible"
       inkscape:isstock="true">
      <path
         inkscape:connector-curvature="0"
         id="path1967"
         style="fill:#000000;fill-opacity:1;fill-rule:evenodd;stroke:#000000;stroke-width:0.625;stroke-linejoin:round;stroke-opacity:1"
         d="M 8.7185878,4.0337352 -2.2072895,0.01601326 8.7185884,-4.0017078 c -1.7454984,2.3720609 -1.7354408,5.6174519 -6e-7,8.035443 z"
         transform="scale(-0.6)" />
    </marker>
    <marker
       inkscape:stockid="Arrow2Mend"
       orient="auto"
       refY="0"
       refX="0"
       id="marker1938"
       style="overflow:visible"
       inkscape:isstock="true">
      <path
         inkscape:connector-curvature="0"
         id="path1936"
         style="fill:#000000;fill-opacity:1;fill-rule:evenodd;stroke:#000000;stroke-width:0.625;stroke-linejoin:round;stroke-opacity:1"
         d="M 8.7185878,4.0337352 -2.2072895,0.01601326 8.7185884,-4.0017078 c -1.7454984,2.3720609 -1.7354408,5.6174519 -6e-7,8.035443 z"
         transform="scale(-0.6)" />
    </marker>
    <marker
       inkscape:stockid="Arrow2Mend"
       orient="auto"
       refY="0"
       refX="0"
       id="marker1902"
       style="overflow:visible"
       inkscape:isstock="true">
      <path
         inkscape:connector-curvature="0"
         id="path1575"
         style="fill:#000000;fill-opacity:1;fill-rule:evenodd;stroke:#000000;stroke-width:0.625;stroke-linejoin:round;stroke-opacity:1"
         d="M 8.7185878,4.0337352 -2.2072895,0.01601326 8.7185884,-4.0017078 c -1.7454984,2.3720609 -1.7354408,5.6174519 -6e-7,8.035443 z"
         transform="scale(-0.6)" />
    </marker>
    <marker
       inkscape:stockid="Arrow2Mstart"
       orient="auto"
       refY="0"
       refX="0"
       id="Arrow2Mstart-9"
       style="overflow:visible"
       inkscape:isstock="true">
      <path
         inkscape:connector-curvature="0"
         id="path1572-9"
         style="fill:#000000;fill-opacity:1;fill-rule:evenodd;stroke:#000000;stroke-width:0.625;stroke-linejoin:round;stroke-opacity:1"
         d="M 8.7185878,4.0337352 -2.2072895,0.01601326 8.7185884,-4.0017078 c -1.7454984,2.3720609 -1.7354408,5.6174519 -6e-7,8.035443 z"
         transform="scale(0.6)" />
    </marker>
    <marker
       inkscape:stockid="Arrow1Send"
       orient="auto"
       refY="0"
       refX="0"
       id="Arrow1Send"
       style="overflow:visible"
       inkscape:isstock="true">
      <path
         inkscape:connector-curvature="0"
         id="path2218"
         d="M 0,0 5,-5 -12.5,0 5,5 Z"
         style="fill:#214478;fill-opacity:1;fill-rule:evenodd;stroke:#214478;stroke-width:1.00000003pt;stroke-opacity:1"
         transform="matrix(-0.2,0,0,-0.2,-1.2,0)" />
    </marker>
    <marker
       inkscape:stockid="Arrow1Send"
       orient="auto"
       refY="0"
       refX="0"
       id="marker2521"
       style="overflow:visible"
       inkscape:isstock="true">
      <path
         inkscape:connector-curvature="0"
         id="path2519"
         d="M 0,0 5,-5 -12.5,0 5,5 Z"
         style="fill:#782167;fill-opacity:1;fill-rule:evenodd;stroke:#782167;stroke-width:1.00000003pt;stroke-opacity:1"
         transform="matrix(-0.2,0,0,-0.2,-1.2,0)" />
    </marker>
    <marker
       inkscape:stockid="Arrow1Send"
       orient="auto"
       refY="0"
       refX="0"
       id="marker2513"
       style="overflow:visible"
       inkscape:isstock="true">
      <path
         inkscape:connector-curvature="0"
         id="path2511"
         d="M 0,0 5,-5 -12.5,0 5,5 Z"
         style="fill:#782167;fill-opacity:1;fill-rule:evenodd;stroke:#782167;stroke-width:1.00000003pt;stroke-opacity:1"
         transform="matrix(-0.2,0,0,-0.2,-1.2,0)" />
    </marker>
    <marker
       inkscape:stockid="Arrow1Send"
       orient="auto"
       refY="0"
       refX="0"
       id="marker2481"
       style="overflow:visible"
       inkscape:isstock="true">
      <path
         inkscape:connector-curvature="0"
         id="path2479"
         d="M 0,0 5,-5 -12.5,0 5,5 Z"
         style="fill:#008091;fill-opacity:1;fill-rule:evenodd;stroke:#008091;stroke-width:1.00000003pt;stroke-opacity:1"
         transform="matrix(-0.2,0,0,-0.2,-1.2,0)" />
    </marker>
    <marker
       inkscape:stockid="Arrow1Send"
       orient="auto"
       refY="0"
       refX="0"
       id="marker2489"
       style="overflow:visible"
       inkscape:isstock="true">
      <path
         inkscape:connector-curvature="0"
         id="path2487"
         d="M 0,0 5,-5 -12.5,0 5,5 Z"
         style="fill:#008091;fill-opacity:1;fill-rule:evenodd;stroke:#008091;stroke-width:1.00000003pt;stroke-opacity:1"
         transform="matrix(-0.2,0,0,-0.2,-1.2,0)" />
    </marker>
    <marker
       inkscape:stockid="Arrow1Send"
       orient="auto"
       refY="0"
       refX="0"
       id="marker2529"
       style="overflow:visible"
       inkscape:isstock="true">
      <path
         inkscape:connector-curvature="0"
         id="path2527"
         d="M 0,0 5,-5 -12.5,0 5,5 Z"
         style="fill:#214478;fill-opacity:1;fill-rule:evenodd;stroke:#214478;stroke-width:1.00000003pt;stroke-opacity:1"
         transform="matrix(-0.2,0,0,-0.2,-1.2,0)" />
    </marker>
    <marker
       inkscape:stockid="Arrow1Send"
       orient="auto"
       refY="0"
       refX="0"
       id="marker2497"
       style="overflow:visible"
       inkscape:isstock="true">
      <path
         inkscape:connector-curvature="0"
         id="path2495"
         d="M 0,0 5,-5 -12.5,0 5,5 Z"
         style="fill:#214478;fill-opacity:1;fill-rule:evenodd;stroke:#214478;stroke-width:1.00000003pt;stroke-opacity:1"
         transform="matrix(-0.2,0,0,-0.2,-1.2,0)" />
    </marker>
    <marker
       inkscape:stockid="Arrow1Send"
       orient="auto"
       refY="0"
       refX="0"
       id="marker2505"
       style="overflow:visible"
       inkscape:isstock="true">
      <path
         inkscape:connector-curvature="0"
         id="path2503"
         d="M 0,0 5,-5 -12.5,0 5,5 Z"
         style="fill:#214478;fill-opacity:1;fill-rule:evenodd;stroke:#214478;stroke-width:1.00000003pt;stroke-opacity:1"
         transform="matrix(-0.2,0,0,-0.2,-1.2,0)" />
    </marker>
  </defs>
  <sodipodi:namedview
     id="base"
     pagecolor="#ffffff"
     bordercolor="#666666"
     borderopacity="1.0"
     inkscape:pageopacity="0.0"
     inkscape:pageshadow="2"
     inkscape:zoom="0.49497475"
     inkscape:cx="372.48256"
     inkscape:cy="579.54563"
     inkscape:document-units="mm"
     inkscape:current-layer="layer1"
     showgrid="false"
     inkscape:window-width="1920"
     inkscape:window-height="1017"
     inkscape:window-x="-8"
     inkscape:window-y="-8"
     inkscape:window-maximized="1" />
  <metadata
     id="metadata3566">
    <rdf:RDF>
      <cc:Work
         rdf:about="">
        <dc:format>image/svg+xml</dc:format>
        <dc:type
           rdf:resource="http://purl.org/dc/dcmitype/StillImage" />
        <dc:title></dc:title>
      </cc:Work>
    </rdf:RDF>
  </metadata>
  <g
     inkscape:label="Capa 1"
     inkscape:groupmode="layer"
     id="layer1"
     transform="translate(0,-87)">
    <path
       style="fill:#ffffff;fill-rule:evenodd;stroke:none;stroke-width:0.26458338;stroke-linecap:butt;stroke-linejoin:miter;stroke-miterlimit:4;stroke-dasharray:none;stroke-dashoffset:0;stroke-opacity:1"
       d="M 0.9141404,87.86001 0.52327694,297.14814 H 297.32195 V 88.086618 Z"
       id="path862-2"
       inkscape:connector-curvature="0"
       sodipodi:nodetypes="ccccc" />
    <path
       inkscape:connector-curvature="0"
       id="path1037-8-0-6"
       d="m 102.59209,235.73368 c 9.29607,0.0253 8.90841,0.005 9.55217,0.48085 0.30482,0.22475 0.70812,0.69793 0.89652,1.05137 l 0.3424,0.64262 0.0412,5.60336 c 0.0231,3.08184 0,5.85042 -0.0362,6.15246 -0.12187,0.85642 -1.76014,3.2115 -2.39005,3.4366 -10.89713,0.48188 -20.960623,0.21197 -31.697508,0.0959 l -0.573099,-0.48826 c -0.315205,-0.26849 -0.714069,-0.82749 -0.886164,-1.24217 -0.302359,-0.72818 -0.314545,-0.93718 -0.356886,-6.10317 -0.02964,-3.67586 0,-5.591 0.116926,-6.12236 0.123513,-0.59344 0.373831,-1.03118 1.078036,-1.88287 1.376903,-1.66516 1.342485,-1.65744 7.26107,-1.63741 2.730621,0.009 6.066126,0.009 7.412415,0.005 17.19595,0.0483 -9.216706,0.0617 9.23942,0.005 z"
       style="fill:#bc9d82;fill-opacity:1;stroke-width:1.00000012"
       sodipodi:nodetypes="ccccccccccccsccc" />
    <text
       xml:space="preserve"
       style="font-style:normal;font-variant:normal;font-weight:normal;font-stretch:normal;font-size:4.8898325px;line-height:1.25;font-family:sans-serif;-inkscape-font-specification:sans-serif;letter-spacing:0px;word-spacing:0px;fill:#000000;fill-opacity:1;stroke:none;stroke-width:0.26458332px;stroke-linecap:butt;stroke-linejoin:miter;stroke-opacity:1"
       x="92.821281"
       y="132.94766"
       id="text5904"
       transform="scale(0.95357173,1.0486888)"><tspan
         sodipodi:role="line"
         id="tspan5902"
         x="92.821281"
         y="132.94766"
         style="fill:#000000;stroke-width:0.26458332px">GPP</tspan></text>
    <path
       inkscape:connector-curvature="0"
       id="path1037-8-0"
       d="m 182.39702,235.6403 c 9.29591,0.0252 8.9084,0.005 9.55216,0.48086 0.30466,0.22478 0.70812,0.69788 0.89636,1.05134 l 0.34238,0.64267 0.0412,5.60332 c 0.0231,3.08182 0,5.85046 -0.0362,6.15248 -0.12186,0.85642 -1.76014,3.21151 -2.39005,3.43657 -10.89729,0.48194 -20.96062,0.21202 -31.69752,0.0959 l -0.57309,-0.48821 c -0.31521,-0.26852 -0.71408,-0.82752 -0.88617,-1.24222 -0.30236,-0.72818 -0.31454,-0.93713 -0.35687,-6.10312 -0.0297,-3.67591 0,-5.59103 0.11693,-6.12238 0.12351,-0.59341 0.37383,-1.03121 1.07802,-1.88289 1.37691,-1.66515 1.3425,-1.65743 7.26107,-1.6374 2.73062,0.009 6.06612,0.009 7.41241,0.005 17.19596,0.0483 -9.21669,0.0617 9.23943,0.005 z"
       style="fill:#c8b7be;stroke-width:1.00000012"
       sodipodi:nodetypes="ccccccccccccsccc" />
    <path
       style="fill:#214478;fill-opacity:1;fill-rule:evenodd;stroke:#214478;stroke-width:0.46500012;stroke-linecap:butt;stroke-linejoin:miter;stroke-miterlimit:4;stroke-dasharray:none;stroke-dashoffset:0;stroke-opacity:1;marker-end:url(#marker2505)"
       d="m 113.56876,244.51054 41.31635,-0.17279"
       id="path2773-7"
       inkscape:connector-curvature="0"
       sodipodi:nodetypes="cc" />
    <text
       xml:space="preserve"
       style="font-style:normal;font-variant:normal;font-weight:normal;font-stretch:normal;font-size:6.18739176px;line-height:1.25;font-family:'Bell MT';-inkscape-font-specification:'Bell MT';letter-spacing:0px;word-spacing:0px;fill:#000000;fill-opacity:1;stroke:none;stroke-width:0.26458329px;stroke-linecap:butt;stroke-linejoin:miter;stroke-opacity:1"
       x="91.841393"
       y="234.44525"
       id="text923-18-3"
       transform="scale(0.95349517,1.048773)"><tspan
         sodipodi:role="line"
         id="tspan921-4-6"
         x="91.841393"
         y="234.44525"
         style="font-style:normal;font-variant:normal;font-weight:normal;font-stretch:normal;font-size:6.18739176px;font-family:'Bell MT';-inkscape-font-specification:'Bell MT';stroke-width:0.26458329px">Wood</tspan></text>
    <text
       xml:space="preserve"
       style="font-style:normal;font-variant:normal;font-weight:normal;font-stretch:normal;font-size:6.18739176px;line-height:1.25;font-family:'Bell MT';-inkscape-font-specification:'Bell MT';letter-spacing:0px;word-spacing:0px;fill:#000000;fill-opacity:1;stroke:none;stroke-width:0.26458329px;stroke-linecap:butt;stroke-linejoin:miter;stroke-opacity:1"
       x="165.39969"
       y="231.45064"
       id="text937-0-5"
       transform="scale(0.95349517,1.048773)"><tspan
         sodipodi:role="line"
         x="165.39969"
         y="231.45064"
         style="font-style:normal;font-variant:normal;font-weight:normal;font-stretch:normal;font-size:6.18739176px;font-family:'Bell MT';-inkscape-font-specification:'Bell MT';stroke-width:0.26458329px"
         id="tspan939-5-9">Coarse Woody</tspan><tspan
         sodipodi:role="line"
         x="165.39969"
         y="239.18488"
         style="font-style:normal;font-variant:normal;font-weight:normal;font-stretch:normal;font-size:6.18739176px;font-family:'Bell MT';-inkscape-font-specification:'Bell MT';stroke-width:0.26458329px"
         id="tspan2595">    Debrys </tspan></text>
    <path
       style="fill:#214478;fill-rule:evenodd;stroke:#214478;stroke-width:0.46500003;stroke-linecap:butt;stroke-linejoin:miter;stroke-miterlimit:4;stroke-dasharray:none;stroke-opacity:1;marker-end:url(#marker2497)"
       d="m 98.478295,178.51299 -0.01647,54.62862"
       id="path949-2-9"
       inkscape:connector-curvature="0"
       sodipodi:nodetypes="cc" />
    <path
       style="fill:#214478;fill-rule:evenodd;stroke:#214478;stroke-width:0.46500012;stroke-linecap:butt;stroke-linejoin:miter;stroke-miterlimit:4;stroke-dasharray:none;stroke-opacity:1;marker-end:url(#marker2529)"
       d="m 194.80133,242.71471 20.85701,-15.70699"
       id="path2777-5"
       inkscape:connector-curvature="0"
       sodipodi:nodetypes="cc" />
    <path
       style="fill:none;fill-rule:evenodd;stroke:#008091;stroke-width:0.46500003;stroke-linecap:butt;stroke-linejoin:miter;stroke-miterlimit:4;stroke-dasharray:none;stroke-opacity:1;marker-end:url(#marker2489)"
       d="m 113.63776,171.31775 h 6.87604 v 21.39556"
       id="path2769-6"
       inkscape:connector-curvature="0" />
    <path
       style="fill:none;fill-rule:evenodd;stroke:#008091;stroke-width:0.46499997;stroke-linecap:butt;stroke-linejoin:miter;stroke-miterlimit:4;stroke-dasharray:none;stroke-opacity:1;marker-end:url(#marker2481)"
       d="M 83.040018,171.01151 H 75.262664 V 198.0826"
       id="path2769-6-6"
       inkscape:connector-curvature="0" />
    <path
       style="fill:#782167;fill-rule:evenodd;stroke:#782167;stroke-width:0.46500003;stroke-linecap:butt;stroke-linejoin:miter;stroke-miterlimit:4;stroke-dasharray:none;stroke-opacity:1;marker-end:url(#marker2513)"
       d="m 139.22831,204.42603 15.65581,-0.0356"
       id="path2773-9-4"
       inkscape:connector-curvature="0"
       sodipodi:nodetypes="cc" />
    <path
       style="fill:#782167;fill-rule:evenodd;stroke:#782167;stroke-width:0.46500012;stroke-linecap:butt;stroke-linejoin:miter;stroke-miterlimit:4;stroke-dasharray:none;stroke-opacity:1;marker-end:url(#marker2521)"
       d="m 194.25819,202.67171 21.19266,11.42263"
       id="path2775-8"
       inkscape:connector-curvature="0"
       sodipodi:nodetypes="cc" />
    <path
       inkscape:connector-curvature="0"
       id="path1037-8-0-6-2"
       d="m 80.235784,200.85166 c 9.295902,0.0253 8.908401,0.005 9.552166,0.48084 0.304649,0.22482 0.708125,0.69793 0.896358,1.05137 l 0.342393,0.64269 0.04118,5.6033 c 0.02305,3.08183 0,5.85042 -0.03623,6.15244 -0.121866,0.85643 -1.760304,3.21152 -2.390055,3.43661 -10.897286,0.48194 -20.960617,0.21199 -31.697667,0.096 l -0.573099,-0.48828 c -0.315205,-0.26847 -0.713904,-0.82748 -0.886163,-1.24215 -0.302195,-0.72819 -0.314381,-0.93719 -0.356705,-6.1032 -0.02965,-3.67585 0,-5.59098 0.116926,-6.12234 0.123511,-0.59344 0.373831,-1.03119 1.078019,-1.88287 1.376756,-1.66516 1.342502,-1.65744 7.26107,-1.63743 2.730457,0.009 6.06596,0.009 7.412251,0.005 17.196111,0.0483 -9.216525,0.0618 9.239581,0.004 z"
       style="fill:#bea568;fill-opacity:1;stroke-width:1.00000012"
       sodipodi:nodetypes="ccccccccccccsccc" />
    <text
       xml:space="preserve"
       style="font-style:normal;font-variant:normal;font-weight:normal;font-stretch:normal;font-size:6.18739176px;line-height:1.25;font-family:'Bell MT';-inkscape-font-specification:'Bell MT';letter-spacing:0px;word-spacing:0px;fill:#000000;fill-opacity:1;stroke:none;stroke-width:0.26458329px;stroke-linecap:butt;stroke-linejoin:miter;stroke-opacity:1"
       x="60.007507"
       y="200.91727"
       id="text931-4-6"
       transform="scale(0.95349517,1.048773)"><tspan
         sodipodi:role="line"
         x="60.007507"
         y="200.91727"
         style="font-style:normal;font-variant:normal;font-weight:normal;font-stretch:normal;font-size:6.18739176px;font-family:'Bell MT';-inkscape-font-specification:'Bell MT';stroke-width:0.26458329px"
         id="tspan933-5-8">Coarse Roots</tspan></text>
    <path
       inkscape:connector-curvature="0"
       id="path1037-8-0-6-2-3"
       d="m 128.89474,195.83668 c 9.29588,0.0252 8.90838,0.005 9.55213,0.48086 0.30484,0.22478 0.70815,0.69791 0.89639,1.05136 l 0.34236,0.64268 0.0412,5.60329 c 0.0231,3.08184 0,5.85047 -0.0362,6.15251 -0.12186,0.85639 -1.7603,3.21149 -2.39005,3.43655 -10.89729,0.48196 -20.96061,0.21201 -31.6975,0.0959 l -0.5731,-0.48826 c -0.31519,-0.26853 -0.71407,-0.82752 -0.88617,-1.24221 -0.30235,-0.72815 -0.31454,-0.93714 -0.35687,-6.10312 -0.0296,-3.67591 0,-5.591 0.11693,-6.1224 0.12351,-0.59342 0.37383,-1.03115 1.07804,-1.88288 1.3769,-1.66517 1.3425,-1.65739 7.26106,-1.63741 2.73062,0.009 6.06611,0.009 7.4124,0.004 17.19597,0.0483 -9.21669,0.0617 9.23944,0.005 z"
       style="fill:#bea579;fill-opacity:1;stroke-width:1.00000012"
       sodipodi:nodetypes="ccccccccccccsccc" />
    <text
       xml:space="preserve"
       style="font-style:normal;font-variant:normal;font-weight:normal;font-stretch:normal;font-size:6.18739176px;line-height:1.25;font-family:'Bell MT';-inkscape-font-specification:'Bell MT';letter-spacing:0px;word-spacing:0px;fill:#000000;fill-opacity:1;stroke:none;stroke-width:0.26458329px;stroke-linecap:butt;stroke-linejoin:miter;stroke-opacity:1"
       x="111.86703"
       y="196.58325"
       id="text927-6"
       transform="scale(0.95349517,1.048773)"><tspan
         sodipodi:role="line"
         x="111.86703"
         y="196.58325"
         style="font-style:normal;font-variant:normal;font-weight:normal;font-stretch:normal;font-size:6.18739176px;font-family:'Bell MT';-inkscape-font-specification:'Bell MT';stroke-width:0.26458329px"
         id="tspan3927-69"> Fine Roots </tspan></text>
    <path
       inkscape:connector-curvature="0"
       id="path1037-8-0-6-2-3-3"
       d="m 105.27942,161.11559 c 9.2959,0.0252 8.90838,0.005 9.55213,0.48089 0.30483,0.22475 0.70816,0.69792 0.89639,1.05137 l 0.34236,0.64262 0.0412,5.60331 c 0.0231,3.08189 0,5.85048 -0.0362,6.15251 -0.12187,0.85641 -1.7603,3.21149 -2.39006,3.43662 -10.89729,0.48193 -20.960613,0.21196 -31.697499,0.0959 l -0.5731,-0.48827 c -0.315369,-0.26847 -0.714068,-0.82748 -0.886162,-1.24216 -0.30236,-0.72818 -0.314545,-0.93714 -0.35687,-6.10313 -0.02964,-3.67591 0,-5.59103 0.116925,-6.12237 0.123513,-0.59347 0.373832,-1.03122 1.078019,-1.8829 1.376757,-1.66521 1.342502,-1.65743 7.261072,-1.6374 2.730457,0.009 6.066126,0.009 7.412415,0.005 17.19595,0.0483 -9.216691,0.0617 9.23942,0.005 z"
       style="fill:#5ba04d;fill-opacity:1;stroke-width:1.00000012"
       sodipodi:nodetypes="ccccccccccccsccc" />
    <text
       xml:space="preserve"
       style="font-style:normal;font-variant:normal;font-weight:normal;font-stretch:normal;font-size:6.18739176px;line-height:1.25;font-family:'Bell MT';-inkscape-font-specification:'Bell MT';letter-spacing:0px;word-spacing:0px;fill:#000000;fill-opacity:1;stroke:none;stroke-width:0.26458329px;stroke-linecap:butt;stroke-linejoin:miter;stroke-opacity:1"
       x="92.834824"
       y="162.81123"
       id="text919-2"
       transform="scale(0.95349517,1.048773)"><tspan
         sodipodi:role="line"
         id="tspan917-0"
         x="92.834824"
         y="162.81123"
         style="font-style:normal;font-variant:normal;font-weight:normal;font-stretch:normal;font-size:6.18739176px;font-family:'Bell MT';-inkscape-font-specification:'Bell MT';stroke-width:0.26458329px">Foliage</tspan></text>
    <path
       inkscape:connector-curvature="0"
       id="path1037-8-0-6-2-3-3-3"
       d="m 182.0278,195.63579 c 9.29591,0.0253 8.90839,0.005 9.55215,0.48087 0.30466,0.22477 0.70814,0.69793 0.89637,1.05137 l 0.34239,0.64264 0.0412,5.60332 c 0.0231,3.08182 0,5.85045 -0.0364,6.15247 -0.12185,0.85643 -1.76013,3.21152 -2.39004,3.43661 -10.89729,0.4819 -20.96063,0.21199 -31.69752,0.096 l -0.57309,-0.48828 c -0.31522,-0.26846 -0.71408,-0.82746 -0.88617,-1.24221 -0.30236,-0.72811 -0.31454,-0.9371 -0.35688,-6.10312 -0.0297,-3.67585 0,-5.59098 0.11693,-6.12234 0.12352,-0.59345 0.37385,-1.0312 1.07802,-1.88287 1.37692,-1.66519 1.34251,-1.65746 7.26108,-1.63742 2.73062,0.009 6.06611,0.009 7.4124,0.005 17.19597,0.0483 -9.21668,0.0617 9.23944,0.004 z"
       style="fill:#decd87;fill-opacity:1;stroke-width:1.00000012"
       sodipodi:nodetypes="ccccccccccccsccc" />
    <path
       inkscape:connector-curvature="0"
       id="path1037-8-0-6-2-3-3-8"
       d="m 243.14538,210.76885 c 9.2959,0.0253 8.9084,0.005 9.55216,0.48084 0.30466,0.22483 0.70812,0.69793 0.89636,1.05139 l 0.34238,0.64268 0.0412,5.6033 c 0.023,3.08184 0,5.85047 -0.0362,6.1525 -0.12185,0.85642 -1.76031,3.21152 -2.39005,3.43656 -10.89729,0.48193 -20.96062,0.21203 -31.6975,0.0959 l -0.57327,-0.4882 c -0.3152,-0.26854 -0.71391,-0.82753 -0.88615,-1.24223 -0.30221,-0.72817 -0.3144,-0.93712 -0.35671,-6.10312 -0.0297,-3.67587 0,-5.591 0.11692,-6.12233 0.12352,-0.59347 0.37383,-1.03127 1.07801,-1.8829 1.37693,-1.6652 1.3425,-1.65743 7.26108,-1.63745 2.73061,0.009 6.06612,0.009 7.41241,0.005 17.19595,0.048 -9.21669,0.0617 9.23942,0.005 z"
       style="fill:#93a7ac;fill-opacity:1;stroke-width:1.00000012"
       sodipodi:nodetypes="ccccccccccccsccc" />
    <text
       xml:space="preserve"
       style="font-style:normal;font-variant:normal;font-weight:normal;font-stretch:normal;font-size:6.18739176px;line-height:1.25;font-family:'Bell MT';-inkscape-font-specification:'Bell MT';letter-spacing:0px;word-spacing:0px;fill:#000000;fill-opacity:1;stroke:none;stroke-width:0.26458329px;stroke-linecap:butt;stroke-linejoin:miter;stroke-opacity:1"
       x="169.84068"
       y="196.21715"
       id="text943-8-9"
       transform="scale(0.95349517,1.048773)"><tspan
         sodipodi:role="line"
         x="169.84068"
         y="196.21715"
         style="font-style:normal;font-variant:normal;font-weight:normal;font-stretch:normal;font-size:6.18739176px;font-family:'Bell MT';-inkscape-font-specification:'Bell MT';stroke-width:0.26458329px"
         id="tspan7341-4-2">Fine Litter</tspan></text>
    <text
       xml:space="preserve"
       style="font-style:normal;font-variant:normal;font-weight:normal;font-stretch:normal;font-size:6.18739176px;line-height:1.25;font-family:'Bell MT';-inkscape-font-specification:'Bell MT';letter-spacing:0px;word-spacing:0px;fill:#000000;fill-opacity:1;stroke:none;stroke-width:0.26458329px;stroke-linecap:butt;stroke-linejoin:miter;stroke-opacity:1"
       x="233.18292"
       y="210.41975"
       id="text947-4-7"
       transform="scale(0.95349517,1.048773)"><tspan
         sodipodi:role="line"
         x="233.18292"
         y="210.41975"
         style="font-style:normal;font-variant:normal;font-weight:normal;font-stretch:normal;font-size:6.18739176px;font-family:'Bell MT';-inkscape-font-specification:'Bell MT';stroke-width:0.26458329px"
         id="tspan7343-26-6">Soil Carbon</tspan></text>
    <path
       style="fill:#214478;fill-rule:evenodd;stroke:#214478;stroke-width:0.46500003;stroke-linecap:butt;stroke-linejoin:miter;stroke-miterlimit:4;stroke-dasharray:none;stroke-opacity:1;marker-end:url(#Arrow1Send)"
       d="m 93.161556,140.85015 -0.0012,18.32337"
       id="path949-2-9-4"
       inkscape:connector-curvature="0"
       sodipodi:nodetypes="cc" />
    <text
       xml:space="preserve"
       style="font-style:normal;font-variant:normal;font-weight:normal;font-stretch:normal;font-size:6.66334534px;line-height:1.25;font-family:'Bell MT';-inkscape-font-specification:'Bell MT';letter-spacing:0px;word-spacing:0px;fill:#000000;fill-opacity:1;stroke:none;stroke-width:0.26458332px;stroke-linecap:butt;stroke-linejoin:miter;stroke-opacity:1"
       x="132.75203"
       y="129.64677"
       id="text1514"
       transform="scale(0.95350927,1.0487575)"><tspan
         sodipodi:role="line"
         id="tspan1512"
         x="132.75203"
         y="129.64677"
         style="font-style:normal;font-variant:normal;font-weight:normal;font-stretch:normal;font-family:'Bell MT';-inkscape-font-specification:'Bell MT';stroke-width:0.26458332px">Atmosphere</tspan></text>
    <path
       style="fill:#008066;fill-opacity:1;fill-rule:evenodd;stroke:#008066;stroke-width:0.46500024;stroke-linecap:butt;stroke-linejoin:miter;stroke-miterlimit:4;stroke-dasharray:none;stroke-dashoffset:0;stroke-opacity:1;marker-end:url(#marker2505-4-6)"
       d="M 93.545687,235.71807 93.389238,220.28563"
       id="path2773-7-2-0"
       inkscape:connector-curvature="0"
       sodipodi:nodetypes="cc" />
    <path
       style="fill:#008066;fill-opacity:1;fill-rule:evenodd;stroke:#008066;stroke-width:0.46500024;stroke-linecap:butt;stroke-linejoin:miter;stroke-miterlimit:4;stroke-dasharray:none;stroke-dashoffset:0;stroke-opacity:1;marker-end:url(#marker2505-4-6-6)"
       d="M 104.3594,160.34705 104.20295,144.9146"
       id="path2773-7-2-0-9"
       inkscape:connector-curvature="0"
       sodipodi:nodetypes="cc" />
    <path
       style="fill:#008066;fill-opacity:1;fill-rule:evenodd;stroke:#008066;stroke-width:0.46500024;stroke-linecap:butt;stroke-linejoin:miter;stroke-miterlimit:4;stroke-dasharray:none;stroke-dashoffset:0;stroke-opacity:1;marker-end:url(#marker2505-4-6-68)"
       d="m 173.94858,235.51328 -0.15645,-15.43247"
       id="path2773-7-2-0-4"
       inkscape:connector-curvature="0"
       sodipodi:nodetypes="cc" />
    <path
       style="fill:#008066;fill-opacity:1;fill-rule:evenodd;stroke:#008066;stroke-width:0.46500024;stroke-linecap:butt;stroke-linejoin:miter;stroke-miterlimit:4;stroke-dasharray:none;stroke-dashoffset:0;stroke-opacity:1;marker-end:url(#marker2505-4-6-7)"
       d="m 175.02693,195.18634 -0.15645,-15.43247"
       id="path2773-7-2-0-2"
       inkscape:connector-curvature="0"
       sodipodi:nodetypes="cc" />
    <path
       style="fill:#008066;fill-opacity:1;fill-rule:evenodd;stroke:#008066;stroke-width:0.46500024;stroke-linecap:butt;stroke-linejoin:miter;stroke-miterlimit:4;stroke-dasharray:none;stroke-dashoffset:0;stroke-opacity:1;marker-end:url(#marker2505-4-6-8)"
       d="m 235.52875,210.54866 -0.15644,-15.43244"
       id="path2773-7-2-0-5"
       inkscape:connector-curvature="0"
       sodipodi:nodetypes="cc"
       inkscape:transform-center-x="67.917433"
       inkscape:transform-center-y="-20.577201" />
    <path
       style="fill:#008066;fill-opacity:1;fill-rule:evenodd;stroke:#008066;stroke-width:0.46500024;stroke-linecap:butt;stroke-linejoin:miter;stroke-miterlimit:4;stroke-dasharray:none;stroke-dashoffset:0;stroke-opacity:1;marker-end:url(#marker2505-4-6-1)"
       d="M 65.786432,200.84379 65.629983,185.41138"
       id="path2773-7-2-0-46"
       inkscape:connector-curvature="0"
       sodipodi:nodetypes="cc" />
    <path
       style="fill:#008066;fill-opacity:1;fill-rule:evenodd;stroke:#008066;stroke-width:0.46500024;stroke-linecap:butt;stroke-linejoin:miter;stroke-miterlimit:4;stroke-dasharray:none;stroke-dashoffset:0;stroke-opacity:1;marker-end:url(#marker2505-4-6-5)"
       d="m 127.17396,196.0453 -0.15645,-15.43247"
       id="path2773-7-2-0-6"
       inkscape:connector-curvature="0"
       sodipodi:nodetypes="cc" />
  </g>
</svg>
