<?xml version="1.0" encoding="UTF-8" standalone="no"?>
<!-- Created with Inkscape (http://www.inkscape.org/) -->

<svg
   xmlns:dc="http://purl.org/dc/elements/1.1/"
   xmlns:cc="http://creativecommons.org/ns#"
   xmlns:rdf="http://www.w3.org/1999/02/22-rdf-syntax-ns#"
   xmlns:svg="http://www.w3.org/2000/svg"
   xmlns="http://www.w3.org/2000/svg"
   xmlns:sodipodi="http://sodipodi.sourceforge.net/DTD/sodipodi-0.dtd"
   xmlns:inkscape="http://www.inkscape.org/namespaces/inkscape"
   width="210mm"
   height="297mm"
   viewBox="0 0 210 297"
   version="1.1"
   id="svg3569"
   inkscape:version="0.92.4 (5da689c313, 2019-01-14)"
   sodipodi:docname="porcemodel.svg">
  <defs
     id="defs3563">
    <marker
       inkscape:stockid="Arrow1Send"
       orient="auto"
       refY="0"
       refX="0"
       id="marker2505-4-6-5"
       style="overflow:visible"
       inkscape:isstock="true">
      <path
         inkscape:connector-curvature="0"
         id="path2503-5-18-03"
         d="M 0,0 5,-5 -12.5,0 5,5 Z"
         style="fill:#008066;fill-opacity:1;fill-rule:evenodd;stroke:#008066;stroke-width:1.00000003pt;stroke-opacity:1"
         transform="matrix(-0.2,0,0,-0.2,-1.2,0)" />
    </marker>
    <marker
       inkscape:stockid="Arrow1Send"
       orient="auto"
       refY="0"
       refX="0"
       id="marker2505-4-6-1"
       style="overflow:visible"
       inkscape:isstock="true">
      <path
         inkscape:connector-curvature="0"
         id="path2503-5-18-0"
         d="M 0,0 5,-5 -12.5,0 5,5 Z"
         style="fill:#008066;fill-opacity:1;fill-rule:evenodd;stroke:#008066;stroke-width:1.00000003pt;stroke-opacity:1"
         transform="matrix(-0.2,0,0,-0.2,-1.2,0)" />
    </marker>
    <marker
       inkscape:stockid="Arrow1Send"
       orient="auto"
       refY="0"
       refX="0"
       id="marker2505-4-6-8"
       style="overflow:visible"
       inkscape:isstock="true">
      <path
         inkscape:connector-curvature="0"
         id="path2503-5-18-71"
         d="M 0,0 5,-5 -12.5,0 5,5 Z"
         style="fill:#008066;fill-opacity:1;fill-rule:evenodd;stroke:#008066;stroke-width:1.00000003pt;stroke-opacity:1"
         transform="matrix(-0.2,0,0,-0.2,-1.2,0)" />
    </marker>
    <marker
       inkscape:stockid="Arrow1Send"
       orient="auto"
       refY="0"
       refX="0"
       id="marker2505-4-6-7"
       style="overflow:visible"
       inkscape:isstock="true">
      <path
         inkscape:connector-curvature="0"
         id="path2503-5-18-4"
         d="M 0,0 5,-5 -12.5,0 5,5 Z"
         style="fill:#008066;fill-opacity:1;fill-rule:evenodd;stroke:#008066;stroke-width:1.00000003pt;stroke-opacity:1"
         transform="matrix(-0.2,0,0,-0.2,-1.2,0)" />
    </marker>
    <marker
       inkscape:stockid="Arrow1Send"
       orient="auto"
       refY="0"
       refX="0"
       id="marker2505-4-6-68"
       style="overflow:visible"
       inkscape:isstock="true">
      <path
         inkscape:connector-curvature="0"
         id="path2503-5-18-7"
         d="M 0,0 5,-5 -12.5,0 5,5 Z"
         style="fill:#008066;fill-opacity:1;fill-rule:evenodd;stroke:#008066;stroke-width:1.00000003pt;stroke-opacity:1"
         transform="matrix(-0.2,0,0,-0.2,-1.2,0)" />
    </marker>
    <marker
       inkscape:stockid="Arrow1Send"
       orient="auto"
       refY="0"
       refX="0"
       id="marker2505-4-6-6"
       style="overflow:visible"
       inkscape:isstock="true">
      <path
         inkscape:connector-curvature="0"
         id="path2503-5-18-2"
         d="M 0,0 5,-5 -12.5,0 5,5 Z"
         style="fill:#008066;fill-opacity:1;fill-rule:evenodd;stroke:#008066;stroke-width:1.00000003pt;stroke-opacity:1"
         transform="matrix(-0.2,0,0,-0.2,-1.2,0)" />
    </marker>
    <marker
       inkscape:stockid="Arrow1Send"
       orient="auto"
       refY="0"
       refX="0"
       id="marker2505-4-6"
       style="overflow:visible"
       inkscape:isstock="true">
      <path
         inkscape:connector-curvature="0"
         id="path2503-5-18"
         d="M 0,0 5,-5 -12.5,0 5,5 Z"
         style="fill:#008066;fill-opacity:1;fill-rule:evenodd;stroke:#008066;stroke-width:1.00000003pt;stroke-opacity:1"
         transform="matrix(-0.2,0,0,-0.2,-1.2,0)" />
    </marker>
    <marker
       inkscape:stockid="Arrow2Mend"
       orient="auto"
       refY="0"
       refX="0"
       id="marker1902-8-29-1-8"
       style="overflow:visible"
       inkscape:isstock="true">
      <path
         inkscape:connector-curvature="0"
         id="path1575-6-8-6-0"
         style="fill:#000000;fill-opacity:1;fill-rule:evenodd;stroke:#000000;stroke-width:0.625;stroke-linejoin:round;stroke-opacity:1"
         d="M 8.7185878,4.0337352 -2.2072895,0.01601326 8.7185884,-4.0017078 c -1.7454984,2.3720609 -1.7354408,5.6174519 -6e-7,8.035443 z"
         transform="scale(-0.6)" />
    </marker>
    <marker
       inkscape:stockid="Arrow2Mend"
       orient="auto"
       refY="0"
       refX="0"
       id="marker1902-0-0"
       style="overflow:visible"
       inkscape:isstock="true">
      <path
         inkscape:connector-curvature="0"
         id="path1575-7-4"
         style="fill:#000000;fill-opacity:1;fill-rule:evenodd;stroke:#000000;stroke-width:0.625;stroke-linejoin:round;stroke-opacity:1"
         d="M 8.7185878,4.0337352 -2.2072895,0.01601326 8.7185884,-4.0017078 c -1.7454984,2.3720609 -1.7354408,5.6174519 -6e-7,8.035443 z"
         transform="scale(-0.6)" />
    </marker>
    <marker
       inkscape:stockid="Arrow2Mend"
       orient="auto"
       refY="0"
       refX="0"
       id="marker1902-0-3"
       style="overflow:visible"
       inkscape:isstock="true">
      <path
         inkscape:connector-curvature="0"
         id="path1575-7-3"
         style="fill:#000000;fill-opacity:1;fill-rule:evenodd;stroke:#000000;stroke-width:0.625;stroke-linejoin:round;stroke-opacity:1"
         d="M 8.7185878,4.0337352 -2.2072895,0.01601326 8.7185884,-4.0017078 c -1.7454984,2.3720609 -1.7354408,5.6174519 -6e-7,8.035443 z"
         transform="scale(-0.6)" />
    </marker>
    <marker
       inkscape:stockid="Arrow2Mend"
       orient="auto"
       refY="0"
       refX="0"
       id="marker1902-0"
       style="overflow:visible"
       inkscape:isstock="true">
      <path
         inkscape:connector-curvature="0"
         id="path1575-7"
         style="fill:#000000;fill-opacity:1;fill-rule:evenodd;stroke:#000000;stroke-width:0.625;stroke-linejoin:round;stroke-opacity:1"
         d="M 8.7185878,4.0337352 -2.2072895,0.01601326 8.7185884,-4.0017078 c -1.7454984,2.3720609 -1.7354408,5.6174519 -6e-7,8.035443 z"
         transform="scale(-0.6)" />
    </marker>
    <marker
       inkscape:stockid="Arrow2Mend"
       orient="auto"
       refY="0"
       refX="0"
       id="marker1902-8-29-1"
       style="overflow:visible"
       inkscape:isstock="true">
      <path
         inkscape:connector-curvature="0"
         id="path1575-6-8-6"
         style="fill:#000000;fill-opacity:1;fill-rule:evenodd;stroke:#000000;stroke-width:0.625;stroke-linejoin:round;stroke-opacity:1"
         d="M 8.7185878,4.0337352 -2.2072895,0.01601326 8.7185884,-4.0017078 c -1.7454984,2.3720609 -1.7354408,5.6174519 -6e-7,8.035443 z"
         transform="scale(-0.6)" />
    </marker>
    <marker
       inkscape:stockid="Arrow2Mend"
       orient="auto"
       refY="0"
       refX="0"
       id="marker1902-8-29-0"
       style="overflow:visible"
       inkscape:isstock="true">
      <path
         inkscape:connector-curvature="0"
         id="path1575-6-8-9"
         style="fill:#000000;fill-opacity:1;fill-rule:evenodd;stroke:#000000;stroke-width:0.625;stroke-linejoin:round;stroke-opacity:1"
         d="M 8.7185878,4.0337352 -2.2072895,0.01601326 8.7185884,-4.0017078 c -1.7454984,2.3720609 -1.7354408,5.6174519 -6e-7,8.035443 z"
         transform="scale(-0.6)" />
    </marker>
    <marker
       inkscape:stockid="Arrow2Mend"
       orient="auto"
       refY="0"
       refX="0"
       id="marker1938-2"
       style="overflow:visible"
       inkscape:isstock="true">
      <path
         inkscape:connector-curvature="0"
         id="path1936-6"
         style="fill:#000000;fill-opacity:1;fill-rule:evenodd;stroke:#000000;stroke-width:0.625;stroke-linejoin:round;stroke-opacity:1"
         d="M 8.7185878,4.0337352 -2.2072895,0.01601326 8.7185884,-4.0017078 c -1.7454984,2.3720609 -1.7354408,5.6174519 -6e-7,8.035443 z"
         transform="scale(-0.6)" />
    </marker>
    <marker
       inkscape:stockid="Arrow2Mend"
       orient="auto"
       refY="0"
       refX="0"
       id="marker1902-8-29"
       style="overflow:visible"
       inkscape:isstock="true">
      <path
         inkscape:connector-curvature="0"
         id="path1575-6-8"
         style="fill:#000000;fill-opacity:1;fill-rule:evenodd;stroke:#000000;stroke-width:0.625;stroke-linejoin:round;stroke-opacity:1"
         d="M 8.7185878,4.0337352 -2.2072895,0.01601326 8.7185884,-4.0017078 c -1.7454984,2.3720609 -1.7354408,5.6174519 -6e-7,8.035443 z"
         transform="scale(-0.6)" />
    </marker>
    <marker
       inkscape:stockid="Arrow2Mend"
       orient="auto"
       refY="0"
       refX="0"
       id="marker1902-8-4"
       style="overflow:visible"
       inkscape:isstock="true">
      <path
         inkscape:connector-curvature="0"
         id="path1575-6-6"
         style="fill:#000000;fill-opacity:1;fill-rule:evenodd;stroke:#000000;stroke-width:0.625;stroke-linejoin:round;stroke-opacity:1"
         d="M 8.7185878,4.0337352 -2.2072895,0.01601326 8.7185884,-4.0017078 c -1.7454984,2.3720609 -1.7354408,5.6174519 -6e-7,8.035443 z"
         transform="scale(-0.6)" />
    </marker>
    <marker
       inkscape:stockid="Arrow2Mend"
       orient="auto"
       refY="0"
       refX="0"
       id="marker1902-8-8"
       style="overflow:visible"
       inkscape:isstock="true">
      <path
         inkscape:connector-curvature="0"
         id="path1575-6-4"
         style="fill:#000000;fill-opacity:1;fill-rule:evenodd;stroke:#000000;stroke-width:0.625;stroke-linejoin:round;stroke-opacity:1"
         d="M 8.7185878,4.0337352 -2.2072895,0.01601326 8.7185884,-4.0017078 c -1.7454984,2.3720609 -1.7354408,5.6174519 -6e-7,8.035443 z"
         transform="scale(-0.6)" />
    </marker>
    <marker
       inkscape:stockid="Arrow2Mend"
       orient="auto"
       refY="0"
       refX="0"
       id="marker1902-8-6"
       style="overflow:visible"
       inkscape:isstock="true">
      <path
         inkscape:connector-curvature="0"
         id="path1575-6-0"
         style="fill:#000000;fill-opacity:1;fill-rule:evenodd;stroke:#000000;stroke-width:0.625;stroke-linejoin:round;stroke-opacity:1"
         d="M 8.7185878,4.0337352 -2.2072895,0.01601326 8.7185884,-4.0017078 c -1.7454984,2.3720609 -1.7354408,5.6174519 -6e-7,8.035443 z"
         transform="scale(-0.6)" />
    </marker>
    <marker
       inkscape:stockid="Arrow2Mend"
       orient="auto"
       refY="0"
       refX="0"
       id="marker1902-8-3"
       style="overflow:visible"
       inkscape:isstock="true">
      <path
         inkscape:connector-curvature="0"
         id="path1575-6-9"
         style="fill:#000000;fill-opacity:1;fill-rule:evenodd;stroke:#000000;stroke-width:0.625;stroke-linejoin:round;stroke-opacity:1"
         d="M 8.7185878,4.0337352 -2.2072895,0.01601326 8.7185884,-4.0017078 c -1.7454984,2.3720609 -1.7354408,5.6174519 -6e-7,8.035443 z"
         transform="scale(-0.6)" />
    </marker>
    <marker
       inkscape:stockid="Arrow2Mend"
       orient="auto"
       refY="0"
       refX="0"
       id="marker1969"
       style="overflow:visible"
       inkscape:isstock="true">
      <path
         inkscape:connector-curvature="0"
         id="path1967"
         style="fill:#000000;fill-opacity:1;fill-rule:evenodd;stroke:#000000;stroke-width:0.625;stroke-linejoin:round;stroke-opacity:1"
         d="M 8.7185878,4.0337352 -2.2072895,0.01601326 8.7185884,-4.0017078 c -1.7454984,2.3720609 -1.7354408,5.6174519 -6e-7,8.035443 z"
         transform="scale(-0.6)" />
    </marker>
    <marker
       inkscape:stockid="Arrow2Mend"
       orient="auto"
       refY="0"
       refX="0"
       id="marker1938"
       style="overflow:visible"
       inkscape:isstock="true">
      <path
         inkscape:connector-curvature="0"
         id="path1936"
         style="fill:#000000;fill-opacity:1;fill-rule:evenodd;stroke:#000000;stroke-width:0.625;stroke-linejoin:round;stroke-opacity:1"
         d="M 8.7185878,4.0337352 -2.2072895,0.01601326 8.7185884,-4.0017078 c -1.7454984,2.3720609 -1.7354408,5.6174519 -6e-7,8.035443 z"
         transform="scale(-0.6)" />
    </marker>
    <marker
       inkscape:stockid="Arrow2Mend"
       orient="auto"
       refY="0"
       refX="0"
       id="marker1902"
       style="overflow:visible"
       inkscape:isstock="true">
      <path
         inkscape:connector-curvature="0"
         id="path1575"
         style="fill:#000000;fill-opacity:1;fill-rule:evenodd;stroke:#000000;stroke-width:0.625;stroke-linejoin:round;stroke-opacity:1"
         d="M 8.7185878,4.0337352 -2.2072895,0.01601326 8.7185884,-4.0017078 c -1.7454984,2.3720609 -1.7354408,5.6174519 -6e-7,8.035443 z"
         transform="scale(-0.6)" />
    </marker>
    <marker
       inkscape:stockid="Arrow2Mstart"
       orient="auto"
       refY="0"
       refX="0"
       id="Arrow2Mstart-9"
       style="overflow:visible"
       inkscape:isstock="true">
      <path
         inkscape:connector-curvature="0"
         id="path1572-9"
         style="fill:#000000;fill-opacity:1;fill-rule:evenodd;stroke:#000000;stroke-width:0.625;stroke-linejoin:round;stroke-opacity:1"
         d="M 8.7185878,4.0337352 -2.2072895,0.01601326 8.7185884,-4.0017078 c -1.7454984,2.3720609 -1.7354408,5.6174519 -6e-7,8.035443 z"
         transform="scale(0.6)" />
    </marker>
    <marker
       inkscape:stockid="Arrow1Send"
       orient="auto"
       refY="0"
       refX="0"
       id="Arrow1Send"
       style="overflow:visible"
       inkscape:isstock="true">
      <path
         inkscape:connector-curvature="0"
         id="path2218"
         d="M 0,0 5,-5 -12.5,0 5,5 Z"
         style="fill:#214478;fill-opacity:1;fill-rule:evenodd;stroke:#214478;stroke-width:1.00000003pt;stroke-opacity:1"
         transform="matrix(-0.2,0,0,-0.2,-1.2,0)" />
    </marker>
    <marker
       inkscape:stockid="Arrow1Send"
       orient="auto"
       refY="0"
       refX="0"
       id="marker2521"
       style="overflow:visible"
       inkscape:isstock="true">
      <path
         inkscape:connector-curvature="0"
         id="path2519"
         d="M 0,0 5,-5 -12.5,0 5,5 Z"
         style="fill:#782167;fill-opacity:1;fill-rule:evenodd;stroke:#782167;stroke-width:1.00000003pt;stroke-opacity:1"
         transform="matrix(-0.2,0,0,-0.2,-1.2,0)" />
    </marker>
    <marker
       inkscape:stockid="Arrow1Send"
       orient="auto"
       refY="0"
       refX="0"
       id="marker2513"
       style="overflow:visible"
       inkscape:isstock="true">
      <path
         inkscape:connector-curvature="0"
         id="path2511"
         d="M 0,0 5,-5 -12.5,0 5,5 Z"
         style="fill:#782167;fill-opacity:1;fill-rule:evenodd;stroke:#782167;stroke-width:1.00000003pt;stroke-opacity:1"
         transform="matrix(-0.2,0,0,-0.2,-1.2,0)" />
    </marker>
    <marker
       inkscape:stockid="Arrow1Send"
       orient="auto"
       refY="0"
       refX="0"
       id="marker2481"
       style="overflow:visible"
       inkscape:isstock="true">
      <path
         inkscape:connector-curvature="0"
         id="path2479"
         d="M 0,0 5,-5 -12.5,0 5,5 Z"
         style="fill:#008091;fill-opacity:1;fill-rule:evenodd;stroke:#008091;stroke-width:1.00000003pt;stroke-opacity:1"
         transform="matrix(-0.2,0,0,-0.2,-1.2,0)" />
    </marker>
    <marker
       inkscape:stockid="Arrow1Send"
       orient="auto"
       refY="0"
       refX="0"
       id="marker2489"
       style="overflow:visible"
       inkscape:isstock="true">
      <path
         inkscape:connector-curvature="0"
         id="path2487"
         d="M 0,0 5,-5 -12.5,0 5,5 Z"
         style="fill:#008091;fill-opacity:1;fill-rule:evenodd;stroke:#008091;stroke-width:1.00000003pt;stroke-opacity:1"
         transform="matrix(-0.2,0,0,-0.2,-1.2,0)" />
    </marker>
    <marker
       inkscape:stockid="Arrow1Send"
       orient="auto"
       refY="0"
       refX="0"
       id="marker2529"
       style="overflow:visible"
       inkscape:isstock="true">
      <path
         inkscape:connector-curvature="0"
         id="path2527"
         d="M 0,0 5,-5 -12.5,0 5,5 Z"
         style="fill:#214478;fill-opacity:1;fill-rule:evenodd;stroke:#214478;stroke-width:1.00000003pt;stroke-opacity:1"
         transform="matrix(-0.2,0,0,-0.2,-1.2,0)" />
    </marker>
    <marker
       inkscape:stockid="Arrow1Send"
       orient="auto"
       refY="0"
       refX="0"
       id="marker2497"
       style="overflow:visible"
       inkscape:isstock="true">
      <path
         inkscape:connector-curvature="0"
         id="path2495"
         d="M 0,0 5,-5 -12.5,0 5,5 Z"
         style="fill:#214478;fill-opacity:1;fill-rule:evenodd;stroke:#214478;stroke-width:1.00000003pt;stroke-opacity:1"
         transform="matrix(-0.2,0,0,-0.2,-1.2,0)" />
    </marker>
    <marker
       inkscape:stockid="Arrow1Send"
       orient="auto"
       refY="0"
       refX="0"
       id="marker2505"
       style="overflow:visible"
       inkscape:isstock="true">
      <path
         inkscape:connector-curvature="0"
         id="path2503"
         d="M 0,0 5,-5 -12.5,0 5,5 Z"
         style="fill:#214478;fill-opacity:1;fill-rule:evenodd;stroke:#214478;stroke-width:1.00000003pt;stroke-opacity:1"
         transform="matrix(-0.2,0,0,-0.2,-1.2,0)" />
    </marker>
  </defs>
  <sodipodi:namedview
     id="base"
     pagecolor="#ffffff"
     bordercolor="#666666"
     borderopacity="1.0"
     inkscape:pageopacity="0.0"
     inkscape:pageshadow="2"
     inkscape:zoom="0.49497475"
     inkscape:cx="423.8736"
     inkscape:cy="456.53774"
     inkscape:document-units="mm"
     inkscape:current-layer="layer1"
     showgrid="false"
     inkscape:window-width="1920"
     inkscape:window-height="1017"
     inkscape:window-x="-8"
     inkscape:window-y="-8"
     inkscape:window-maximized="1"
     showguides="true"
     inkscape:guide-bbox="true"
     inkscape:snap-global="false">
    <sodipodi:guide
       position="121.20673,211.8111"
       orientation="0,1"
       id="guide1733"
       inkscape:locked="false" />
  </sodipodi:namedview>
  <metadata
     id="metadata3566">
    <rdf:RDF>
      <cc:Work
         rdf:about="">
        <dc:format>image/svg+xml</dc:format>
        <dc:type
           rdf:resource="http://purl.org/dc/dcmitype/StillImage" />
        <dc:title></dc:title>
      </cc:Work>
    </rdf:RDF>
  </metadata>
  <g
     inkscape:label="Capa 1"
     inkscape:groupmode="layer"
     id="layer1">
    <path
       style="fill:#ffffff;fill-rule:evenodd;stroke:none;stroke-width:0.26458338;stroke-linecap:butt;stroke-linejoin:miter;stroke-miterlimit:4;stroke-dasharray:none;stroke-dashoffset:0;stroke-opacity:1"
       d="M 1.2243331,0.55863655 0.95036798,296.23373 H 208.98297 V 0.87878023 Z"
       id="path862-2"
       inkscape:connector-curvature="0"
       sodipodi:nodetypes="ccccc" />
    <path
       inkscape:connector-curvature="0"
       id="path1037-2-1-7-0-6-8"
       d="m 139.07706,177.53986 c 40.94047,0.53989 32.56449,-0.25773 39.2076,0.0678 4.03684,0.9852 9.90187,4.77663 10.33402,8.98318 l -0.21891,16.26561 c 0.10526,10.03077 0.19402,24.63317 -10e-4,25.61615 -0.55701,2.78752 -4.81607,5.25769 -7.68386,5.99041 -52.37309,0.65617 -102.158751,-0.25358 -147.689973,-0.0841 -3.595954,0.058 -8.719205,-5.48754 -8.109467,-6.32636 v -41.62504 c 0,0 2.166812,-8.61695 8.5234,-8.82919 21.234353,-0.21301 42.31267,-0.0558 63.563588,-0.0845 78.297422,0.15627 -41.965167,0.20115 42.069602,0.0165 z"
       style="fill:#676c53;stroke-width:0.99999994"
       sodipodi:nodetypes="ccccccccccccc" />
    <path
       style="fill:#5aa02c;fill-rule:evenodd;stroke:#447821;stroke-width:0.26458335px;stroke-linecap:butt;stroke-linejoin:miter;stroke-opacity:1"
       d="m 84.219984,74.861035 c 2.37352,-9.726146 27.350136,-15.367779 37.800156,-3.736582 8.31346,-4.190062 27.78856,8.524171 23.00136,21.158278 1.98563,12.879699 -12.14321,20.850309 -19.07399,17.470259 -17.75995,9.51233 -27.013711,3.43815 -32.053039,2.39454 -17.405942,4.7802 -23.903292,-4.89807 -25.880967,-13.129406 -3.647407,-15.181112 6.210313,-23.069347 16.20648,-24.157089 z"
       id="path1694"
       inkscape:connector-curvature="0"
       sodipodi:nodetypes="cccccsc" />
    <path
       style="fill:#ac9d93;fill-opacity:1;fill-rule:evenodd;stroke:none;stroke-width:0.26458344px;stroke-linecap:butt;stroke-linejoin:round;stroke-opacity:1"
       d="m 85.173728,170.57661 -0.190157,-38.77858 c 0.343876,-0.54086 -0.254572,-4.73744 8.116134,-4.97734 l 24.087935,-0.0345 c 3.92865,0.29887 5.34254,1.21594 6.81928,3.38922 l 0.15885,41.31756 c -0.60679,2.03491 -1.78457,2.74454 -5.45096,3.75733 l -26.694851,0.17688 c -5.140833,-0.71099 -7.242715,-2.70453 -6.845076,-4.85073 z"
       id="path1285-4-8"
       inkscape:connector-curvature="0"
       sodipodi:nodetypes="cccccccccc" />
    <text
       xml:space="preserve"
       style="font-style:normal;font-variant:normal;font-weight:normal;font-stretch:normal;font-size:6.33719921px;line-height:1.25;font-family:'Bell MT';-inkscape-font-specification:'Bell MT';letter-spacing:0px;word-spacing:0px;fill:#000000;fill-opacity:1;stroke:none;stroke-width:0.26458332px;stroke-linecap:butt;stroke-linejoin:miter;stroke-opacity:1"
       x="96.833778"
       y="91.497742"
       id="text919-12"
       transform="scale(0.9999061,1.0000939)"><tspan
         sodipodi:role="line"
         id="tspan917-1"
         x="96.833778"
         y="91.497742"
         style="font-style:normal;font-variant:normal;font-weight:normal;font-stretch:normal;font-size:6.33719921px;font-family:'Bell MT';-inkscape-font-specification:'Bell MT';stroke-width:0.26458332px">Foliage</tspan></text>
    <path
       style="fill:#65453a;fill-opacity:1;fill-rule:evenodd;stroke:none;stroke-width:0.26458335px;stroke-linecap:butt;stroke-linejoin:miter;stroke-opacity:1"
       d="m 44.180269,213.98011 c -0.418425,-0.58343 -0.139604,-20.11256 -0.139604,-20.11256 -0.02566,-0.0138 0.78155,-1.4687 2.43665,-1.87266 0.654905,0.0374 27.105454,-0.17171 28.637887,-0.0674 1.485472,0.41787 1.834352,0.53123 2.514791,2.14076 0,0 -0.02822,18.76378 -0.02566,19.92623 0.120613,0.31427 -1.088342,1.46309 -2.575481,1.81582 -2.632585,0.62443 -28.533058,0.0941 -28.533058,0.0941 -1.126581,-0.37974 -1.740812,-1.14826 -2.315523,-1.92416 z"
       id="path1423"
       inkscape:connector-curvature="0"
       sodipodi:nodetypes="ccccccsccc" />
    <text
       xml:space="preserve"
       style="font-style:normal;font-variant:normal;font-weight:normal;font-stretch:normal;font-size:5.43188477px;line-height:1.25;font-family:'Bell MT';-inkscape-font-specification:'Bell MT';letter-spacing:0px;word-spacing:0px;fill:#000000;fill-opacity:1;stroke:none;stroke-width:0.26458332px;stroke-linecap:butt;stroke-linejoin:miter;stroke-opacity:1"
       x="46.949879"
       y="205.17653"
       id="text931-4-7"
       transform="scale(0.9999061,1.0000939)"><tspan
         sodipodi:role="line"
         x="46.949879"
         y="205.17653"
         style="font-style:normal;font-variant:normal;font-weight:normal;font-stretch:normal;font-size:5.43188477px;font-family:'Bell MT';-inkscape-font-specification:'Bell MT';stroke-width:0.26458332px"
         id="tspan933-5-5">Coarse roots</tspan></text>
    <text
       xml:space="preserve"
       style="font-style:normal;font-variant:normal;font-weight:normal;font-stretch:normal;font-size:6.33719921px;line-height:1.25;font-family:'Bell MT';-inkscape-font-specification:'Bell MT';letter-spacing:0px;word-spacing:0px;fill:#000000;fill-opacity:1;stroke:none;stroke-width:0.26458332px;stroke-linecap:butt;stroke-linejoin:miter;stroke-opacity:1"
       x="97.091904"
       y="149.24026"
       id="text923-18-2-9"
       transform="scale(0.9999061,1.0000939)"><tspan
         sodipodi:role="line"
         id="tspan921-4-2-2"
         x="97.091904"
         y="149.24026"
         style="font-style:normal;font-variant:normal;font-weight:normal;font-stretch:normal;font-size:6.33719921px;font-family:'Bell MT';-inkscape-font-specification:'Bell MT';stroke-width:0.26458332px">Wood</tspan></text>
    <text
       xml:space="preserve"
       style="font-style:normal;font-variant:normal;font-weight:normal;font-stretch:normal;font-size:5.03578138px;line-height:1.25;font-family:'Bell MT';-inkscape-font-specification:'Bell MT';letter-spacing:0px;word-spacing:0px;fill:#000000;fill-opacity:1;stroke:none;stroke-width:0.26458332px;stroke-linecap:butt;stroke-linejoin:miter;stroke-opacity:1"
       x="91.681351"
       y="187.61499"
       id="text1268-9"
       transform="scale(0.9999209,1.0000791)"><tspan
         sodipodi:role="line"
         id="tspan1266-1"
         x="91.681351"
         y="187.61499"
         style="font-style:normal;font-variant:normal;font-weight:normal;font-stretch:normal;font-size:5.03578138px;font-family:'Bell MT';-inkscape-font-specification:'Bell MT';stroke-width:0.26458332px">Soil Carbon</tspan></text>
    <path
       style="fill:#a0892c;stroke-width:0.99999994"
       d="m 141.8799,176.8873 c -9.97306,-1.62787 -8.16437,-7.75451 -4.12176,-13.92466 2.60909,-3.86332 5.72271,-6.16271 10.22468,-7.55067 3.42478,-1.05587 5.91854,-1.40571 10.81839,-1.51764 l 4.59923,-0.10504 -0.15539,2.41789 c -0.60177,9.36407 -4.53943,16.82457 -10.19967,19.32492 -2.30307,1.01737 -3.75402,1.29218 -7.25567,1.37423 -1.75942,0.0412 -3.51884,0.0327 -3.90981,-0.0191 z"
       id="path1491"
       inkscape:connector-curvature="0"
       sodipodi:nodetypes="ccsccccccc" />
    <path
       inkscape:connector-curvature="0"
       id="path1037-2-1-7-0-63-1"
       d="m 61.739546,160.38619 c 8.072252,0.0213 7.735689,0.007 8.294746,0.40223 0.26458,0.18806 0.614873,0.58383 0.778345,0.87945 l 0.297296,0.53761 0.03593,4.68726 c 0.01924,2.578 0,4.89396 -0.03208,5.14662 -0.106498,0.71642 -1.528455,2.68644 -2.075325,2.87475 -9.462773,0.40313 -18.201478,0.17736 -27.524903,0.0801 l -0.497594,-0.40841 c -0.273819,-0.22464 -0.620007,-0.69222 -0.769618,-1.03913 -0.262401,-0.60914 -0.273052,-0.78394 -0.309746,-5.10536 -0.02566,-3.07491 0,-4.67696 0.101367,-5.12145 0.106498,-0.49641 0.32463,-0.8626 0.936164,-1.57505 1.195617,-1.39293 1.165845,-1.38643 6.305265,-1.36972 2.370954,0.0103 5.267477,0.0103 6.436531,0.006 14.932339,0.0403 -8.003351,0.0516 8.023235,0.007 z"
       style="fill:#8b6446;fill-opacity:0.88888891;stroke-width:0.99999988"
       sodipodi:nodetypes="ccccccccccccsccc" />
    <path
       style="fill:#814e2f;fill-opacity:1;fill-rule:evenodd;stroke:none;stroke-width:0.26458335px;stroke-linecap:butt;stroke-linejoin:miter;stroke-opacity:1"
       d="m 137.69231,223.49366 c -0.41855,-0.57295 -0.13973,-19.7516 -0.13973,-19.7516 -0.0257,-0.0136 0.78168,-1.44234 2.43665,-1.83905 0.6549,0.0369 27.10558,-0.16862 28.63788,-0.0661 1.4856,0.41038 1.83436,0.5217 2.51493,2.10236 0,0 -0.0282,18.42701 -0.0257,19.56861 0.12061,0.30863 -1.08848,1.43684 -2.57548,1.78324 -2.63259,0.6132 -28.53306,0.0923 -28.53306,0.0923 -1.12657,-0.37292 -1.7408,-1.12766 -2.31566,-1.88964 z"
       id="path1423-0"
       inkscape:connector-curvature="0"
       sodipodi:nodetypes="ccccccsccc" />
    <path
       style="fill:none;fill-rule:evenodd;stroke:#000000;stroke-width:0.26500002;stroke-linecap:butt;stroke-linejoin:miter;stroke-miterlimit:4;stroke-dasharray:none;stroke-opacity:1;marker-start:url(#Arrow2Mstart-9)"
       d="m 131.47237,171.68465 c -10.4473,3.90892 -13.79561,31.00072 3.53411,35.8577"
       id="path1546-7"
       inkscape:connector-curvature="0"
       sodipodi:nodetypes="cc" />
    <path
       style="fill:none;fill-rule:evenodd;stroke:#000000;stroke-width:0.26458335px;stroke-linecap:butt;stroke-linejoin:miter;stroke-opacity:1;marker-end:url(#marker1902)"
       d="m 142.51994,104.57551 v 51.87157"
       id="path1899"
       inkscape:connector-curvature="0" />
    <path
       style="fill:none;fill-rule:evenodd;stroke:#000000;stroke-width:0.26458335px;stroke-linecap:butt;stroke-linejoin:round;stroke-opacity:1;marker-end:url(#marker1938)"
       d="m 147.43173,94.713748 25.77421,0.07416 c 4.02412,-0.145685 5.80122,2.989907 5.80056,3.785658 l -0.0883,108.179924 c -0.33272,2.88247 -0.0526,7.47693 -5.92893,8.30213"
       id="path1934"
       inkscape:connector-curvature="0"
       sodipodi:nodetypes="ccscc" />
    <path
       style="fill:none;fill-rule:evenodd;stroke:#000000;stroke-width:0.26458335px;stroke-linecap:butt;stroke-linejoin:miter;stroke-opacity:1;marker-end:url(#marker1969)"
       d="M 83.107647,169.05954 H 73.908812"
       id="path1961"
       inkscape:connector-curvature="0" />
    <text
       xml:space="preserve"
       style="font-style:normal;font-variant:normal;font-weight:normal;font-stretch:normal;font-size:5.35405493px;line-height:1.25;font-family:'Bell MT';-inkscape-font-specification:'Bell MT';letter-spacing:0px;word-spacing:0px;fill:#000000;fill-opacity:1;stroke:none;stroke-width:0.26458335px;stroke-linecap:butt;stroke-linejoin:miter;stroke-opacity:1"
       x="108.0378"
       y="53.521957"
       id="text1476"><tspan
         sodipodi:role="line"
         id="tspan1474"
         x="108.0378"
         y="53.521957"
         style="font-style:normal;font-variant:normal;font-weight:normal;font-stretch:normal;font-size:5.35405493px;font-family:'Bell MT';-inkscape-font-specification:'Bell MT';stroke-width:0.26458335px">GPP</tspan></text>
    <text
       xml:space="preserve"
       style="font-style:normal;font-variant:normal;font-weight:normal;font-stretch:normal;font-size:4.48396301px;line-height:1.25;font-family:'Bell MT';-inkscape-font-specification:'Bell MT';letter-spacing:0px;word-spacing:0px;fill:#000000;fill-opacity:1;stroke:none;stroke-width:0.26458332px;stroke-linecap:butt;stroke-linejoin:miter;stroke-opacity:1"
       x="138.96877"
       y="167.71922"
       id="text943-8-3-8"
       transform="scale(0.9999061,1.0000939)"><tspan
         sodipodi:role="line"
         x="138.96877"
         y="167.71922"
         style="font-style:normal;font-variant:normal;font-weight:normal;font-stretch:normal;font-size:4.48396301px;font-family:'Bell MT';-inkscape-font-specification:'Bell MT';stroke-width:0.26458332px"
         id="tspan7341-4-9-1">Fine litter</tspan></text>
    <text
       xml:space="preserve"
       style="font-style:normal;font-variant:normal;font-weight:normal;font-stretch:normal;font-size:4.07391405px;line-height:1.25;font-family:'Bell MT';-inkscape-font-specification:'Bell MT';letter-spacing:0px;word-spacing:0px;fill:#000000;fill-opacity:1;stroke:none;stroke-width:0.26458332px;stroke-linecap:butt;stroke-linejoin:miter;stroke-opacity:1"
       x="43.916233"
       y="167.3544"
       id="text937-0-3-4"
       transform="scale(1.003972,0.99604371)"><tspan
         sodipodi:role="line"
         x="43.916233"
         y="167.3544"
         style="font-style:normal;font-variant:normal;font-weight:normal;font-stretch:normal;font-size:4.07391405px;font-family:'Bell MT';-inkscape-font-specification:'Bell MT';stroke-width:0.26458332px"
         id="tspan939-5-0-1">Coarse woody</tspan><tspan
         sodipodi:role="line"
         x="43.916233"
         y="172.44679"
         style="font-style:normal;font-variant:normal;font-weight:normal;font-stretch:normal;font-size:4.07391405px;font-family:'Bell MT';-inkscape-font-specification:'Bell MT';stroke-width:0.26458332px"
         id="tspan1806-3">      debrys </tspan></text>
    <path
       style="fill:none;fill-rule:evenodd;stroke:#000000;stroke-width:0.26458335px;stroke-linecap:butt;stroke-linejoin:miter;stroke-opacity:1;marker-end:url(#marker1902-8-3)"
       d="M 155.60624,201.47135 V 189.24712"
       id="path1899-8-8"
       inkscape:connector-curvature="0" />
    <path
       style="fill:none;fill-rule:evenodd;stroke:#000000;stroke-width:0.26458335px;stroke-linecap:butt;stroke-linejoin:miter;stroke-opacity:1;marker-end:url(#marker1902-8-6)"
       d="M 157.99311,153.26329 V 104.32322"
       id="path1899-8-2"
       inkscape:connector-curvature="0" />
    <path
       style="fill:none;fill-rule:evenodd;stroke:#000000;stroke-width:0.26458344px;stroke-linecap:butt;stroke-linejoin:miter;stroke-opacity:1;marker-end:url(#marker1902-8-8)"
       d="M 52.921925,160.22292 V 101.73314"
       id="path1899-8-5"
       inkscape:connector-curvature="0" />
    <path
       style="fill:none;fill-rule:evenodd;stroke:#000000;stroke-width:0.26458335px;stroke-linecap:butt;stroke-linejoin:miter;stroke-opacity:1;marker-end:url(#marker1902-8-4)"
       d="m 100.36268,125.71406 v -9.63361"
       id="path1899-8-08"
       inkscape:connector-curvature="0" />
    <path
       style="fill:none;fill-rule:evenodd;stroke:#000000;stroke-width:0.26458335px;stroke-linecap:butt;stroke-linejoin:miter;stroke-opacity:1;marker-end:url(#marker1902-8-29)"
       d="M 104.85194,183.30847 V 171.08426"
       id="path1899-8-07"
       inkscape:connector-curvature="0" />
    <path
       style="fill:none;fill-rule:evenodd;stroke:#000000;stroke-width:0.26458335px;stroke-linecap:butt;stroke-linejoin:round;stroke-opacity:1;marker-end:url(#marker1938-2)"
       d="m 65.773427,94.812267 -25.773959,0.06686 c -4.024129,-0.131355 -5.956007,2.692416 -5.954221,3.411953 l 0.242017,97.53743 c 0.332587,2.59886 0.05261,6.74128 5.928925,7.48529"
       id="path1934-8"
       inkscape:connector-curvature="0"
       sodipodi:nodetypes="ccscc" />
    <path
       style="fill:none;fill-rule:evenodd;stroke:#000000;stroke-width:0.26458335px;stroke-linecap:butt;stroke-linejoin:miter;stroke-opacity:1;marker-end:url(#marker1902-8-29-0)"
       d="M 64.622082,191.27965 V 181.4388"
       id="path1899-8-07-1"
       inkscape:connector-curvature="0" />
    <path
       style="fill:none;fill-rule:evenodd;stroke:#000000;stroke-width:0.26458335px;stroke-linecap:butt;stroke-linejoin:miter;stroke-opacity:1;marker-end:url(#marker1902-8-29-1)"
       d="M 98.418099,63.174574 V 50.950357"
       id="path1899-8-07-3"
       inkscape:connector-curvature="0" />
    <text
       xml:space="preserve"
       style="font-style:normal;font-variant:normal;font-weight:normal;font-stretch:normal;font-size:5.01519156px;line-height:1.25;font-family:'Bell MT';-inkscape-font-specification:'Bell MT';letter-spacing:0px;word-spacing:0px;fill:#000000;fill-opacity:1;stroke:none;stroke-width:0.26458332px;stroke-linecap:butt;stroke-linejoin:miter;stroke-opacity:1"
       x="142.66443"
       y="214.62245"
       id="text927-0"
       transform="scale(0.9999061,1.0000939)"><tspan
         sodipodi:role="line"
         x="142.66443"
         y="214.62245"
         style="font-style:normal;font-variant:normal;font-weight:normal;font-stretch:normal;font-size:5.01519156px;font-family:'Bell MT';-inkscape-font-specification:'Bell MT';stroke-width:0.26458332px"
         id="tspan3927-5"> Fine roots </tspan></text>
    <text
       xml:space="preserve"
       style="font-style:normal;font-variant:normal;font-weight:normal;font-stretch:normal;font-size:6.33720016px;line-height:1.25;font-family:'Bell MT';-inkscape-font-specification:'Bell MT';letter-spacing:0px;word-spacing:0px;fill:#000000;fill-opacity:1;stroke:none;stroke-width:0.26458335px;stroke-linecap:butt;stroke-linejoin:miter;stroke-opacity:1"
       x="91.749496"
       y="41.445473"
       id="text1401"><tspan
         sodipodi:role="line"
         id="tspan1399"
         x="91.749496"
         y="41.445473"
         style="font-style:normal;font-variant:normal;font-weight:normal;font-stretch:normal;font-family:'Bell MT';-inkscape-font-specification:'Bell MT';fill:#000000;stroke-width:0.26458335px">Atmosphere</tspan></text>
    <path
       style="fill:none;fill-rule:evenodd;stroke:#000000;stroke-width:0.26458335px;stroke-linecap:butt;stroke-linejoin:miter;stroke-opacity:1;marker-end:url(#marker1902-0)"
       d="m 54.34273,175.45701 v 9.4408"
       id="path1899-8"
       inkscape:connector-curvature="0" />
    <path
       style="fill:none;fill-rule:evenodd;stroke:#000000;stroke-width:0.26458335px;stroke-linecap:butt;stroke-linejoin:miter;stroke-opacity:1;marker-end:url(#marker1902-0-3)"
       d="m 144.13577,176.48981 v 8.44662"
       id="path1899-8-9"
       inkscape:connector-curvature="0" />
    <path
       style="fill:none;fill-rule:evenodd;stroke:#000000;stroke-width:0.26458335px;stroke-linecap:butt;stroke-linejoin:miter;stroke-opacity:1;marker-end:url(#marker1902-0-0)"
       d="m 107.89794,115.97388 v 9.5513"
       id="path1899-8-88"
       inkscape:connector-curvature="0" />
    <path
       style="fill:none;fill-rule:evenodd;stroke:#000000;stroke-width:0.26500005;stroke-linecap:butt;stroke-linejoin:miter;stroke-miterlimit:4;stroke-dasharray:none;stroke-dashoffset:0;stroke-opacity:1;marker-end:url(#marker1902-8-29-1-8)"
       d="M 105.94863,44.406555 V 62.790519"
       id="path1899-8-07-3-8"
       inkscape:connector-curvature="0" />
  </g>
</svg>
