<?xml version="1.0" encoding="UTF-8" standalone="no"?>
<!-- Created with Inkscape (http://www.inkscape.org/) -->

<svg
   xmlns:dc="http://purl.org/dc/elements/1.1/"
   xmlns:cc="http://creativecommons.org/ns#"
   xmlns:rdf="http://www.w3.org/1999/02/22-rdf-syntax-ns#"
   xmlns:svg="http://www.w3.org/2000/svg"
   xmlns="http://www.w3.org/2000/svg"
   xmlns:sodipodi="http://sodipodi.sourceforge.net/DTD/sodipodi-0.dtd"
   xmlns:inkscape="http://www.inkscape.org/namespaces/inkscape"
   width="210mm"
   height="297mm"
   viewBox="0 0 210 297"
   version="1.1"
   id="svg3569"
   inkscape:version="0.92.4 (5da689c313, 2019-01-14)"
   sodipodi:docname="porcemodel.svg">
  <defs
     id="defs3563">
    <marker
       inkscape:stockid="Arrow1Send"
       orient="auto"
       refY="0"
       refX="0"
       id="marker2505-4-6-5"
       style="overflow:visible"
       inkscape:isstock="true">
      <path
         inkscape:connector-curvature="0"
         id="path2503-5-18-03"
         d="M 0,0 5,-5 -12.5,0 5,5 Z"
         style="fill:#008066;fill-opacity:1;fill-rule:evenodd;stroke:#008066;stroke-width:1.00000003pt;stroke-opacity:1"
         transform="matrix(-0.2,0,0,-0.2,-1.2,0)" />
    </marker>
    <marker
       inkscape:stockid="Arrow1Send"
       orient="auto"
       refY="0"
       refX="0"
       id="marker2505-4-6-1"
       style="overflow:visible"
       inkscape:isstock="true">
      <path
         inkscape:connector-curvature="0"
         id="path2503-5-18-0"
         d="M 0,0 5,-5 -12.5,0 5,5 Z"
         style="fill:#008066;fill-opacity:1;fill-rule:evenodd;stroke:#008066;stroke-width:1.00000003pt;stroke-opacity:1"
         transform="matrix(-0.2,0,0,-0.2,-1.2,0)" />
    </marker>
    <marker
       inkscape:stockid="Arrow1Send"
       orient="auto"
       refY="0"
       refX="0"
       id="marker2505-4-6-8"
       style="overflow:visible"
       inkscape:isstock="true">
      <path
         inkscape:connector-curvature="0"
         id="path2503-5-18-71"
         d="M 0,0 5,-5 -12.5,0 5,5 Z"
         style="fill:#008066;fill-opacity:1;fill-rule:evenodd;stroke:#008066;stroke-width:1.00000003pt;stroke-opacity:1"
         transform="matrix(-0.2,0,0,-0.2,-1.2,0)" />
    </marker>
    <marker
       inkscape:stockid="Arrow1Send"
       orient="auto"
       refY="0"
       refX="0"
       id="marker2505-4-6-7"
       style="overflow:visible"
       inkscape:isstock="true">
      <path
         inkscape:connector-curvature="0"
         id="path2503-5-18-4"
         d="M 0,0 5,-5 -12.5,0 5,5 Z"
         style="fill:#008066;fill-opacity:1;fill-rule:evenodd;stroke:#008066;stroke-width:1.00000003pt;stroke-opacity:1"
         transform="matrix(-0.2,0,0,-0.2,-1.2,0)" />
    </marker>
    <marker
       inkscape:stockid="Arrow1Send"
       orient="auto"
       refY="0"
       refX="0"
       id="marker2505-4-6-68"
       style="overflow:visible"
       inkscape:isstock="true">
      <path
         inkscape:connector-curvature="0"
         id="path2503-5-18-7"
         d="M 0,0 5,-5 -12.5,0 5,5 Z"
         style="fill:#008066;fill-opacity:1;fill-rule:evenodd;stroke:#008066;stroke-width:1.00000003pt;stroke-opacity:1"
         transform="matrix(-0.2,0,0,-0.2,-1.2,0)" />
    </marker>
    <marker
       inkscape:stockid="Arrow1Send"
       orient="auto"
       refY="0"
       refX="0"
       id="marker2505-4-6-6"
       style="overflow:visible"
       inkscape:isstock="true">
      <path
         inkscape:connector-curvature="0"
         id="path2503-5-18-2"
         d="M 0,0 5,-5 -12.5,0 5,5 Z"
         style="fill:#008066;fill-opacity:1;fill-rule:evenodd;stroke:#008066;stroke-width:1.00000003pt;stroke-opacity:1"
         transform="matrix(-0.2,0,0,-0.2,-1.2,0)" />
    </marker>
    <marker
       inkscape:stockid="Arrow1Send"
       orient="auto"
       refY="0"
       refX="0"
       id="marker2505-4-6"
       style="overflow:visible"
       inkscape:isstock="true">
      <path
         inkscape:connector-curvature="0"
         id="path2503-5-18"
         d="M 0,0 5,-5 -12.5,0 5,5 Z"
         style="fill:#008066;fill-opacity:1;fill-rule:evenodd;stroke:#008066;stroke-width:1.00000003pt;stroke-opacity:1"
         transform="matrix(-0.2,0,0,-0.2,-1.2,0)" />
    </marker>
    <marker
       inkscape:stockid="Arrow2Mend"
       orient="auto"
       refY="0"
       refX="0"
       id="marker1902-8-29-1-8"
       style="overflow:visible"
       inkscape:isstock="true">
      <path
         inkscape:connector-curvature="0"
         id="path1575-6-8-6-0"
         style="fill:#000000;fill-opacity:1;fill-rule:evenodd;stroke:#000000;stroke-width:0.625;stroke-linejoin:round;stroke-opacity:1"
         d="M 8.7185878,4.0337352 -2.2072895,0.01601326 8.7185884,-4.0017078 c -1.7454984,2.3720609 -1.7354408,5.6174519 -6e-7,8.035443 z"
         transform="scale(-0.6)" />
    </marker>
    <marker
       inkscape:stockid="Arrow2Mend"
       orient="auto"
       refY="0"
       refX="0"
       id="marker1902-0-0"
       style="overflow:visible"
       inkscape:isstock="true">
      <path
         inkscape:connector-curvature="0"
         id="path1575-7-4"
         style="fill:#000000;fill-opacity:1;fill-rule:evenodd;stroke:#000000;stroke-width:0.625;stroke-linejoin:round;stroke-opacity:1"
         d="M 8.7185878,4.0337352 -2.2072895,0.01601326 8.7185884,-4.0017078 c -1.7454984,2.3720609 -1.7354408,5.6174519 -6e-7,8.035443 z"
         transform="scale(-0.6)" />
    </marker>
    <marker
       inkscape:stockid="Arrow2Mend"
       orient="auto"
       refY="0"
       refX="0"
       id="marker1902-0-3"
       style="overflow:visible"
       inkscape:isstock="true">
      <path
         inkscape:connector-curvature="0"
         id="path1575-7-3"
         style="fill:#000000;fill-opacity:1;fill-rule:evenodd;stroke:#000000;stroke-width:0.625;stroke-linejoin:round;stroke-opacity:1"
         d="M 8.7185878,4.0337352 -2.2072895,0.01601326 8.7185884,-4.0017078 c -1.7454984,2.3720609 -1.7354408,5.6174519 -6e-7,8.035443 z"
         transform="scale(-0.6)" />
    </marker>
    <marker
       inkscape:stockid="Arrow2Mend"
       orient="auto"
       refY="0"
       refX="0"
       id="marker1902-0"
       style="overflow:visible"
       inkscape:isstock="true">
      <path
         inkscape:connector-curvature="0"
         id="path1575-7"
         style="fill:#000000;fill-opacity:1;fill-rule:evenodd;stroke:#000000;stroke-width:0.625;stroke-linejoin:round;stroke-opacity:1"
         d="M 8.7185878,4.0337352 -2.2072895,0.01601326 8.7185884,-4.0017078 c -1.7454984,2.3720609 -1.7354408,5.6174519 -6e-7,8.035443 z"
         transform="scale(-0.6)" />
    </marker>
    <marker
       inkscape:stockid="Arrow2Mend"
       orient="auto"
       refY="0"
       refX="0"
       id="marker1902-8-29-1"
       style="overflow:visible"
       inkscape:isstock="true">
      <path
         inkscape:connector-curvature="0"
         id="path1575-6-8-6"
         style="fill:#000000;fill-opacity:1;fill-rule:evenodd;stroke:#000000;stroke-width:0.625;stroke-linejoin:round;stroke-opacity:1"
         d="M 8.7185878,4.0337352 -2.2072895,0.01601326 8.7185884,-4.0017078 c -1.7454984,2.3720609 -1.7354408,5.6174519 -6e-7,8.035443 z"
         transform="scale(-0.6)" />
    </marker>
    <marker
       inkscape:stockid="Arrow2Mend"
       orient="auto"
       refY="0"
       refX="0"
       id="marker1902-8-29-0"
       style="overflow:visible"
       inkscape:isstock="true">
      <path
         inkscape:connector-curvature="0"
         id="path1575-6-8-9"
         style="fill:#000000;fill-opacity:1;fill-rule:evenodd;stroke:#000000;stroke-width:0.625;stroke-linejoin:round;stroke-opacity:1"
         d="M 8.7185878,4.0337352 -2.2072895,0.01601326 8.7185884,-4.0017078 c -1.7454984,2.3720609 -1.7354408,5.6174519 -6e-7,8.035443 z"
         transform="scale(-0.6)" />
    </marker>
    <marker
       inkscape:stockid="Arrow2Mend"
       orient="auto"
       refY="0"
       refX="0"
       id="marker1938-2"
       style="overflow:visible"
       inkscape:isstock="true">
      <path
         inkscape:connector-curvature="0"
         id="path1936-6"
         style="fill:#000000;fill-opacity:1;fill-rule:evenodd;stroke:#000000;stroke-width:0.625;stroke-linejoin:round;stroke-opacity:1"
         d="M 8.7185878,4.0337352 -2.2072895,0.01601326 8.7185884,-4.0017078 c -1.7454984,2.3720609 -1.7354408,5.6174519 -6e-7,8.035443 z"
         transform="scale(-0.6)" />
    </marker>
    <marker
       inkscape:stockid="Arrow2Mend"
       orient="auto"
       refY="0"
       refX="0"
       id="marker1902-8-29"
       style="overflow:visible"
       inkscape:isstock="true">
      <path
         inkscape:connector-curvature="0"
         id="path1575-6-8"
         style="fill:#000000;fill-opacity:1;fill-rule:evenodd;stroke:#000000;stroke-width:0.625;stroke-linejoin:round;stroke-opacity:1"
         d="M 8.7185878,4.0337352 -2.2072895,0.01601326 8.7185884,-4.0017078 c -1.7454984,2.3720609 -1.7354408,5.6174519 -6e-7,8.035443 z"
         transform="scale(-0.6)" />
    </marker>
    <marker
       inkscape:stockid="Arrow2Mend"
       orient="auto"
       refY="0"
       refX="0"
       id="marker1902-8-4"
       style="overflow:visible"
       inkscape:isstock="true">
      <path
         inkscape:connector-curvature="0"
         id="path1575-6-6"
         style="fill:#000000;fill-opacity:1;fill-rule:evenodd;stroke:#000000;stroke-width:0.625;stroke-linejoin:round;stroke-opacity:1"
         d="M 8.7185878,4.0337352 -2.2072895,0.01601326 8.7185884,-4.0017078 c -1.7454984,2.3720609 -1.7354408,5.6174519 -6e-7,8.035443 z"
         transform="scale(-0.6)" />
    </marker>
    <marker
       inkscape:stockid="Arrow2Mend"
       orient="auto"
       refY="0"
       refX="0"
       id="marker1902-8-8"
       style="overflow:visible"
       inkscape:isstock="true">
      <path
         inkscape:connector-curvature="0"
         id="path1575-6-4"
         style="fill:#000000;fill-opacity:1;fill-rule:evenodd;stroke:#000000;stroke-width:0.625;stroke-linejoin:round;stroke-opacity:1"
         d="M 8.7185878,4.0337352 -2.2072895,0.01601326 8.7185884,-4.0017078 c -1.7454984,2.3720609 -1.7354408,5.6174519 -6e-7,8.035443 z"
         transform="scale(-0.6)" />
    </marker>
    <marker
       inkscape:stockid="Arrow2Mend"
       orient="auto"
       refY="0"
       refX="0"
       id="marker1902-8-6"
       style="overflow:visible"
       inkscape:isstock="true">
      <path
         inkscape:connector-curvature="0"
         id="path1575-6-0"
         style="fill:#000000;fill-opacity:1;fill-rule:evenodd;stroke:#000000;stroke-width:0.625;stroke-linejoin:round;stroke-opacity:1"
         d="M 8.7185878,4.0337352 -2.2072895,0.01601326 8.7185884,-4.0017078 c -1.7454984,2.3720609 -1.7354408,5.6174519 -6e-7,8.035443 z"
         transform="scale(-0.6)" />
    </marker>
    <marker
       inkscape:stockid="Arrow2Mend"
       orient="auto"
       refY="0"
       refX="0"
       id="marker1902-8-3"
       style="overflow:visible"
       inkscape:isstock="true">
      <path
         inkscape:connector-curvature="0"
         id="path1575-6-9"
         style="fill:#000000;fill-opacity:1;fill-rule:evenodd;stroke:#000000;stroke-width:0.625;stroke-linejoin:round;stroke-opacity:1"
         d="M 8.7185878,4.0337352 -2.2072895,0.01601326 8.7185884,-4.0017078 c -1.7454984,2.3720609 -1.7354408,5.6174519 -6e-7,8.035443 z"
         transform="scale(-0.6)" />
    </marker>
    <marker
       inkscape:stockid="Arrow2Mend"
       orient="auto"
       refY="0"
       refX="0"
       id="marker1969"
       style="overflow:visible"
       inkscape:isstock="true">
      <path
         inkscape:connector-curvature="0"
         id="path1967"
         style="fill:#000000;fill-opacity:1;fill-rule:evenodd;stroke:#000000;stroke-width:0.625;stroke-linejoin:round;stroke-opacity:1"
         d="M 8.7185878,4.0337352 -2.2072895,0.01601326 8.7185884,-4.0017078 c -1.7454984,2.3720609 -1.7354408,5.6174519 -6e-7,8.035443 z"
         transform="scale(-0.6)" />
    </marker>
    <marker
       inkscape:stockid="Arrow2Mend"
       orient="auto"
       refY="0"
       refX="0"
       id="marker1938"
       style="overflow:visible"
       inkscape:isstock="true">
      <path
         inkscape:connector-curvature="0"
         id="path1936"
         style="fill:#000000;fill-opacity:1;fill-rule:evenodd;stroke:#000000;stroke-width:0.625;stroke-linejoin:round;stroke-opacity:1"
         d="M 8.7185878,4.0337352 -2.2072895,0.01601326 8.7185884,-4.0017078 c -1.7454984,2.3720609 -1.7354408,5.6174519 -6e-7,8.035443 z"
         transform="scale(-0.6)" />
    </marker>
    <marker
       inkscape:stockid="Arrow2Mend"
       orient="auto"
       refY="0"
       refX="0"
       id="marker1902"
       style="overflow:visible"
       inkscape:isstock="true">
      <path
         inkscape:connector-curvature="0"
         id="path1575"
         style="fill:#000000;fill-opacity:1;fill-rule:evenodd;stroke:#000000;stroke-width:0.625;stroke-linejoin:round;stroke-opacity:1"
         d="M 8.7185878,4.0337352 -2.2072895,0.01601326 8.7185884,-4.0017078 c -1.7454984,2.3720609 -1.7354408,5.6174519 -6e-7,8.035443 z"
         transform="scale(-0.6)" />
    </marker>
    <marker
       inkscape:stockid="Arrow2Mstart"
       orient="auto"
       refY="0"
       refX="0"
       id="Arrow2Mstart-9"
       style="overflow:visible"
       inkscape:isstock="true">
      <path
         inkscape:connector-curvature="0"
         id="path1572-9"
         style="fill:#000000;fill-opacity:1;fill-rule:evenodd;stroke:#000000;stroke-width:0.625;stroke-linejoin:round;stroke-opacity:1"
         d="M 8.7185878,4.0337352 -2.2072895,0.01601326 8.7185884,-4.0017078 c -1.7454984,2.3720609 -1.7354408,5.6174519 -6e-7,8.035443 z"
         transform="scale(0.6)" />
    </marker>
    <marker
       inkscape:stockid="Arrow1Send"
       orient="auto"
       refY="0"
       refX="0"
       id="Arrow1Send"
       style="overflow:visible"
       inkscape:isstock="true">
      <path
         inkscape:connector-curvature="0"
         id="path2218"
         d="M 0,0 5,-5 -12.5,0 5,5 Z"
         style="fill:#214478;fill-opacity:1;fill-rule:evenodd;stroke:#214478;stroke-width:1.00000003pt;stroke-opacity:1"
         transform="matrix(-0.2,0,0,-0.2,-1.2,0)" />
    </marker>
    <marker
       inkscape:stockid="Arrow1Send"
       orient="auto"
       refY="0"
       refX="0"
       id="marker2521"
       style="overflow:visible"
       inkscape:isstock="true">
      <path
         inkscape:connector-curvature="0"
         id="path2519"
         d="M 0,0 5,-5 -12.5,0 5,5 Z"
         style="fill:#782167;fill-opacity:1;fill-rule:evenodd;stroke:#782167;stroke-width:1.00000003pt;stroke-opacity:1"
         transform="matrix(-0.2,0,0,-0.2,-1.2,0)" />
    </marker>
    <marker
       inkscape:stockid="Arrow1Send"
       orient="auto"
       refY="0"
       refX="0"
       id="marker2513"
       style="overflow:visible"
       inkscape:isstock="true">
      <path
         inkscape:connector-curvature="0"
         id="path2511"
         d="M 0,0 5,-5 -12.5,0 5,5 Z"
         style="fill:#782167;fill-opacity:1;fill-rule:evenodd;stroke:#782167;stroke-width:1.00000003pt;stroke-opacity:1"
         transform="matrix(-0.2,0,0,-0.2,-1.2,0)" />
    </marker>
    <marker
       inkscape:stockid="Arrow1Send"
       orient="auto"
       refY="0"
       refX="0"
       id="marker2481"
       style="overflow:visible"
       inkscape:isstock="true">
      <path
         inkscape:connector-curvature="0"
         id="path2479"
         d="M 0,0 5,-5 -12.5,0 5,5 Z"
         style="fill:#008091;fill-opacity:1;fill-rule:evenodd;stroke:#008091;stroke-width:1.00000003pt;stroke-opacity:1"
         transform="matrix(-0.2,0,0,-0.2,-1.2,0)" />
    </marker>
    <marker
       inkscape:stockid="Arrow1Send"
       orient="auto"
       refY="0"
       refX="0"
       id="marker2489"
       style="overflow:visible"
       inkscape:isstock="true">
      <path
         inkscape:connector-curvature="0"
         id="path2487"
         d="M 0,0 5,-5 -12.5,0 5,5 Z"
         style="fill:#008091;fill-opacity:1;fill-rule:evenodd;stroke:#008091;stroke-width:1.00000003pt;stroke-opacity:1"
         transform="matrix(-0.2,0,0,-0.2,-1.2,0)" />
    </marker>
    <marker
       inkscape:stockid="Arrow1Send"
       orient="auto"
       refY="0"
       refX="0"
       id="marker2529"
       style="overflow:visible"
       inkscape:isstock="true">
      <path
         inkscape:connector-curvature="0"
         id="path2527"
         d="M 0,0 5,-5 -12.5,0 5,5 Z"
         style="fill:#214478;fill-opacity:1;fill-rule:evenodd;stroke:#214478;stroke-width:1.00000003pt;stroke-opacity:1"
         transform="matrix(-0.2,0,0,-0.2,-1.2,0)" />
    </marker>
    <marker
       inkscape:stockid="Arrow1Send"
       orient="auto"
       refY="0"
       refX="0"
       id="marker2497"
       style="overflow:visible"
       inkscape:isstock="true">
      <path
         inkscape:connector-curvature="0"
         id="path2495"
         d="M 0,0 5,-5 -12.5,0 5,5 Z"
         style="fill:#214478;fill-opacity:1;fill-rule:evenodd;stroke:#214478;stroke-width:1.00000003pt;stroke-opacity:1"
         transform="matrix(-0.2,0,0,-0.2,-1.2,0)" />
    </marker>
    <marker
       inkscape:stockid="Arrow1Send"
       orient="auto"
       refY="0"
       refX="0"
       id="marker2505"
       style="overflow:visible"
       inkscape:isstock="true">
      <path
         inkscape:connector-curvature="0"
         id="path2503"
         d="M 0,0 5,-5 -12.5,0 5,5 Z"
         style="fill:#214478;fill-opacity:1;fill-rule:evenodd;stroke:#214478;stroke-width:1.00000003pt;stroke-opacity:1"
         transform="matrix(-0.2,0,0,-0.2,-1.2,0)" />
    </marker>
  </defs>
  <sodipodi:namedview
     id="base"
     pagecolor="#ffffff"
     bordercolor="#666666"
     borderopacity="1.0"
     inkscape:pageopacity="0.0"
     inkscape:pageshadow="2"
     inkscape:zoom="0.49497475"
     inkscape:cx="487.54714"
     inkscape:cy="650.18776"
     inkscape:document-units="mm"
     inkscape:current-layer="layer1"
     showgrid="false"
     inkscape:window-width="1920"
     inkscape:window-height="1017"
     inkscape:window-x="-8"
     inkscape:window-y="-8"
     inkscape:window-maximized="1" />
  <metadata
     id="metadata3566">
    <rdf:RDF>
      <cc:Work
         rdf:about="">
        <dc:format>image/svg+xml</dc:format>
        <dc:type
           rdf:resource="http://purl.org/dc/dcmitype/StillImage" />
        <dc:title></dc:title>
      </cc:Work>
    </rdf:RDF>
  </metadata>
  <g
     inkscape:label="Capa 1"
     inkscape:groupmode="layer"
     id="layer1">
    <path
       style="fill:#ffffff;fill-rule:evenodd;stroke:none;stroke-width:0.26458338;stroke-linecap:butt;stroke-linejoin:miter;stroke-miterlimit:4;stroke-dasharray:none;stroke-dashoffset:0;stroke-opacity:1"
       d="M 11.353121,6.973105 11.10661,259.35052 H 198.29219 V 7.2463679 Z"
       id="path862-2"
       inkscape:connector-curvature="0"
       sodipodi:nodetypes="ccccc" />
    <path
       inkscape:connector-curvature="0"
       id="path1037-2-1-7-0-6-8"
       d="m 141.28815,158.30216 c 37.76585,0.51758 30.03937,-0.24709 36.16736,0.065 3.72381,0.9445 9.13405,4.57929 9.53269,8.61207 l -0.20193,15.59362 c 0.0971,9.61637 0.17897,23.61551 -9.3e-4,24.55788 -0.51381,2.67236 -4.44262,5.04049 -7.08803,5.74292 -48.31196,0.62908 -94.23714,-0.24309 -136.237768,-0.0806 -3.317114,0.0556 -8.043097,-5.26084 -7.480639,-6.065 v -39.9054 c 0,0 1.998791,-8.26096 7.862476,-8.46444 8.002734,-0.27771 23.604823,0.4704 27.496946,-0.2633 11.468389,0.0308 25.48312,0.19716 31.137775,0.18225 72.22607,0.14982 -38.711092,0.19285 38.80744,0.0159 z"
       style="fill:#676c53;stroke-width:0.99999988"
       sodipodi:nodetypes="cccccccccscccc" />
    <path
       style="fill:#5aa02c;fill-rule:evenodd;stroke:#447821;stroke-width:0.26458332px;stroke-linecap:butt;stroke-linejoin:miter;stroke-opacity:1"
       d="m 90.684808,63.57755 c 2.189472,-8.971958 25.229362,-14.176126 34.869052,-3.446838 7.66882,-3.865155 25.63378,7.863187 21.21779,19.517616 1.83166,11.88095 -11.2016,19.23346 -17.59495,16.115528 -16.38281,8.774674 -24.91901,3.171527 -29.567587,2.208848 C 83.552868,102.38221 77.559337,93.45447 75.735016,85.861443 72.370437,71.857509 81.463767,64.580946 90.684808,63.57755 Z"
       id="path1694"
       inkscape:connector-curvature="0"
       sodipodi:nodetypes="cccccsc" />
    <path
       style="fill:#ac9d93;fill-opacity:1;fill-rule:evenodd;stroke:none;stroke-width:0.26458338px;stroke-linecap:butt;stroke-linejoin:round;stroke-opacity:1"
       d="m 91.564596,151.87102 -0.175411,-35.7716 c 0.317211,-0.49891 -0.234832,-4.37008 7.48679,-4.59139 l 22.220115,-0.0318 c 3.62402,0.2757 4.92826,1.12165 6.2905,3.12642 l 0.14653,38.11369 c -0.55974,1.87712 -1.64619,2.53173 -5.02828,3.46598 l -24.624885,0.16317 c -4.742201,-0.65586 -6.681098,-2.49482 -6.314293,-4.47459 z"
       id="path1285-4-8"
       inkscape:connector-curvature="0"
       sodipodi:nodetypes="cccccccccc" />
    <text
       xml:space="preserve"
       style="font-style:normal;font-variant:normal;font-weight:normal;font-stretch:normal;font-size:5.84579897px;line-height:1.25;font-family:'Bell MT';-inkscape-font-specification:'Bell MT';letter-spacing:0px;word-spacing:0px;fill:#000000;fill-opacity:1;stroke:none;stroke-width:0.26458332px;stroke-linecap:butt;stroke-linejoin:miter;stroke-opacity:1"
       x="102.32172"
       y="78.924843"
       id="text919-12"
       transform="scale(0.9999061,1.0000939)"><tspan
         sodipodi:role="line"
         id="tspan917-1"
         x="102.32172"
         y="78.924843"
         style="font-style:normal;font-variant:normal;font-weight:normal;font-stretch:normal;font-size:5.84579897px;font-family:'Bell MT';-inkscape-font-specification:'Bell MT';stroke-width:0.26458332px">Foliage</tspan></text>
    <path
       style="fill:#65453a;fill-opacity:1;fill-rule:evenodd;stroke:none;stroke-width:0.26458332px;stroke-linecap:butt;stroke-linejoin:miter;stroke-opacity:1"
       d="m 53.749865,193.98046 c -0.38598,-0.59291 -0.128779,-20.43978 -0.128779,-20.43978 -0.02367,-0.014 0.720947,-1.49258 2.247707,-1.90312 0.604121,0.0381 25.003634,-0.1745 26.417239,-0.0684 1.370285,0.42467 1.692112,0.53987 2.319788,2.17559 0,0 -0.02603,19.06905 -0.02367,20.25042 0.11126,0.31938 -1.00395,1.4869 -2.375773,1.84536 -2.428447,0.63458 -26.320539,0.0956 -26.320539,0.0956 -1.039223,-0.38591 -1.605825,-1.16694 -2.135971,-1.95547 z"
       id="path1423"
       inkscape:connector-curvature="0"
       sodipodi:nodetypes="ccccccsccc" />
    <text
       xml:space="preserve"
       style="font-style:normal;font-variant:normal;font-weight:normal;font-stretch:normal;font-size:5.01068449px;line-height:1.25;font-family:'Bell MT';-inkscape-font-specification:'Bell MT';letter-spacing:0px;word-spacing:0px;fill:#000000;fill-opacity:1;stroke:none;stroke-width:0.26458332px;stroke-linecap:butt;stroke-linejoin:miter;stroke-opacity:1"
       x="56.305939"
       y="183.78873"
       id="text931-4-7"
       transform="scale(0.9999061,1.0000939)"><tspan
         sodipodi:role="line"
         x="56.305939"
         y="183.78873"
         style="font-style:normal;font-variant:normal;font-weight:normal;font-stretch:normal;font-size:5.01068449px;font-family:'Bell MT';-inkscape-font-specification:'Bell MT';stroke-width:0.26458332px"
         id="tspan933-5-5">Coarse roots</tspan></text>
    <text
       xml:space="preserve"
       style="font-style:normal;font-variant:normal;font-weight:normal;font-stretch:normal;font-size:5.84579897px;line-height:1.25;font-family:'Bell MT';-inkscape-font-specification:'Bell MT';letter-spacing:0px;word-spacing:0px;fill:#000000;fill-opacity:1;stroke:none;stroke-width:0.26458332px;stroke-linecap:butt;stroke-linejoin:miter;stroke-opacity:1"
       x="102.55982"
       y="129.54431"
       id="text923-18-2-9"
       transform="scale(0.9999061,1.0000939)"><tspan
         sodipodi:role="line"
         id="tspan921-4-2-2"
         x="102.55982"
         y="129.54431"
         style="font-style:normal;font-variant:normal;font-weight:normal;font-stretch:normal;font-size:5.84579897px;font-family:'Bell MT';-inkscape-font-specification:'Bell MT';stroke-width:0.26458332px">Wood</tspan></text>
    <text
       xml:space="preserve"
       style="font-style:normal;font-variant:normal;font-weight:normal;font-stretch:normal;font-size:4.64529562px;line-height:1.25;font-family:'Bell MT';-inkscape-font-specification:'Bell MT';letter-spacing:0px;word-spacing:0px;fill:#000000;fill-opacity:1;stroke:none;stroke-width:0.26458332px;stroke-linecap:butt;stroke-linejoin:miter;stroke-opacity:1"
       x="97.568619"
       y="167.58862"
       id="text1268-9"
       transform="scale(0.99992089,1.0000791)"><tspan
         sodipodi:role="line"
         id="tspan1266-1"
         x="97.568619"
         y="167.58862"
         style="font-style:normal;font-variant:normal;font-weight:normal;font-stretch:normal;font-size:4.64529562px;font-family:'Bell MT';-inkscape-font-specification:'Bell MT';stroke-width:0.26458332px">Soil Carbon</tspan></text>
    <path
       style="fill:#a0892c;stroke-width:0.99999988"
       d="m 143.87366,157.69237 c -9.19973,-1.50165 -7.53129,-7.15321 -3.80216,-12.84491 2.40678,-3.56376 5.27897,-5.68484 9.43184,-6.96517 3.15922,-0.974 5.4596,-1.29671 9.97951,-1.39996 l 4.24259,-0.0969 -0.14333,2.2304 c -0.55512,8.63796 -4.18744,15.51996 -9.40877,17.82642 -2.12449,0.93848 -3.46293,1.19199 -6.69305,1.26767 -1.62299,0.038 -3.24598,0.0302 -3.60663,-0.0176 z"
       id="path1491"
       inkscape:connector-curvature="0"
       sodipodi:nodetypes="ccsccccccc" />
    <path
       inkscape:connector-curvature="0"
       id="path1037-2-1-7-0-63-1"
       d="m 69.947555,142.47079 c 7.446311,0.0196 7.135846,0.007 7.651552,0.37104 0.244064,0.17348 0.567194,0.53856 0.71799,0.81126 l 0.274244,0.49592 0.03314,4.3238 c 0.01775,2.37809 0,4.51447 -0.02959,4.74754 -0.09824,0.66086 -1.409935,2.47813 -1.914399,2.65183 -8.729008,0.37187 -16.790094,0.16361 -25.390559,0.0739 l -0.45901,-0.37674 c -0.252586,-0.20722 -0.57193,-0.63854 -0.70994,-0.95855 -0.242053,-0.56191 -0.251878,-0.72316 -0.285727,-4.70948 -0.02367,-2.83648 0,-4.3143 0.09351,-4.72432 0.09824,-0.45792 0.299457,-0.79572 0.863572,-1.45292 1.102906,-1.28492 1.075443,-1.27893 5.81634,-1.26351 2.187105,0.009 4.859025,0.009 5.937428,0.006 13.774451,0.0371 -7.382753,0.0476 7.401095,0.007 z"
       style="fill:#8b6446;fill-opacity:0.88888891;stroke-width:0.99999982"
       sodipodi:nodetypes="ccccccccccccsccc" />
    <path
       style="fill:#814e2f;fill-opacity:1;fill-rule:evenodd;stroke:none;stroke-width:0.26458332px;stroke-linecap:butt;stroke-linejoin:miter;stroke-opacity:1"
       d="m 140.01078,203.12188 c -0.3861,-0.59291 -0.1289,-20.43978 -0.1289,-20.43978 -0.0237,-0.014 0.72107,-1.49258 2.24771,-1.90312 0.60412,0.0381 25.00375,-0.1745 26.41724,-0.0684 1.3704,0.42467 1.69211,0.53987 2.31991,2.17559 0,0 -0.026,19.06904 -0.0237,20.25042 0.11126,0.31938 -1.00407,1.4869 -2.37577,1.84536 -2.42845,0.63458 -26.32054,0.0956 -26.32054,0.0956 -1.03922,-0.38591 -1.60582,-1.16694 -2.13609,-1.95547 z"
       id="path1423-0"
       inkscape:connector-curvature="0"
       sodipodi:nodetypes="ccccccsccc" />
    <path
       style="fill:none;fill-rule:evenodd;stroke:#000000;stroke-width:0.26499996;stroke-linecap:butt;stroke-linejoin:miter;stroke-miterlimit:4;stroke-dasharray:none;stroke-opacity:1;marker-start:url(#Arrow2Mstart-9)"
       d="m 134.27315,152.89315 c -9.63719,3.60581 -12.72587,28.59685 3.26006,33.0772"
       id="path1546-7"
       inkscape:connector-curvature="0"
       sodipodi:nodetypes="cc" />
    <path
       style="fill:none;fill-rule:evenodd;stroke:#000000;stroke-width:0.26458332px;stroke-linecap:butt;stroke-linejoin:miter;stroke-opacity:1;marker-end:url(#marker1902)"
       d="M 144.46406,90.987876 V 138.83713"
       id="path1899"
       inkscape:connector-curvature="0" />
    <path
       style="fill:none;fill-rule:evenodd;stroke:#000000;stroke-width:0.26458332px;stroke-linecap:butt;stroke-linejoin:round;stroke-opacity:1;marker-end:url(#marker1938)"
       d="m 148.99498,81.890838 23.77562,0.06841 c 3.71209,-0.134389 5.32821,2.058752 5.44527,2.783404 l -0.176,100.500008 c -0.30692,2.65896 -0.0485,6.89716 -5.46919,7.65837"
       id="path1934"
       inkscape:connector-curvature="0"
       sodipodi:nodetypes="ccccc" />
    <path
       style="fill:none;fill-rule:evenodd;stroke:#000000;stroke-width:0.26458332px;stroke-linecap:butt;stroke-linejoin:miter;stroke-opacity:1;marker-end:url(#marker1969)"
       d="M 89.658724,150.47159 H 81.173188"
       id="path1961"
       inkscape:connector-curvature="0" />
    <text
       xml:space="preserve"
       style="font-style:normal;font-variant:normal;font-weight:normal;font-stretch:normal;font-size:4.93888889px;line-height:1.25;font-family:'Bell MT';-inkscape-font-specification:'Bell MT';letter-spacing:0px;word-spacing:0px;fill:#000000;fill-opacity:1;stroke:none;stroke-width:0.26458332px;stroke-linecap:butt;stroke-linejoin:miter;stroke-opacity:1;"
       x="117.38042"
       y="46.349991"
       id="text1476"><tspan
         sodipodi:role="line"
         id="tspan1474"
         x="117.38042"
         y="46.349991"
         style="font-style:normal;font-variant:normal;font-weight:normal;font-stretch:normal;font-size:4.93888889px;font-family:'Bell MT';-inkscape-font-specification:'Bell MT';stroke-width:0.26458332px;">GPP</tspan></text>
    <text
       xml:space="preserve"
       style="font-style:normal;font-variant:normal;font-weight:normal;font-stretch:normal;font-size:4.13626671px;line-height:1.25;font-family:'Bell MT';-inkscape-font-specification:'Bell MT';letter-spacing:0px;word-spacing:0px;fill:#000000;fill-opacity:1;stroke:none;stroke-width:0.26458332px;stroke-linecap:butt;stroke-linejoin:miter;stroke-opacity:1"
       x="141.1895"
       y="149.23595"
       id="text943-8-3-8"
       transform="scale(0.9999061,1.0000939)"><tspan
         sodipodi:role="line"
         x="141.1895"
         y="149.23595"
         style="font-style:normal;font-variant:normal;font-weight:normal;font-stretch:normal;font-size:4.13626671px;font-family:'Bell MT';-inkscape-font-specification:'Bell MT';stroke-width:0.26458332px"
         id="tspan7341-4-9-1">Fine litter</tspan></text>
    <text
       xml:space="preserve"
       style="font-style:normal;font-variant:normal;font-weight:normal;font-stretch:normal;font-size:3.75801349px;line-height:1.25;font-family:'Bell MT';-inkscape-font-specification:'Bell MT';letter-spacing:0px;word-spacing:0px;fill:#000000;fill-opacity:1;stroke:none;stroke-width:0.26458332px;stroke-linecap:butt;stroke-linejoin:miter;stroke-opacity:1"
       x="53.454887"
       y="148.87714"
       id="text937-0-3-4"
       transform="scale(1.003972,0.99604372)"><tspan
         sodipodi:role="line"
         x="53.454887"
         y="148.87714"
         style="font-style:normal;font-variant:normal;font-weight:normal;font-stretch:normal;font-size:3.75801349px;font-family:'Bell MT';-inkscape-font-specification:'Bell MT';stroke-width:0.26458332px"
         id="tspan939-5-0-1">Coarse woody</tspan><tspan
         sodipodi:role="line"
         x="53.454887"
         y="153.57465"
         style="font-style:normal;font-variant:normal;font-weight:normal;font-stretch:normal;font-size:3.75801349px;font-family:'Bell MT';-inkscape-font-specification:'Bell MT';stroke-width:0.26458332px"
         id="tspan1806-3">      debrys </tspan></text>
    <path
       style="fill:none;fill-rule:evenodd;stroke:#000000;stroke-width:0.26458332px;stroke-linecap:butt;stroke-linejoin:miter;stroke-opacity:1;marker-end:url(#marker1902-8-3)"
       d="M 156.53562,180.37011 V 169.09378"
       id="path1899-8-8"
       inkscape:connector-curvature="0" />
    <path
       style="fill:none;fill-rule:evenodd;stroke:#000000;stroke-width:0.26458332px;stroke-linecap:butt;stroke-linejoin:miter;stroke-opacity:1;marker-end:url(#marker1902-8-6)"
       d="M 158.73741,135.90022 V 90.755146"
       id="path1899-8-2"
       inkscape:connector-curvature="0" />
    <path
       style="fill:none;fill-rule:evenodd;stroke:#000000;stroke-width:0.26458338px;stroke-linecap:butt;stroke-linejoin:miter;stroke-opacity:1;marker-end:url(#marker1902-8-8)"
       d="M 61.813672,142.32018 V 88.365925"
       id="path1899-8-5"
       inkscape:connector-curvature="0" />
    <path
       style="fill:none;fill-rule:evenodd;stroke:#000000;stroke-width:0.26458332px;stroke-linecap:butt;stroke-linejoin:miter;stroke-opacity:1;marker-end:url(#marker1902-8-4)"
       d="m 102.40076,110.48722 v -8.88659"
       id="path1899-8-08"
       inkscape:connector-curvature="0" />
    <path
       style="fill:none;fill-rule:evenodd;stroke:#000000;stroke-width:0.26458332px;stroke-linecap:butt;stroke-linejoin:miter;stroke-opacity:1;marker-end:url(#marker1902-8-29)"
       d="M 109.71693,163.61563 V 152.3393"
       id="path1899-8-07"
       inkscape:connector-curvature="0" />
    <path
       style="fill:none;fill-rule:evenodd;stroke:#000000;stroke-width:0.26458332px;stroke-linecap:butt;stroke-linejoin:round;stroke-opacity:1;marker-end:url(#marker1938-2)"
       d="m 73.66864,81.981717 -23.775388,0.06167 c -3.712088,-0.121168 -5.328327,1.856186 -5.44527,2.509548 l 0.176004,90.611895 c 0.306797,2.39734 0.04853,6.21855 5.469183,6.90487"
       id="path1934-8"
       inkscape:connector-curvature="0"
       sodipodi:nodetypes="ccccc" />
    <path
       style="fill:none;fill-rule:evenodd;stroke:#000000;stroke-width:0.26458332px;stroke-linecap:butt;stroke-linejoin:miter;stroke-opacity:1;marker-end:url(#marker1902-8-29-0)"
       d="M 72.606572,173.16726 V 161.89093"
       id="path1899-8-07-1"
       inkscape:connector-curvature="0" />
    <path
       style="fill:none;fill-rule:evenodd;stroke:#000000;stroke-width:0.26458332px;stroke-linecap:butt;stroke-linejoin:miter;stroke-opacity:1;marker-end:url(#marker1902-8-29-1)"
       d="M 100.17383,54.133632 V 42.857309"
       id="path1899-8-07-3"
       inkscape:connector-curvature="0" />
    <text
       xml:space="preserve"
       style="font-style:normal;font-variant:normal;font-weight:normal;font-stretch:normal;font-size:4.62630272px;line-height:1.25;font-family:'Bell MT';-inkscape-font-specification:'Bell MT';letter-spacing:0px;word-spacing:0px;fill:#000000;fill-opacity:1;stroke:none;stroke-width:0.26458332px;stroke-linecap:butt;stroke-linejoin:miter;stroke-opacity:1"
       x="143.98096"
       y="193.47472"
       id="text927-0"
       transform="scale(0.9999061,1.0000939)"><tspan
         sodipodi:role="line"
         x="143.98096"
         y="193.47472"
         style="font-style:normal;font-variant:normal;font-weight:normal;font-stretch:normal;font-size:4.62630272px;font-family:'Bell MT';-inkscape-font-specification:'Bell MT';stroke-width:0.26458332px"
         id="tspan3927-5"> Fine roots </tspan></text>
    <text
       xml:space="preserve"
       style="font-style:normal;font-variant:normal;font-weight:normal;font-stretch:normal;font-size:5.84579897px;line-height:1.25;font-family:'Bell MT';-inkscape-font-specification:'Bell MT';letter-spacing:0px;word-spacing:0px;fill:#000000;fill-opacity:1;stroke:none;stroke-width:0.26458332px;stroke-linecap:butt;stroke-linejoin:miter;stroke-opacity:1"
       x="97.630463"
       y="32.753101"
       id="text1401"><tspan
         sodipodi:role="line"
         id="tspan1399"
         x="97.630463"
         y="32.753101"
         style="font-style:normal;font-variant:normal;font-weight:normal;font-stretch:normal;font-family:'Bell MT';-inkscape-font-specification:'Bell MT';stroke-width:0.26458332px">Atmosphere</tspan></text>
    <path
       style="fill:none;fill-rule:evenodd;stroke:#000000;stroke-width:0.26458332px;stroke-linecap:butt;stroke-linejoin:miter;stroke-opacity:1;marker-end:url(#marker1902-0)"
       d="m 63.124305,157.29006 v 7.79166"
       id="path1899-8"
       inkscape:connector-curvature="0" />
    <path
       style="fill:none;fill-rule:evenodd;stroke:#000000;stroke-width:0.26458332px;stroke-linecap:butt;stroke-linejoin:miter;stroke-opacity:1;marker-end:url(#marker1902-0-3)"
       d="m 145.9546,157.3257 v 7.79165"
       id="path1899-8-9"
       inkscape:connector-curvature="0" />
    <path
       style="fill:none;fill-rule:evenodd;stroke:#000000;stroke-width:0.26458332px;stroke-linecap:butt;stroke-linejoin:miter;stroke-opacity:1;marker-end:url(#marker1902-0-0)"
       d="m 110.41006,101.50233 v 8.81065"
       id="path1899-8-88"
       inkscape:connector-curvature="0" />
    <path
       style="fill:none;fill-rule:evenodd;stroke:#000000;stroke-width:0.26499999;stroke-linecap:butt;stroke-linejoin:miter;stroke-miterlimit:4;stroke-dasharray:none;stroke-dashoffset:0;stroke-opacity:1;marker-end:url(#marker1902-8-29-1-8)"
       d="M 110.72858,35.484581 V 52.44301"
       id="path1899-8-07-3-8"
       inkscape:connector-curvature="0" />
  </g>
</svg>
