<?xml version="1.0" encoding="UTF-8" standalone="no"?>
<!-- Created with Inkscape (http://www.inkscape.org/) -->

<svg
   xmlns:dc="http://purl.org/dc/elements/1.1/"
   xmlns:cc="http://creativecommons.org/ns#"
   xmlns:rdf="http://www.w3.org/1999/02/22-rdf-syntax-ns#"
   xmlns:svg="http://www.w3.org/2000/svg"
   xmlns="http://www.w3.org/2000/svg"
   xmlns:sodipodi="http://sodipodi.sourceforge.net/DTD/sodipodi-0.dtd"
   xmlns:inkscape="http://www.inkscape.org/namespaces/inkscape"
   width="210mm"
   height="210mm"
   viewBox="0 0 210 210"
   version="1.1"
   id="svg3383"
   inkscape:version="0.92.4 (5da689c313, 2019-01-14)"
   sodipodi:docname="3curvas.svg"
   inkscape:export-filename="C:\Users\Hogar\Documents\GitHub\MaxPlanckInstitute\DAMM\3curvas.png"
   inkscape:export-xdpi="300"
   inkscape:export-ydpi="300">
  <defs
     id="defs3377">
    <marker
       inkscape:stockid="TriangleOutM"
       orient="auto"
       refY="0"
       refX="0"
       id="TriangleOutM"
       style="overflow:visible"
       inkscape:isstock="true">
      <path
         id="path1813"
         d="M 5.77,0 -2.88,5 V -5 Z"
         style="fill:#000000;fill-opacity:1;fill-rule:evenodd;stroke:#000000;stroke-width:1.00000003pt;stroke-opacity:1"
         transform="scale(0.4)"
         inkscape:connector-curvature="0" />
    </marker>
    <marker
       inkscape:stockid="Arrow2Sstart"
       orient="auto"
       refY="0"
       refX="0"
       id="Arrow2Sstart"
       style="overflow:visible"
       inkscape:isstock="true">
      <path
         id="path4019"
         style="fill:#000000;fill-opacity:1;fill-rule:evenodd;stroke:#000000;stroke-width:0.625;stroke-linejoin:round;stroke-opacity:1"
         d="M 8.7185878,4.0337352 -2.2072895,0.01601326 8.7185884,-4.0017078 c -1.7454984,2.3720609 -1.7354408,5.6174519 -6e-7,8.035443 z"
         transform="matrix(0.3,0,0,0.3,-0.69,0)"
         inkscape:connector-curvature="0" />
    </marker>
    <marker
       inkscape:stockid="Arrow2Mstart"
       orient="auto"
       refY="0"
       refX="0"
       id="Arrow2Mstart"
       style="overflow:visible"
       inkscape:isstock="true">
      <path
         id="path4013"
         style="fill:#000000;fill-opacity:1;fill-rule:evenodd;stroke:#000000;stroke-width:0.625;stroke-linejoin:round;stroke-opacity:1"
         d="M 8.7185878,4.0337352 -2.2072895,0.01601326 8.7185884,-4.0017078 c -1.7454984,2.3720609 -1.7354408,5.6174519 -6e-7,8.035443 z"
         transform="scale(0.6)"
         inkscape:connector-curvature="0" />
    </marker>
    <marker
       inkscape:stockid="Arrow2Mend"
       orient="auto"
       refY="0"
       refX="0"
       id="Arrow2Mend"
       style="overflow:visible"
       inkscape:isstock="true">
      <path
         id="path4016"
         style="fill:#000000;fill-opacity:1;fill-rule:evenodd;stroke:#000000;stroke-width:0.625;stroke-linejoin:round;stroke-opacity:1"
         d="M 8.7185878,4.0337352 -2.2072895,0.01601326 8.7185884,-4.0017078 c -1.7454984,2.3720609 -1.7354408,5.6174519 -6e-7,8.035443 z"
         transform="scale(-0.6)"
         inkscape:connector-curvature="0" />
    </marker>
    <marker
       inkscape:stockid="Arrow2Send"
       orient="auto"
       refY="0"
       refX="0"
       id="Arrow2Send"
       style="overflow:visible"
       inkscape:isstock="true">
      <path
         id="path4022"
         style="fill:#000000;fill-opacity:1;fill-rule:evenodd;stroke:#000000;stroke-width:0.625;stroke-linejoin:round;stroke-opacity:1"
         d="M 8.7185878,4.0337352 -2.2072895,0.01601326 8.7185884,-4.0017078 c -1.7454984,2.3720609 -1.7354408,5.6174519 -6e-7,8.035443 z"
         transform="matrix(-0.3,0,0,-0.3,0.69,0)"
         inkscape:connector-curvature="0" />
    </marker>
    <marker
       inkscape:stockid="TriangleOutL"
       orient="auto"
       refY="0"
       refX="0"
       id="TriangleOutL"
       style="overflow:visible"
       inkscape:isstock="true">
      <path
         id="path4131"
         d="M 5.77,0 -2.88,5 V -5 Z"
         style="fill:#000000;fill-opacity:1;fill-rule:evenodd;stroke:#000000;stroke-width:1.00000003pt;stroke-opacity:1"
         transform="scale(0.8)"
         inkscape:connector-curvature="0" />
    </marker>
    <marker
       inkscape:stockid="TriangleInL"
       orient="auto"
       refY="0"
       refX="0"
       id="TriangleInL"
       style="overflow:visible"
       inkscape:isstock="true">
      <path
         id="path4122"
         d="M 5.77,0 -2.88,5 V -5 Z"
         style="fill:#000000;fill-opacity:1;fill-rule:evenodd;stroke:#000000;stroke-width:1.00000003pt;stroke-opacity:1"
         transform="scale(-0.8)"
         inkscape:connector-curvature="0" />
    </marker>
    <marker
       inkscape:stockid="Arrow2Send"
       orient="auto"
       refY="0"
       refX="0"
       id="Arrow2Send-0"
       style="overflow:visible"
       inkscape:isstock="true">
      <path
         inkscape:connector-curvature="0"
         id="path4022-1"
         style="fill:#000000;fill-opacity:1;fill-rule:evenodd;stroke:#000000;stroke-width:0.625;stroke-linejoin:round;stroke-opacity:1"
         d="M 8.7185878,4.0337352 -2.2072895,0.01601326 8.7185884,-4.0017078 c -1.7454984,2.3720609 -1.7354408,5.6174519 -6e-7,8.035443 z"
         transform="matrix(-0.3,0,0,-0.3,0.69,0)" />
    </marker>
    <marker
       inkscape:stockid="Arrow2Send"
       orient="auto"
       refY="0"
       refX="0"
       id="Arrow2Send-3"
       style="overflow:visible"
       inkscape:isstock="true">
      <path
         inkscape:connector-curvature="0"
         id="path4022-5"
         style="fill:#000000;fill-opacity:1;fill-rule:evenodd;stroke:#000000;stroke-width:0.625;stroke-linejoin:round;stroke-opacity:1"
         d="M 8.7185878,4.0337352 -2.2072895,0.01601326 8.7185884,-4.0017078 c -1.7454984,2.3720609 -1.7354408,5.6174519 -6e-7,8.035443 z"
         transform="matrix(-0.3,0,0,-0.3,0.69,0)" />
    </marker>
    <clipPath
       clipPathUnits="userSpaceOnUse"
       id="clipPath6129">
      <rect
         style="fill:none;fill-rule:evenodd;stroke:#ff0000;stroke-width:0.26458332px;stroke-linecap:butt;stroke-linejoin:miter;stroke-opacity:1"
         id="rect6131"
         width="345.31223"
         height="222.36824"
         x="275.82214"
         y="249.96056" />
    </clipPath>
    <clipPath
       clipPathUnits="userSpaceOnUse"
       id="clipPath6133">
      <rect
         style="fill:none;fill-rule:evenodd;stroke:#ff0000;stroke-width:0.26458332px;stroke-linecap:butt;stroke-linejoin:miter;stroke-opacity:1"
         id="rect6135"
         width="345.31223"
         height="222.36824"
         x="275.82214"
         y="249.96056" />
    </clipPath>
  </defs>
  <sodipodi:namedview
     id="base"
     pagecolor="#ffffff"
     bordercolor="#666666"
     borderopacity="1.0"
     inkscape:pageopacity="0.0"
     inkscape:pageshadow="2"
     inkscape:zoom="0.7"
     inkscape:cx="301.42496"
     inkscape:cy="258.35953"
     inkscape:document-units="mm"
     inkscape:current-layer="layer1"
     showgrid="false"
     showguides="true"
     inkscape:guide-bbox="true"
     inkscape:snap-global="false"
     inkscape:window-width="1920"
     inkscape:window-height="1017"
     inkscape:window-x="-8"
     inkscape:window-y="-8"
     inkscape:window-maximized="1" />
  <metadata
     id="metadata3380">
    <rdf:RDF>
      <cc:Work
         rdf:about="">
        <dc:format>image/svg+xml</dc:format>
        <dc:type
           rdf:resource="http://purl.org/dc/dcmitype/StillImage" />
        <dc:title></dc:title>
      </cc:Work>
    </rdf:RDF>
  </metadata>
  <g
     inkscape:label="Capa 1"
     inkscape:groupmode="layer"
     id="layer1"
     transform="translate(0,-87)">
    <rect
       style="opacity:0;fill:#676c53;fill-opacity:1;fill-rule:nonzero;stroke:#98755a;stroke-width:1.60000002;stroke-linejoin:miter;stroke-miterlimit:4;stroke-dasharray:none;stroke-dashoffset:0;stroke-opacity:1;paint-order:normal"
       id="rect3930"
       width="70.998329"
       height="71.823891"
       x="52.001617"
       y="258.59335" />
    <rect
       style="opacity:0;vector-effect:none;fill:#003380;fill-opacity:1;fill-rule:evenodd;stroke:#d35f5f;stroke-width:0.26458332;stroke-linecap:butt;stroke-linejoin:round;stroke-miterlimit:4;stroke-dasharray:0.79374999, 0.79374999;stroke-dashoffset:0;stroke-opacity:1;paint-order:normal"
       id="rect3928"
       width="72.822487"
       height="112.58186"
       x="-35.622051"
       y="133.418" />
    <path
       style="fill:none;fill-rule:evenodd;stroke:#000000;stroke-width:0.66500002;stroke-linecap:butt;stroke-linejoin:miter;stroke-miterlimit:4;stroke-dasharray:none;stroke-opacity:1;marker-start:url(#Arrow2Mstart);marker-end:url(#Arrow2Mend)"
       d="M 26.334725,107.9213 V 265.6896 H 190.34712"
       id="path3987"
       inkscape:connector-curvature="0" />
    <path
       style="fill:none;fill-rule:evenodd;stroke:#d4aa00;stroke-width:0.36500001;stroke-linecap:butt;stroke-linejoin:miter;stroke-miterlimit:4;stroke-dasharray:none;stroke-opacity:1"
       d="m 222.09796,241.85974 c 17.37963,0.88771 30.51476,-16.49618 44.63416,-16.66545 16.22786,-0.19456 25.10885,13.85551 36.18418,16.93345"
       id="path4507"
       inkscape:connector-curvature="0"
       sodipodi:nodetypes="csc"
       clip-path="url(#clipPath6133)"
       transform="translate(-365.88095,84.666667)" />
    <path
       style="fill:none;fill-rule:evenodd;stroke:#000000;stroke-width:0.46500003;stroke-linecap:butt;stroke-linejoin:miter;stroke-miterlimit:4;stroke-dasharray:0.93000004, 1.86000007;stroke-dashoffset:0;stroke-opacity:1"
       d="m 75.26324,265.43057 66.46046,-71.32886 -0.08,-76.72137"
       id="path4555"
       inkscape:connector-curvature="0"
       sodipodi:nodetypes="ccc" />
    <text
       xml:space="preserve"
       style="font-style:normal;font-variant:normal;font-weight:normal;font-stretch:normal;font-size:6.60779667px;line-height:1.25;font-family:Arial;-inkscape-font-specification:Arial;letter-spacing:0px;word-spacing:0px;fill:#000000;fill-opacity:1;stroke:none;stroke-width:0.26458332px;stroke-linecap:butt;stroke-linejoin:miter;stroke-opacity:1"
       x="21.38253"
       y="268.78259"
       id="text4559"
       transform="scale(0.99982933,1.0001707)"><tspan
         sodipodi:role="line"
         id="tspan4557"
         x="21.38253"
         y="268.78259"
         style="stroke-width:0.26458332px">0</tspan></text>
    <text
       xml:space="preserve"
       style="font-style:normal;font-variant:normal;font-weight:normal;font-stretch:normal;font-size:6.60779667px;line-height:1.25;font-family:Arial;-inkscape-font-specification:Arial;letter-spacing:0px;word-spacing:0px;fill:#000000;fill-opacity:1;stroke:none;stroke-width:0.26458332px;stroke-linecap:butt;stroke-linejoin:miter;stroke-opacity:1"
       x="73.717201"
       y="272.08475"
       id="text4559-0"
       transform="scale(0.99982933,1.0001707)"><tspan
         sodipodi:role="line"
         id="tspan4557-8"
         x="73.717201"
         y="272.08475"
         style="stroke-width:0.26458332px">0</tspan></text>
    <text
       xml:space="preserve"
       style="font-style:normal;font-variant:normal;font-weight:normal;font-stretch:normal;font-size:4.40519762px;line-height:1.25;font-family:'Times New Roman';-inkscape-font-specification:'Times New Roman, ';letter-spacing:0px;word-spacing:0px;fill:#000000;fill-opacity:1;stroke:none;stroke-width:0.26458332px;stroke-linecap:butt;stroke-linejoin:miter;stroke-opacity:1;"
       x="77.300629"
       y="271.48724"
       id="text5124"
       transform="scale(0.99982933,1.0001707)"><tspan
         sodipodi:role="line"
         id="tspan5122"
         x="77.300629"
         y="271.48724"
         style="font-style:normal;font-variant:normal;font-weight:normal;font-stretch:normal;font-size:4.40519762px;font-family:'Times New Roman';-inkscape-font-specification:'Times New Roman, ';stroke-width:0.26458332px;"> Max</tspan></text>
    <g
       id="g1736"
       transform="matrix(1.1676917,0,0,1.1676959,-22.806257,102.28326)"
       style="stroke-width:0.85638887">
      <g
         style="stroke-width:0.64065737"
         transform="matrix(0.47149062,0,0,0.47164993,-106.2143,-68.822929)"
         id="g1613">
        <path
           d="m 495.516,444.504 c -0.703,-0.316 -4.305,0.113 -4.063,3.098 -0.137,3.425 3.692,4.32 4.485,2.746"
           style="fill:none;stroke:#000000;stroke-width:0.6628536;stroke-linecap:butt;stroke-linejoin:miter;stroke-miterlimit:4;stroke-dasharray:none;stroke-opacity:1"
           id="path1615"
           inkscape:connector-curvature="0" />
      </g>
      <g
         style="stroke-width:0.64065737"
         transform="matrix(0.47149062,0,0,0.47164993,-106.2143,-68.822929)"
         id="g1617">
        <path
           d="m 491.453,447.602 2.902,-0.118"
           style="fill:none;stroke:#000000;stroke-width:0.6628536;stroke-linecap:butt;stroke-linejoin:miter;stroke-miterlimit:4;stroke-dasharray:none;stroke-opacity:1"
           id="path1619"
           inkscape:connector-curvature="0" />
      </g>
    </g>
    <text
       xml:space="preserve"
       style="font-style:normal;font-variant:normal;font-weight:normal;font-stretch:normal;font-size:4.14923143px;line-height:1.25;font-family:'Times New Roman';-inkscape-font-specification:'Times New Roman, ';letter-spacing:0px;word-spacing:0px;fill:#000000;fill-opacity:1;stroke:none;stroke-width:0.26458332px;stroke-linecap:butt;stroke-linejoin:miter;stroke-opacity:1"
       x="79.24778"
       y="191.34265"
       id="text6326"
       transform="scale(0.99982933,1.0001707)"><tspan
         sodipodi:role="line"
         id="tspan6324"
         x="79.24778"
         y="191.34265"
         style="font-style:normal;font-variant:normal;font-weight:normal;font-stretch:normal;font-size:4.14923143px;font-family:'Times New Roman';-inkscape-font-specification:'Times New Roman, ';stroke-width:0.26458332px">Temperature</tspan></text>
    <path
       style="fill:none;fill-rule:evenodd;stroke:#000000;stroke-width:0.565;stroke-linecap:butt;stroke-linejoin:miter;stroke-miterlimit:4;stroke-dasharray:none;stroke-opacity:1"
       d="m 74.387477,269.8311 2.289553,0.0276"
       id="path1718"
       inkscape:connector-curvature="0" />
    <path
       style="fill:none;fill-rule:evenodd;stroke:#d45500;stroke-width:0.46500003;stroke-linecap:butt;stroke-linejoin:miter;stroke-miterlimit:4;stroke-dasharray:none;stroke-opacity:1"
       d="m 27.317969,265.40152 c 45.574393,-23.77236 61.916567,-16.34173 97.745941,-0.0868"
       id="path1758"
       inkscape:connector-curvature="0"
       sodipodi:nodetypes="cc" />
    <path
       style="fill:none;fill-rule:evenodd;stroke:#000000;stroke-width:0.46500003;stroke-linecap:butt;stroke-linejoin:miter;stroke-miterlimit:4;stroke-dasharray:0.93000004, 1.86000009;stroke-dashoffset:0;stroke-opacity:1"
       d="m 75.413264,265.92859 0.233885,-15.67356"
       id="path5102-6"
       inkscape:connector-curvature="0"
       sodipodi:nodetypes="cc" />
    <path
       style="fill:none;fill-rule:evenodd;stroke:#cb6a88;stroke-width:0.66500002;stroke-linecap:butt;stroke-linejoin:miter;stroke-miterlimit:4;stroke-dasharray:none;stroke-opacity:1"
       d="m 59.630296,230.25006 c -0.717453,-0.93587 2.90709,5.6037 34.033705,-26.51248 43.597039,-44.98306 40.977179,-133.482428 59.101349,-57.76243 7.32059,30.58437 19.57717,47.49172 28.71094,57.56165"
       id="path1947"
       inkscape:connector-curvature="0"
       sodipodi:nodetypes="cssc" />
    <path
       style="fill:none;fill-rule:evenodd;stroke:#7e79d9;stroke-width:0.66500002;stroke-linecap:butt;stroke-linejoin:miter;stroke-miterlimit:4;stroke-dasharray:none;stroke-opacity:1"
       d="m 39.454692,251.94741 c 5.445859,-2.1064 16.826688,-1.14917 38.774821,-13.03654 45.375767,-24.57606 40.200047,-85.50286 58.012077,-37.09065 5.19644,14.12362 12.92357,23.68541 20.19712,30.33305"
       id="path1947-7"
       inkscape:connector-curvature="0"
       sodipodi:nodetypes="cssc" />
    <path
       style="fill:none;fill-rule:evenodd;stroke:#000000;stroke-width:0.46500003;stroke-linecap:butt;stroke-linejoin:miter;stroke-miterlimit:4;stroke-dasharray:0.93000003, 1.86000006;stroke-dashoffset:0;stroke-opacity:1"
       d="m 125.09726,265.47963 31.22224,-33.0955 37.57779,-41.06315"
       id="path3985-7"
       inkscape:connector-curvature="0"
       sodipodi:nodetypes="ccc" />
    <path
       style="fill:none;fill-rule:evenodd;stroke:#000000;stroke-width:0.46500003;stroke-linecap:butt;stroke-linejoin:miter;stroke-miterlimit:4;stroke-dasharray:none;stroke-dashoffset:0;stroke-opacity:1;marker-end:url(#TriangleOutM)"
       d="M 26.713018,265.4909 92.794855,193.56612"
       id="path3985"
       inkscape:connector-curvature="0"
       sodipodi:nodetypes="cc" />
    <path
       style="fill:none;fill-rule:evenodd;stroke:#000000;stroke-width:0.465;stroke-linecap:butt;stroke-linejoin:miter;stroke-miterlimit:4;stroke-dasharray:0.93000001, 1.86000003;stroke-dashoffset:0;stroke-opacity:1"
       d="m 124.73145,212.56843 0.23389,-29.30734"
       id="path5102"
       inkscape:connector-curvature="0"
       sodipodi:nodetypes="cc" />
    <path
       style="fill:none;fill-rule:evenodd;stroke:#ff0000;stroke-width:0.76500005;stroke-linecap:butt;stroke-linejoin:miter;stroke-miterlimit:4;stroke-dasharray:none;stroke-opacity:1"
       d="m 75.441468,249.9203 c 0,0 23.442956,-9.40492 35.468062,-32.5417 12.02513,-23.13676 22.87131,-60.15576 26.17231,-78.27966 3.30101,-18.12392 3.59272,-21.44053 4.42636,-22.53123"
       id="path898"
       inkscape:connector-curvature="0"
       sodipodi:nodetypes="cssc" />
    <text
       xml:space="preserve"
       style="font-style:normal;font-variant:normal;font-weight:normal;font-stretch:normal;font-size:9.05286789px;line-height:1.25;font-family:'Times New Roman';-inkscape-font-specification:'Times New Roman, ';letter-spacing:0px;word-spacing:0px;fill:#000000;fill-opacity:1;stroke:none;stroke-width:0.26458332px;stroke-linecap:butt;stroke-linejoin:miter;stroke-opacity:1"
       x="30.656708"
       y="282.26373"
       id="text2067"
       transform="scale(0.99999821,1.0000018)"><tspan
         sodipodi:role="line"
         id="tspan2065"
         x="30.656708"
         y="282.26373"
         style="font-style:normal;font-variant:normal;font-weight:normal;font-stretch:normal;font-size:9.05286789px;font-family:'Times New Roman';-inkscape-font-specification:'Times New Roman, ';stroke-width:0.26458332px">Volumetric Water Content</tspan></text>
    <g
       aria-label="Decomposition rate"
       style="font-style:normal;font-variant:normal;font-weight:normal;font-stretch:normal;font-size:8.46666622px;line-height:1.25;font-family:'Century Schoolbook';-inkscape-font-specification:'Century Schoolbook';letter-spacing:0px;word-spacing:0px;fill:#000000;fill-opacity:1;stroke:none;stroke-width:0.24745072px;stroke-linecap:butt;stroke-linejoin:miter;stroke-opacity:1"
       id="text2071"
       transform="matrix(-1.0692345,0,0,-1.0692383,48.606685,272.79948)">
      <path
         d="m 31.705608,26.134529 v 3.158463 q 0,0.7028 -0.248047,1.194759 -0.314192,0.611849 -1.045931,1.037663 -0.731738,0.429948 -1.732194,0.429948 -0.826822,0 -1.488281,-0.256316 -0.508496,-0.194303 -0.888834,-0.599446 -0.380339,-0.401009 -0.570508,-0.979785 -0.14056,-0.434082 -0.14056,-1.157552 v -2.827735 h 0.310059 v 0.578776 q 0,0.219109 0.07028,0.301791 0.07028,0.08682 0.219108,0.08682 h 4.92373 q 0.128158,0 0.202572,-0.09095 0.07855,-0.09095 0.07855,-0.252181 v -0.624251 z m -0.310058,2.215885 q 0,-0.186035 -0.07855,-0.276986 -0.07855,-0.08682 -0.235645,-0.08682 H 26.2031 q -0.148828,0 -0.227376,0.103353 -0.07441,0.103352 -0.07441,0.351399 v 0.520899 q 0,0.698665 0.359668,1.223698 0.239778,0.343131 0.67386,0.520898 0.587044,0.243913 1.620573,0.243913 1.529622,0 2.24069,-0.533301 0.599447,-0.454752 0.599447,-1.372526 z"
         style="font-size:8.46666622px;stroke-width:0.24745072px"
         id="path2150"
         inkscape:connector-curvature="0" />
      <path
         d="m 27.501214,36.337523 v -2.77399 q -0.8847,0.02067 -1.248502,0.330729 -0.409278,0.355533 -0.409278,0.905371 0,0.810286 0.921908,1.302246 l -0.115756,0.268717 Q 25.475498,35.767015 25.475498,34.626 q 0,-0.777214 0.56224,-1.310514 0.562239,-0.529167 1.438671,-0.529167 0.942578,0 1.521354,0.520899 0.582911,0.525032 0.582911,1.289843 0,0.56224 -0.289388,0.971517 -0.289389,0.409277 -0.830958,0.615983 -0.380338,0.144694 -0.959114,0.152962 z m 0.293522,-2.77399 v 1.67845 q 0,0.148828 0.09922,0.23151 0.103353,0.08268 0.347265,0.08268 0.454753,0 0.77308,-0.285254 0.318327,-0.28112 0.318327,-0.665593 0,-0.429947 -0.384473,-0.731738 -0.384473,-0.297656 -1.153418,-0.310058 z"
         style="font-size:8.46666622px;stroke-width:0.24745072px"
         id="path2152"
         inkscape:connector-curvature="0" />
      <path
         d="m 26.740537,39.896996 -0.07855,0.268718 q -1.186491,-0.322461 -1.186491,-1.422136 0,-0.806152 0.533301,-1.318782 0.533301,-0.51263 1.418001,-0.51263 1.02526,0 1.5875,0.562239 0.566374,0.56224 0.566374,1.322917 0,0.570508 -0.314193,0.942578 -0.314193,0.37207 -0.698666,0.37207 -0.23151,0 -0.384472,-0.14056 -0.148828,-0.136425 -0.148828,-0.326595 0,-0.186035 0.128157,-0.314192 0.128158,-0.128158 0.310059,-0.128158 0.181901,0 0.347265,0.14056 0.07855,0.06615 0.124024,0.06615 0.119889,0 0.23151,-0.161231 0.115756,-0.16123 0.115756,-0.438216 0,-0.504362 -0.367937,-0.764811 -0.5333,-0.37207 -1.405598,-0.37207 -0.830957,0 -1.260905,0.330729 -0.425814,0.330729 -0.425814,0.843359 0,0.706934 0.909505,1.050065 z"
         style="font-size:8.46666622px;stroke-width:0.24745072px"
         id="path2154"
         inkscape:connector-curvature="0" />
      <path
         d="m 29.580674,42.518026 q 0,0.781347 -0.566374,1.310514 -0.56224,0.5333 -1.484147,0.5333 -0.636654,0 -1.087272,-0.239778 -0.446485,-0.235645 -0.706934,-0.677995 -0.260449,-0.438216 -0.260449,-0.946712 0,-0.752409 0.570508,-1.277442 0.570508,-0.520898 1.480013,-0.520898 0.913639,0 1.484147,0.525033 0.570508,0.525032 0.570508,1.293978 z m -0.293523,0 q 0,-0.463021 -0.421679,-0.760678 -0.417546,-0.297656 -1.322917,-0.297656 -0.921907,0 -1.347721,0.293522 -0.425814,0.297656 -0.425814,0.764811 0,0.483692 0.425814,0.781348 0.425814,0.30179 1.393196,0.30179 0.897103,0 1.298112,-0.297656 0.401009,-0.293522 0.401009,-0.785481 z"
         style="font-size:8.46666622px;stroke-width:0.24745072px"
         id="path2156"
         inkscape:connector-curvature="0" />
      <path
         d="m 29.464918,45.163859 0.07028,1.107943 q -0.434082,0.09095 -0.826823,0.119889 0.454753,0.314193 0.640788,0.628386 0.186035,0.314192 0.186035,0.690397 0,0.401009 -0.21084,0.661458 -0.210839,0.260449 -0.686263,0.401009 0.450619,0.276986 0.673861,0.615983 0.223242,0.338997 0.223242,0.740007 0,0.529166 -0.314193,0.793749 -0.413411,0.338998 -1.066601,0.338998 h -1.922363 q -0.173633,0 -0.235645,0.08682 -0.09508,0.115755 -0.09508,0.343132 v 0.194303 h -0.310059 v -1.947168 h 0.310059 v 0.194304 q 0,0.248046 0.08268,0.347265 0.08268,0.09922 0.248047,0.09922 h 1.922363 q 0.429948,0 0.665592,-0.21084 0.235645,-0.21084 0.235645,-0.553971 0,-0.260449 -0.14056,-0.471289 -0.136426,-0.21084 -0.392741,-0.330729 -0.367936,-0.177767 -0.624251,-0.177767 h -1.666048 q -0.169499,0 -0.252181,0.09095 -0.07855,0.09095 -0.07855,0.28112 v 0.264583 h -0.310059 v -1.971972 h 0.310059 v 0.223242 q 0,0.21084 0.08268,0.314193 0.08268,0.103352 0.21084,0.103352 h 1.785937 q 0.566374,0 0.822689,-0.202571 0.256315,-0.198438 0.256315,-0.537435 0,-0.438216 -0.297656,-0.673861 -0.42168,-0.334863 -0.983919,-0.334863 h -1.546159 q -0.177767,0 -0.243913,0.07855 -0.08682,0.111621 -0.08682,0.347266 v 0.198437 h -0.310059 v -1.951302 h 0.310059 v 0.293522 q 0,0.165365 0.08268,0.252181 0.08268,0.09095 0.21084,0.09095 h 2.538346 q 0.21084,0 0.314193,-0.107487 0.103353,-0.107487 0.132292,-0.429948 z"
         style="font-size:8.46666622px;stroke-width:0.24745072px"
         id="path2158"
         inkscape:connector-curvature="0" />
      <path
         d="m 29.535198,53.671864 q -0.434082,0.09095 -0.835091,0.107487 0.454753,0.285254 0.644922,0.599447 0.190169,0.314193 0.190169,0.686263 0,0.396875 -0.243913,0.756543 -0.243912,0.363802 -0.715201,0.587044 -0.471289,0.227376 -1.062468,0.227376 -0.946712,0 -1.542024,-0.553971 -0.496094,-0.458887 -0.496094,-1.099675 0,-0.363802 0.186035,-0.657324 0.186035,-0.293522 0.553971,-0.520898 h -1.566829 q -0.181901,0 -0.256315,0.08682 -0.09922,0.111621 -0.09922,0.310059 v 0.285254 h -0.293522 v -2.062923 h 0.293522 v 0.285254 q 0,0.198437 0.07855,0.297656 0.07855,0.09922 0.206705,0.09922 h 4.076237 q 0.285254,0 0.401009,-0.136426 0.119889,-0.136426 0.132292,-0.545703 h 0.276985 z m -0.376204,1.203028 q 0,-0.450619 -0.434082,-0.764812 -0.434082,-0.310058 -1.256771,-0.310058 -0.830957,0 -1.227832,0.30179 -0.396875,0.30179 -0.396875,0.768945 0,0.438217 0.338997,0.673861 0.446485,0.30179 1.306381,0.30179 0.901237,1e-6 1.285709,-0.272851 0.384473,-0.272852 0.384473,-0.698665 z"
         style="font-size:8.46666622px;stroke-width:0.24745072px"
         id="path2160"
         inkscape:connector-curvature="0" />
      <path
         d="m 29.580674,59.137166 q 0,0.781348 -0.566374,1.310514 -0.56224,0.533301 -1.484147,0.533301 -0.636654,0 -1.087272,-0.239779 -0.446485,-0.235644 -0.706934,-0.677994 -0.260449,-0.438217 -0.260449,-0.946713 0,-0.752408 0.570508,-1.277441 0.570508,-0.520898 1.480013,-0.520898 0.913639,0 1.484147,0.525032 0.570508,0.525033 0.570508,1.293978 z m -0.293523,0 q 0,-0.463021 -0.421679,-0.760677 -0.417546,-0.297656 -1.322917,-0.297656 -0.921907,0 -1.347721,0.293522 -0.425814,0.297656 -0.425814,0.764811 0,0.483691 0.425814,0.781348 0.425814,0.30179 1.393196,0.30179 0.897103,0 1.298112,-0.297656 0.401009,-0.293522 0.401009,-0.785482 z"
         style="font-size:8.46666622px;stroke-width:0.24745072px"
         id="path2162"
         inkscape:connector-curvature="0" />
      <path
         d="m 27.050596,62.006242 q -0.715202,0.256315 -0.992188,0.587044 -0.272851,0.334863 -0.272851,0.822689 0,0.450618 0.194303,0.690397 0.198437,0.243913 0.500228,0.243913 0.173633,0 0.30179,-0.09095 0.132292,-0.08682 0.194303,-0.243913 0.06615,-0.157096 0.19017,-0.81442 0.124023,-0.628385 0.260449,-0.876432 0.136426,-0.248047 0.376204,-0.388607 0.239779,-0.136426 0.520899,-0.136426 0.425814,0 0.773079,0.285254 0.44235,0.367936 0.44235,1.029395 0,0.504362 -0.318326,0.934309 l 0.289388,0.272852 v 0.169499 l -1.380795,0.107487 v -0.276986 q 0.587045,-0.181901 0.84336,-0.49196 0.260449,-0.310058 0.260449,-0.764811 0,-0.392741 -0.194303,-0.615983 -0.19017,-0.223242 -0.467155,-0.223242 -0.243913,0 -0.405144,0.206706 -0.165364,0.202571 -0.260449,0.79375 -0.115755,0.686263 -0.194303,0.892968 -0.124024,0.338998 -0.384473,0.525033 -0.256315,0.186035 -0.628385,0.186035 -0.51263,0 -0.868164,-0.405143 -0.355534,-0.401009 -0.355534,-1.021127 0,-0.574641 0.380339,-1.066601 l -0.347266,-0.30179 v -0.219108 l 1.542025,-0.08268 z"
         style="font-size:8.46666622px;stroke-width:0.24745072px"
         id="path2164"
         inkscape:connector-curvature="0" />
      <path
         d="m 31.775888,66.458679 q 0,0.186035 -0.14056,0.326595 -0.140559,0.14056 -0.330729,0.14056 -0.186035,0 -0.322461,-0.136426 -0.136425,-0.136426 -0.136425,-0.326595 0,-0.190169 0.136425,-0.330729 0.14056,-0.136426 0.326595,-0.136426 0.186036,0 0.326595,0.14056 0.14056,0.14056 0.14056,0.322461 z m -2.31097,-1.070736 0.04548,1.537891 h -3.332097 q -0.136425,0 -0.194303,0.06615 -0.08268,0.09508 -0.08268,0.239779 v 0.438216 H 25.591259 V 65.47063 h 0.310059 v 0.409278 q 0,0.181901 0.08682,0.264583 0.09095,0.08682 0.260449,0.08682 h 2.439128 q 0.23151,0 0.347266,-0.132291 0.119889,-0.132292 0.119889,-0.392741 v -0.318327 z"
         style="font-size:8.46666622px;stroke-width:0.24745072px"
         id="path2166"
         inkscape:connector-curvature="0" />
      <path
         d="m 31.04415,69.141718 v 0.28112 h -1.579232 v 1.252637 H 29.08458 v -1.252637 h -2.484603 q -0.322461,0 -0.496094,0.152962 -0.169498,0.152962 -0.169498,0.388607 0,0.28112 0.260449,0.479557 0.260449,0.198438 0.859896,0.23151 v 0.276986 q -0.77308,-0.02481 -1.149284,-0.3514 -0.37207,-0.326595 -0.37207,-0.847493 0,-0.479557 0.260449,-0.752409 0.264583,-0.268717 0.690397,-0.268717 H 29.08458 V 68.05858 h 0.289388 q 0.07855,0.458887 0.384473,0.698666 0.458886,0.355533 1.285709,0.384472 z"
         style="font-size:8.46666622px;stroke-width:0.24745072px"
         id="path2168"
         inkscape:connector-curvature="0" />
      <path
         d="m 31.775888,72.411804 q 0,0.186035 -0.14056,0.326595 -0.140559,0.14056 -0.330729,0.14056 -0.186035,0 -0.322461,-0.136426 -0.136425,-0.136426 -0.136425,-0.326595 0,-0.190169 0.136425,-0.330729 0.14056,-0.136426 0.326595,-0.136426 0.186036,0 0.326595,0.14056 0.14056,0.14056 0.14056,0.322461 z m -2.31097,-1.070736 0.04548,1.537891 h -3.332097 q -0.136425,0 -0.194303,0.06615 -0.08268,0.09508 -0.08268,0.239779 v 0.438216 h -0.310059 v -2.199349 h 0.310059 v 0.409278 q 0,0.181901 0.08682,0.264583 0.09095,0.08682 0.260449,0.08682 h 2.439128 q 0.23151,0 0.347266,-0.132291 0.119889,-0.132292 0.119889,-0.392741 v -0.318327 z"
         style="font-size:8.46666622px;stroke-width:0.24745072px"
         id="path2170"
         inkscape:connector-curvature="0" />
      <path
         d="m 29.580674,75.90513 q 0,0.781347 -0.566374,1.310514 -0.56224,0.533301 -1.484147,0.5333 -0.636654,0 -1.087272,-0.239778 -0.446485,-0.235645 -0.706934,-0.677995 -0.260449,-0.438216 -0.260449,-0.946712 0,-0.752409 0.570508,-1.277442 0.570508,-0.520898 1.480013,-0.520898 0.913639,0 1.484147,0.525033 0.570508,0.525032 0.570508,1.293978 z m -0.293523,0 q 0,-0.463021 -0.421679,-0.760678 -0.417546,-0.297656 -1.322917,-0.297656 -0.921907,0 -1.347721,0.293522 -0.425814,0.297656 -0.425814,0.764811 0,0.483692 0.425814,0.781348 0.425814,0.30179 1.393196,0.30179 0.897103,0 1.298112,-0.297656 0.401009,-0.293522 0.401009,-0.785481 z"
         style="font-size:8.46666622px;stroke-width:0.24745072px"
         id="path2172"
         inkscape:connector-curvature="0" />
      <path
         d="m 29.464918,78.311188 0.07855,1.28571 q -0.363803,0.07855 -0.851628,0.115755 0.42168,0.260449 0.632519,0.611849 0.21084,0.355534 0.21084,0.802018 0,0.384473 -0.152962,0.644922 -0.148828,0.260449 -0.475423,0.417546 -0.326595,0.157096 -0.731738,0.157096 h -1.885157 q -0.210839,0 -0.30179,0.09508 -0.08682,0.09508 -0.08682,0.318326 v 0.272852 H 25.59125 v -2.042253 h 0.310059 v 0.194304 q 0,0.272851 0.08682,0.380338 0.08682,0.107487 0.260449,0.107487 h 1.65778 q 0.541569,0 0.802018,-0.165364 0.372071,-0.231511 0.372071,-0.7028 0,-0.467155 -0.376205,-0.781347 -0.376204,-0.310059 -0.979785,-0.310059 H 26.28992 q -0.21084,0 -0.301791,0.09508 -0.08682,0.09922 -0.08682,0.322461 v 0.268717 H 25.59125 v -2.050521 h 0.310059 v 0.268718 q 0,0.202571 0.08268,0.305924 0.08268,0.107487 0.206706,0.107487 h 2.501139 q 0.248047,0 0.376204,-0.136425 0.128158,-0.132292 0.128158,-0.384473 v -0.198438 z"
         style="font-size:8.46666622px;stroke-width:0.24745072px"
         id="path2174"
         inkscape:connector-curvature="0" />
      <path
         d="m 29.464918,85.773263 0.07028,1.393196 h -1.566829 q 0.773079,0.223242 1.169954,0.537435 0.396875,0.314193 0.396875,0.777214 0,0.314192 -0.194303,0.500227 -0.190169,0.19017 -0.51263,0.19017 -0.26045,0 -0.405144,-0.128158 -0.144694,-0.124023 -0.144694,-0.314193 0,-0.186035 0.124024,-0.30179 0.124023,-0.111621 0.334863,-0.111621 0.136426,0 0.256315,0.06615 0.107487,0.06201 0.128158,0.06201 0.06201,0 0.06201,-0.07855 0,-0.169498 -0.198438,-0.384472 -0.276986,-0.297657 -0.760677,-0.458887 -0.752409,-0.248047 -1.203027,-0.248047 h -0.830957 q -0.14056,0 -0.214974,0.09922 -0.07441,0.09922 -0.07441,0.338997 v 0.49196 h -0.310059 v -2.406055 h 0.310059 v 0.384473 q 0,0.194303 0.07441,0.293522 0.07855,0.09922 0.186035,0.09922 h 2.468066 q 0.28112,0 0.409278,-0.119889 0.132291,-0.11989 0.132291,-0.343132 v -0.338997 z"
         style="font-size:8.46666622px;stroke-width:0.24745072px"
         id="path2176"
         inkscape:connector-curvature="0" />
      <path
         d="m 26.017067,93.681824 -0.231511,0.148828 q -0.310058,-0.30179 -0.310058,-0.669726 0,-0.28112 0.152962,-0.475424 0.152962,-0.190169 0.537435,-0.334863 -0.413411,-0.392741 -0.553971,-0.690397 -0.136426,-0.297656 -0.136426,-0.715202 0,-0.595312 0.256315,-0.905371 0.256315,-0.310058 0.657324,-0.310058 0.603581,0 1.000456,0.706933 0.401009,0.711068 0.533301,1.889291 h 0.587044 q 0.314193,0 0.537435,-0.252181 0.223242,-0.252181 0.223242,-0.640788 0,-0.359668 -0.148828,-0.620117 -0.111621,-0.186035 -0.219108,-0.186035 -0.06201,0 -0.194304,0.09922 -0.165364,0.11989 -0.293522,0.11989 -0.186035,0 -0.305924,-0.11989 -0.115755,-0.119889 -0.115755,-0.314192 0,-0.206706 0.14056,-0.347266 0.140559,-0.136426 0.359668,-0.136426 0.409277,0 0.748274,0.458887 0.338998,0.463021 0.338998,1.211296 0,0.690397 -0.297657,1.054199 -0.30179,0.363802 -0.731738,0.363802 h -2.116667 q -0.281119,0 -0.413411,0.09095 -0.136426,0.09095 -0.136426,0.235645 0,0.16123 0.132292,0.338997 z m 1.632975,-1.355989 q -0.144694,-1.050065 -0.471289,-1.488282 -0.248047,-0.326595 -0.702799,-0.326595 -0.318327,0 -0.500228,0.169499 -0.177767,0.169499 -0.177767,0.44235 0,0.487826 0.367936,0.84336 0.37207,0.359668 0.930176,0.359668 z"
         style="font-size:8.46666622px;stroke-width:0.24745072px"
         id="path2178"
         inkscape:connector-curvature="0" />
      <path
         d="m 31.04415,95.318934 v 0.28112 l -1.579232,-10e-7 V 96.85269 H 29.08458 v -1.252637 h -2.484603 q -0.322461,0 -0.496094,0.152963 -0.169498,0.152962 -0.169498,0.388606 0,0.28112 0.260449,0.479558 0.260449,0.198437 0.859896,0.23151 v 0.276986 q -0.77308,-0.02481 -1.149284,-0.3514 -0.37207,-0.326595 -0.37207,-0.847494 0,-0.479557 0.260449,-0.752408 0.264583,-0.268718 0.690397,-0.268718 h 2.600358 v -0.67386 h 0.289388 q 0.07855,0.458886 0.384473,0.698665 0.458886,0.355534 1.285709,0.384473 z"
         style="font-size:8.46666622px;stroke-width:0.24745072px"
         id="path2180"
         inkscape:connector-curvature="0" />
      <path
         d="m 27.501214,101.22658 v -2.773994 q -0.8847,0.02067 -1.248502,0.330729 -0.409278,0.355534 -0.409278,0.905371 0,0.810284 0.921908,1.302244 l -0.115756,0.26872 q -1.174088,-0.60358 -1.174088,-1.744597 0,-0.777213 0.56224,-1.310514 0.562239,-0.529167 1.438671,-0.529167 0.942578,0 1.521354,0.520899 0.582911,0.525032 0.582911,1.289844 0,0.562235 -0.289388,0.971515 -0.289389,0.40928 -0.830958,0.61598 -0.380338,0.1447 -0.959114,0.15297 z m 0.293522,-2.773994 v 1.678454 q 0,0.14882 0.09922,0.23151 0.103353,0.0827 0.347265,0.0827 0.454753,0 0.77308,-0.28525 0.318327,-0.281125 0.318327,-0.665597 0,-0.429948 -0.384473,-0.731738 -0.384473,-0.297657 -1.153418,-0.310059 z"
         style="font-size:8.46666622px;stroke-width:0.24745072px"
         id="path2182"
         inkscape:connector-curvature="0" />
    </g>
    <text
       xml:space="preserve"
       style="font-style:normal;font-variant:normal;font-weight:normal;font-stretch:normal;font-size:4.14923143px;line-height:1.25;font-family:'Times New Roman';-inkscape-font-specification:'Times New Roman, ';letter-spacing:0px;word-spacing:0px;fill:#d40000;fill-opacity:1;stroke:none;stroke-width:0.26458332px;stroke-linecap:butt;stroke-linejoin:miter;stroke-opacity:1;"
       x="128.31723"
       y="113.96435"
       id="text2199"
       transform="scale(0.99999821,1.0000018)"><tspan
         sodipodi:role="line"
         id="tspan2197"
         x="128.31723"
         y="113.96435"
         style="font-size:4.14923143px;fill:#d40000;stroke-width:0.26458332px;-inkscape-font-specification:'Times New Roman, ';font-family:'Times New Roman';font-weight:normal;font-style:normal;font-stretch:normal;font-variant:normal;">Arrhenius quation</tspan></text>
  </g>
</svg>
