<?xml version="1.0" encoding="UTF-8" standalone="no"?>
<!-- Created with Inkscape (http://www.inkscape.org/) -->

<svg
   xmlns:dc="http://purl.org/dc/elements/1.1/"
   xmlns:cc="http://creativecommons.org/ns#"
   xmlns:rdf="http://www.w3.org/1999/02/22-rdf-syntax-ns#"
   xmlns:svg="http://www.w3.org/2000/svg"
   xmlns="http://www.w3.org/2000/svg"
   xmlns:xlink="http://www.w3.org/1999/xlink"
   xmlns:sodipodi="http://sodipodi.sourceforge.net/DTD/sodipodi-0.dtd"
   xmlns:inkscape="http://www.inkscape.org/namespaces/inkscape"
   version="1.1"
   id="svg1565"
   xml:space="preserve"
   width="895.70074"
   height="831.51965"
   viewBox="0 0 895.70074 831.51734"
   sodipodi:docname="dammgrafica.svg"
   inkscape:version="0.92.4 (5da689c313, 2019-01-14)"
   inkscape:export-filename="C:\Users\Hogar\Documents\GitHub\MaxPlanckInstitute\DAMM\dammgrafica.png"
   inkscape:export-xdpi="300"
   inkscape:export-ydpi="300"><metadata
     id="metadata1571"><rdf:RDF><cc:Work
         rdf:about=""><dc:format>image/svg+xml</dc:format><dc:type
           rdf:resource="http://purl.org/dc/dcmitype/StillImage" /><dc:title></dc:title></cc:Work></rdf:RDF></metadata><defs
     id="defs1569"><marker
       inkscape:stockid="Arrow2Mstart"
       orient="auto"
       refY="0"
       refX="0"
       id="marker2881"
       style="overflow:visible"
       inkscape:isstock="true"><path
         id="path2879"
         style="fill:#000000;fill-opacity:1;fill-rule:evenodd;stroke:#000000;stroke-width:0.625;stroke-linejoin:round;stroke-opacity:1"
         d="M 8.7185878,4.0337352 -2.2072895,0.01601326 8.7185884,-4.0017078 c -1.7454984,2.3720609 -1.7354408,5.6174519 -6e-7,8.035443 z"
         transform="scale(0.6)"
         inkscape:connector-curvature="0" /></marker><marker
       inkscape:stockid="TriangleInL"
       orient="auto"
       refY="0"
       refX="0"
       id="TriangleInL"
       style="overflow:visible"
       inkscape:isstock="true"><path
         id="path2534"
         d="M 5.77,0 -2.88,5 V -5 Z"
         style="fill:#000000;fill-opacity:1;fill-rule:evenodd;stroke:#000000;stroke-width:1.00000003pt;stroke-opacity:1"
         transform="scale(-0.8)"
         inkscape:connector-curvature="0" /></marker><marker
       inkscape:stockid="Arrow2Mstart"
       orient="auto"
       refY="0"
       refX="0"
       id="marker2773"
       style="overflow:visible"
       inkscape:isstock="true"><path
         id="path2771"
         style="fill:#000000;fill-opacity:1;fill-rule:evenodd;stroke:#000000;stroke-width:0.625;stroke-linejoin:round;stroke-opacity:1"
         d="M 8.7185878,4.0337352 -2.2072895,0.01601326 8.7185884,-4.0017078 c -1.7454984,2.3720609 -1.7354408,5.6174519 -6e-7,8.035443 z"
         transform="scale(0.6)"
         inkscape:connector-curvature="0" /></marker><marker
       inkscape:stockid="Arrow2Sstart"
       orient="auto"
       refY="0"
       refX="0"
       id="Arrow2Sstart"
       style="overflow:visible"
       inkscape:isstock="true"><path
         id="path2431"
         style="fill:#000000;fill-opacity:1;fill-rule:evenodd;stroke:#000000;stroke-width:0.625;stroke-linejoin:round;stroke-opacity:1"
         d="M 8.7185878,4.0337352 -2.2072895,0.01601326 8.7185884,-4.0017078 c -1.7454984,2.3720609 -1.7354408,5.6174519 -6e-7,8.035443 z"
         transform="matrix(0.3,0,0,0.3,-0.69,0)"
         inkscape:connector-curvature="0" /></marker><marker
       inkscape:stockid="Arrow2Mstart"
       orient="auto"
       refY="0"
       refX="0"
       id="marker2701"
       style="overflow:visible"
       inkscape:isstock="true"><path
         id="path2699"
         style="fill:#000000;fill-opacity:1;fill-rule:evenodd;stroke:#000000;stroke-width:0.625;stroke-linejoin:round;stroke-opacity:1"
         d="M 8.7185878,4.0337352 -2.2072895,0.01601326 8.7185884,-4.0017078 c -1.7454984,2.3720609 -1.7354408,5.6174519 -6e-7,8.035443 z"
         transform="scale(0.6)"
         inkscape:connector-curvature="0" /></marker><marker
       inkscape:stockid="TriangleInS"
       orient="auto"
       refY="0"
       refX="0"
       id="TriangleInS"
       style="overflow:visible"
       inkscape:isstock="true"><path
         id="path2540"
         d="M 5.77,0 -2.88,5 V -5 Z"
         style="fill:#000000;fill-opacity:1;fill-rule:evenodd;stroke:#000000;stroke-width:1.00000003pt;stroke-opacity:1"
         transform="scale(-0.2)"
         inkscape:connector-curvature="0" /></marker><marker
       inkscape:stockid="Arrow2Mstart"
       orient="auto"
       refY="0"
       refX="0"
       id="Arrow2Mstart"
       style="overflow:visible"
       inkscape:isstock="true"><path
         id="path2425"
         style="fill-rule:evenodd;stroke-width:0.625;stroke-linejoin:round"
         d="M 8.7185878,4.0337352 -2.2072895,0.01601326 8.7185884,-4.0017078 c -1.7454984,2.3720609 -1.7354408,5.6174519 -6e-7,8.035443 z"
         transform="scale(0.6)"
         inkscape:connector-curvature="0" /></marker><marker
       inkscape:stockid="Arrow2Mstart"
       orient="auto"
       refY="0"
       refX="0"
       id="marker2881-8"
       style="overflow:visible"
       inkscape:isstock="true"><path
         inkscape:connector-curvature="0"
         id="path2879-8"
         style="fill:#000000;fill-opacity:1;fill-rule:evenodd;stroke:#000000;stroke-width:0.625;stroke-linejoin:round;stroke-opacity:1"
         d="M 8.7185878,4.0337352 -2.2072895,0.01601326 8.7185884,-4.0017078 c -1.7454984,2.3720609 -1.7354408,5.6174519 -6e-7,8.035443 z"
         transform="scale(0.6)" /></marker><marker
       inkscape:stockid="Arrow2Mstart"
       orient="auto"
       refY="0"
       refX="0"
       id="marker2881-8-5"
       style="overflow:visible"
       inkscape:isstock="true"><path
         inkscape:connector-curvature="0"
         id="path2879-8-3"
         style="fill:#000000;fill-opacity:1;fill-rule:evenodd;stroke:#000000;stroke-width:0.625;stroke-linejoin:round;stroke-opacity:1"
         d="M 8.7185878,4.0337352 -2.2072895,0.01601326 8.7185884,-4.0017078 c -1.7454984,2.3720609 -1.7354408,5.6174519 -6e-7,8.035443 z"
         transform="scale(0.6)" /></marker><marker
       inkscape:stockid="Arrow2Mstart"
       orient="auto"
       refY="0"
       refX="0"
       id="Arrow2Mstart-0-4"
       style="overflow:visible"
       inkscape:isstock="true"><path
         id="path4013-8-1"
         style="fill:#000000;fill-opacity:1;fill-rule:evenodd;stroke:#000000;stroke-width:0.625;stroke-linejoin:round;stroke-opacity:1"
         d="M 8.7185878,4.0337352 -2.2072895,0.01601326 8.7185884,-4.0017078 c -1.7454984,2.3720609 -1.7354408,5.6174519 -6e-7,8.035443 z"
         transform="scale(0.6)"
         inkscape:connector-curvature="0" /></marker><marker
       inkscape:stockid="Arrow2Mend"
       orient="auto"
       refY="0"
       refX="0"
       id="Arrow2Mend-9-5"
       style="overflow:visible"
       inkscape:isstock="true"><path
         id="path4016-2-0"
         style="fill:#000000;fill-opacity:1;fill-rule:evenodd;stroke:#000000;stroke-width:0.625;stroke-linejoin:round;stroke-opacity:1"
         d="M 8.7185878,4.0337352 -2.2072895,0.01601326 8.7185884,-4.0017078 c -1.7454984,2.3720609 -1.7354408,5.6174519 -6e-7,8.035443 z"
         transform="scale(-0.6)"
         inkscape:connector-curvature="0" /></marker><marker
       inkscape:stockid="Arrow2Mstart"
       orient="auto"
       refY="0"
       refX="0"
       id="marker2881-8-5-7"
       style="overflow:visible"
       inkscape:isstock="true"><path
         inkscape:connector-curvature="0"
         id="path2879-8-3-8"
         style="fill:#000000;fill-opacity:1;fill-rule:evenodd;stroke:#000000;stroke-width:0.625;stroke-linejoin:round;stroke-opacity:1"
         d="M 8.7185878,4.0337352 -2.2072895,0.01601326 8.7185884,-4.0017078 c -1.7454984,2.3720609 -1.7354408,5.6174519 -6e-7,8.035443 z"
         transform="scale(0.6)" /></marker><marker
       inkscape:stockid="Arrow2Mstart"
       orient="auto"
       refY="0"
       refX="0"
       id="marker2881-8-8"
       style="overflow:visible"
       inkscape:isstock="true"><path
         inkscape:connector-curvature="0"
         id="path2879-8-5"
         style="fill:#000000;fill-opacity:1;fill-rule:evenodd;stroke:#000000;stroke-width:0.625;stroke-linejoin:round;stroke-opacity:1"
         d="M 8.7185878,4.0337352 -2.2072895,0.01601326 8.7185884,-4.0017078 c -1.7454984,2.3720609 -1.7354408,5.6174519 -6e-7,8.035443 z"
         transform="scale(0.6)" /></marker><linearGradient
       inkscape:collect="always"
       id="linearGradient1004"><stop
         style="stop-color:#80b3ff;stop-opacity:1;"
         offset="0"
         id="stop1000" /><stop
         style="stop-color:#80b3ff;stop-opacity:0;"
         offset="1"
         id="stop1002" /></linearGradient><linearGradient
       inkscape:collect="always"
       id="linearGradient994"><stop
         style="stop-color:#80b3ff;stop-opacity:1"
         offset="0"
         id="stop990" /><stop
         id="stop998"
         offset="0.75114393"
         style="stop-color:#80b3ff;stop-opacity:1" /><stop
         style="stop-color:#2a7fff;stop-opacity:1"
         offset="1"
         id="stop992" /></linearGradient><clipPath
       clipPathUnits="userSpaceOnUse"
       id="clipPath1192-0"><rect
         style="fill:none;fill-rule:evenodd;stroke:#000000;stroke-width:0.06500001;stroke-linecap:butt;stroke-linejoin:miter;stroke-miterlimit:4;stroke-dasharray:none;stroke-opacity:1"
         id="rect1194-4"
         width="5.4887738"
         height="8.7342968"
         x="-0.90870643"
         y="-9.1493254"
         ry="0"
         transform="scale(1,-1)" /></clipPath><marker
       inkscape:stockid="Arrow2Mstart"
       orient="auto"
       refY="0"
       refX="0"
       id="Arrow2Mstart-0-4-6"
       style="overflow:visible"
       inkscape:isstock="true"><path
         id="path4013-8-1-3"
         style="fill:#000000;fill-opacity:1;fill-rule:evenodd;stroke:#000000;stroke-width:0.625;stroke-linejoin:round;stroke-opacity:1"
         d="M 8.7185878,4.0337352 -2.2072895,0.01601326 8.7185884,-4.0017078 c -1.7454984,2.3720609 -1.7354408,5.6174519 -6e-7,8.035443 z"
         transform="scale(0.6)"
         inkscape:connector-curvature="0" /></marker><marker
       inkscape:stockid="Arrow2Mend"
       orient="auto"
       refY="0"
       refX="0"
       id="Arrow2Mend-9-5-4"
       style="overflow:visible"
       inkscape:isstock="true"><path
         id="path4016-2-0-40"
         style="fill:#000000;fill-opacity:1;fill-rule:evenodd;stroke:#000000;stroke-width:0.625;stroke-linejoin:round;stroke-opacity:1"
         d="M 8.7185878,4.0337352 -2.2072895,0.01601326 8.7185884,-4.0017078 c -1.7454984,2.3720609 -1.7354408,5.6174519 -6e-7,8.035443 z"
         transform="scale(-0.6)"
         inkscape:connector-curvature="0" /></marker><marker
       inkscape:stockid="Arrow2Mstart"
       orient="auto"
       refY="0"
       refX="0"
       id="marker2881-8-5-2"
       style="overflow:visible"
       inkscape:isstock="true"><path
         inkscape:connector-curvature="0"
         id="path2879-8-3-6"
         style="fill:#000000;fill-opacity:1;fill-rule:evenodd;stroke:#000000;stroke-width:0.625;stroke-linejoin:round;stroke-opacity:1"
         d="M 8.7185878,4.0337352 -2.2072895,0.01601326 8.7185884,-4.0017078 c -1.7454984,2.3720609 -1.7354408,5.6174519 -6e-7,8.035443 z"
         transform="scale(0.6)" /></marker><marker
       inkscape:stockid="Arrow2Mstart"
       orient="auto"
       refY="0"
       refX="0"
       id="marker2881-8-0"
       style="overflow:visible"
       inkscape:isstock="true"><path
         inkscape:connector-curvature="0"
         id="path2879-8-0"
         style="fill:#000000;fill-opacity:1;fill-rule:evenodd;stroke:#000000;stroke-width:0.625;stroke-linejoin:round;stroke-opacity:1"
         d="M 8.7185878,4.0337352 -2.2072895,0.01601326 8.7185884,-4.0017078 c -1.7454984,2.3720609 -1.7354408,5.6174519 -6e-7,8.035443 z"
         transform="scale(0.6)" /></marker><linearGradient
       inkscape:collect="always"
       xlink:href="#linearGradient1004"
       id="linearGradient1006-1-3-3"
       x1="153.94725"
       y1="269.87213"
       x2="110.68862"
       y2="259.46442"
       gradientUnits="userSpaceOnUse"
       gradientTransform="matrix(4.9122466,0,0,10.279459,-75.231262,-1939.9151)" /><linearGradient
       inkscape:collect="always"
       xlink:href="#linearGradient994"
       id="linearGradient996-9-6-8"
       x1="33.231682"
       y1="241.55737"
       x2="110.68862"
       y2="259.46442"
       gradientUnits="userSpaceOnUse"
       gradientTransform="matrix(4.9122466,0,0,10.279459,-75.231262,-1939.9151)" /><marker
       inkscape:stockid="Arrow2Mstart"
       orient="auto"
       refY="0"
       refX="0"
       id="Arrow2Mstart-0-4-6-0"
       style="overflow:visible"
       inkscape:isstock="true"><path
         id="path4013-8-1-3-6"
         style="fill:#000000;fill-opacity:1;fill-rule:evenodd;stroke:#000000;stroke-width:0.625;stroke-linejoin:round;stroke-opacity:1"
         d="M 8.7185878,4.0337352 -2.2072895,0.01601326 8.7185884,-4.0017078 c -1.7454984,2.3720609 -1.7354408,5.6174519 -6e-7,8.035443 z"
         transform="scale(0.6)"
         inkscape:connector-curvature="0" /></marker><marker
       inkscape:stockid="Arrow2Mend"
       orient="auto"
       refY="0"
       refX="0"
       id="Arrow2Mend-9-5-4-4"
       style="overflow:visible"
       inkscape:isstock="true"><path
         id="path4016-2-0-40-3"
         style="fill:#000000;fill-opacity:1;fill-rule:evenodd;stroke:#000000;stroke-width:0.625;stroke-linejoin:round;stroke-opacity:1"
         d="M 8.7185878,4.0337352 -2.2072895,0.01601326 8.7185884,-4.0017078 c -1.7454984,2.3720609 -1.7354408,5.6174519 -6e-7,8.035443 z"
         transform="scale(-0.6)"
         inkscape:connector-curvature="0" /></marker><marker
       inkscape:stockid="Arrow2Mstart"
       orient="auto"
       refY="0"
       refX="0"
       id="marker2881-8-5-71"
       style="overflow:visible"
       inkscape:isstock="true"><path
         inkscape:connector-curvature="0"
         id="path2879-8-3-2"
         style="fill:#000000;fill-opacity:1;fill-rule:evenodd;stroke:#000000;stroke-width:0.625;stroke-linejoin:round;stroke-opacity:1"
         d="M 8.7185878,4.0337352 -2.2072895,0.01601326 8.7185884,-4.0017078 c -1.7454984,2.3720609 -1.7354408,5.6174519 -6e-7,8.035443 z"
         transform="scale(0.6)" /></marker><marker
       inkscape:stockid="Arrow2Mstart"
       orient="auto"
       refY="0"
       refX="0"
       id="marker2881-8-54"
       style="overflow:visible"
       inkscape:isstock="true"><path
         inkscape:connector-curvature="0"
         id="path2879-8-2"
         style="fill:#000000;fill-opacity:1;fill-rule:evenodd;stroke:#000000;stroke-width:0.625;stroke-linejoin:round;stroke-opacity:1"
         d="M 8.7185878,4.0337352 -2.2072895,0.01601326 8.7185884,-4.0017078 c -1.7454984,2.3720609 -1.7354408,5.6174519 -6e-7,8.035443 z"
         transform="scale(0.6)" /></marker></defs><sodipodi:namedview
     pagecolor="#ffffff"
     bordercolor="#666666"
     borderopacity="1"
     objecttolerance="10"
     gridtolerance="10"
     guidetolerance="10"
     inkscape:pageopacity="0"
     inkscape:pageshadow="2"
     inkscape:window-width="1920"
     inkscape:window-height="1017"
     id="namedview1567"
     showgrid="false"
     showguides="true"
     inkscape:guide-bbox="true"
     inkscape:snap-global="false"
     inkscape:zoom="0.29732611"
     inkscape:cx="509.54518"
     inkscape:cy="248.46907"
     inkscape:window-x="-8"
     inkscape:window-y="-8"
     inkscape:window-maximized="1"
     inkscape:current-layer="g1573"><sodipodi:guide
       position="645.68664,568.98905"
       orientation="1,0"
       id="guide4673"
       inkscape:locked="false" /><sodipodi:guide
       position="439.75283,209.36549"
       orientation="1,0"
       id="guide1324"
       inkscape:locked="false" /></sodipodi:namedview><g
     id="g1573"
     inkscape:groupmode="layer"
     inkscape:label="dammgrafica"
     transform="matrix(1.3333333,0,0,1.3333333,0,-291.00214)">

















<g
   id="g1707"
   transform="matrix(1.0576693,0,0,0.7278109,204.9583,-100.91544)"
   style="stroke-width:1.13976622" />


















<rect
   style="opacity:0;fill:#676c53;fill-opacity:1;fill-rule:nonzero;stroke:#98755a;stroke-width:4.53543329;stroke-linejoin:miter;stroke-miterlimit:4;stroke-dasharray:none;stroke-dashoffset:0;stroke-opacity:1;paint-order:normal"
   id="rect3930"
   width="201.25511"
   height="203.59529"
   x="-958.52313"
   y="1056.6588" /><text
   xml:space="preserve"
   style="font-style:normal;font-variant:normal;font-weight:normal;font-stretch:normal;font-size:14.00000095px;line-height:1.25;font-family:'Times New Roman';-inkscape-font-specification:'Times New Roman, ';letter-spacing:0px;word-spacing:0px;fill:#000000;fill-opacity:1;stroke:none;stroke-width:0.74999994px;stroke-linecap:butt;stroke-linejoin:miter;stroke-opacity:1"
   x="117.09113"
   y="599.75391"
   id="text2391-4"><tspan
     sodipodi:role="line"
     x="117.09113"
     y="599.75391"
     style="font-style:normal;font-variant:normal;font-weight:normal;font-stretch:normal;font-size:14.00000095px;font-family:'Times New Roman';-inkscape-font-specification:'Times New Roman, ';stroke-width:0.74999994px"
     id="tspan2393-9">1.Substrate Diffusion</tspan><tspan
     sodipodi:role="line"
     x="117.09113"
     y="617.25391"
     style="font-style:normal;font-variant:normal;font-weight:normal;font-stretch:normal;font-size:14.00000095px;font-family:'Times New Roman';-inkscape-font-specification:'Times New Roman, ';stroke-width:0.74999994px"
     id="tspan3956-7">            Limit </tspan></text>
<text
   xml:space="preserve"
   style="font-style:normal;font-variant:normal;font-weight:normal;font-stretch:normal;font-size:14.00000095px;line-height:1.25;font-family:'Times New Roman';-inkscape-font-specification:'Times New Roman, ';letter-spacing:0px;word-spacing:0px;fill:#000000;fill-opacity:1;stroke:none;stroke-width:0.74999994px;stroke-linecap:butt;stroke-linejoin:miter;stroke-opacity:1"
   x="440.75195"
   y="636.55389"
   id="text2397-5"><tspan
     sodipodi:role="line"
     id="tspan2395-8"
     x="440.75195"
     y="636.55389"
     style="font-style:normal;font-variant:normal;font-weight:normal;font-stretch:normal;font-size:14.00000095px;font-family:'Times New Roman';-inkscape-font-specification:'Times New Roman, ';stroke-width:0.74999994px">2.Oxygen Diffusion</tspan><tspan
     sodipodi:role="line"
     x="440.75195"
     y="654.05389"
     style="font-style:normal;font-variant:normal;font-weight:normal;font-stretch:normal;font-size:14.00000095px;font-family:'Times New Roman';-inkscape-font-specification:'Times New Roman, ';stroke-width:0.74999994px"
     id="tspan2399-9">          Limit</tspan></text>
<path
   style="fill:none;fill-rule:evenodd;stroke:#000000;stroke-width:1.125;stroke-linecap:butt;stroke-linejoin:miter;stroke-miterlimit:4;stroke-dasharray:none;stroke-opacity:1;marker-start:url(#marker2881-8-54)"
   d="m 211.40915,606.91793 18.51168,19.07149"
   id="path2671-0-3"
   inkscape:connector-curvature="0" /><path
   style="fill:none;fill-rule:evenodd;stroke:#000000;stroke-width:1.125;stroke-linecap:butt;stroke-linejoin:miter;stroke-miterlimit:4;stroke-dasharray:none;stroke-opacity:1;marker-start:url(#marker2881-8-5-71)"
   d="m 462.85735,642.517 -16.37574,19.78245"
   id="path2671-0-1-6"
   inkscape:connector-curvature="0" /><text
   id="text1603-4-3"
   style="font-variant:normal;font-weight:normal;font-size:17.46395111px;font-family:Arial;-inkscape-font-specification:ArialMT;writing-mode:lr-tb;fill:#000000;fill-opacity:1;fill-rule:nonzero;stroke:none;stroke-width:1"
   x="47.855225"
   y="750.3042"><tspan
     id="tspan1601-8-1"
     y="750.3042"
     x="47.855225"
     style="stroke-width:1">0</tspan></text>
<text
   xml:space="preserve"
   style="font-style:normal;font-variant:normal;font-weight:normal;font-stretch:normal;font-size:23.99999809px;line-height:1.25;font-family:'Times New Roman';-inkscape-font-specification:'Times New Roman, ';letter-spacing:0px;word-spacing:0px;fill:#000000;fill-opacity:1;stroke:none;stroke-width:0.74999994px;stroke-linecap:butt;stroke-linejoin:miter;stroke-opacity:1"
   x="187.54178"
   y="787.91589"
   id="text2067-5-9-3-0"
   transform="scale(0.9999982,1.0000018)"><tspan
     sodipodi:role="line"
     id="tspan2065-5-4-3-3"
     x="187.54178"
     y="787.91589"
     style="font-style:normal;font-variant:normal;font-weight:normal;font-stretch:normal;font-size:23.99999809px;font-family:'Times New Roman';-inkscape-font-specification:'Times New Roman, ';stroke-width:0.74999994px">Volumetric Water Content</tspan></text>
<g
   aria-label="Decomposition Rate"
   style="font-style:normal;font-variant:normal;font-weight:normal;font-stretch:normal;font-size:8.46666622px;line-height:1.25;font-family:'Times New Roman';-inkscape-font-specification:'Times New Roman, ';letter-spacing:0px;word-spacing:0px;fill:#000000;fill-opacity:1;stroke:none;stroke-width:0.26458332px;stroke-linecap:butt;stroke-linejoin:miter;stroke-opacity:1"
   id="text950-4-2-1"
   transform="matrix(-2.8346458,0,0,-2.8346458,120.00931,944.9113)"><path
     d="m 27.591372,103.32148 h 0.152962 v 0.21084 q 0,0.35554 0.227376,0.50436 0.136426,0.0909 0.611849,0.0909 h 3.621484 q 0.525033,0 0.657324,-0.11575 0.181901,-0.16123 0.181901,-0.47956 v -0.21084 h 0.152963 v 2.28203 q -1e-6,1.25677 -0.285254,1.90996 -0.285254,0.65733 -0.950847,1.0542 -0.665592,0.40101 -1.53789,0.40101 -1.169955,0 -1.955436,-0.71107 -0.876433,-0.79788 -0.876433,-2.43085 z m 0.405143,1.5999 q -0.115756,0.52504 -0.115756,0.88057 0,0.95912 0.673861,1.59164 0.673861,0.63251 1.827279,0.63251 1.161686,0 1.831412,-0.63251 0.669727,-0.63252 0.669727,-1.62471 0,-0.37207 -0.119889,-0.8475 z"
     style="font-style:normal;font-variant:normal;font-weight:normal;font-stretch:normal;font-size:8.46666622px;font-family:'Times New Roman';-inkscape-font-specification:'Times New Roman, ';stroke-width:0.26458332px"
     id="path955-5-9-5"
     inkscape:connector-curvature="0" /><path
     d="m 29.951951,110.19652 q -0.84336,-0.004 -1.322917,0.40927 -0.479557,0.41342 -0.479557,0.97152 0,0.37207 0.202571,0.64492 0.206706,0.27699 0.7028,0.46302 l -0.08268,0.12816 q -0.566374,-0.0868 -1.033529,-0.50436 -0.463021,-0.41755 -0.463021,-1.04593 0,-0.68213 0.529167,-1.16996 0.533301,-0.48369 1.430404,-0.48369 0.971516,0 1.513085,0.4961 0.545703,0.50022 0.545703,1.25263 0,0.63666 -0.421679,1.04593 -0.417546,0.40928 -1.120345,0.40928 z m 0.239778,0 v 1.75286 q 0.363802,-0.0207 0.512631,-0.0868 0.23151,-0.10336 0.363802,-0.31006 0.132291,-0.20257 0.132291,-0.42582 0,-0.34313 -0.268717,-0.61598 -0.264583,-0.26872 -0.740007,-0.31419 z"
     style="font-style:normal;font-variant:normal;font-weight:normal;font-stretch:normal;font-size:8.46666622px;font-family:'Times New Roman';-inkscape-font-specification:'Times New Roman, ';stroke-width:0.26458332px"
     id="path957-1-2-4"
     inkscape:connector-curvature="0" /><path
     d="m 29.030043,116.52998 q -0.748275,-0.15296 -1.153418,-0.59945 -0.401009,-0.44648 -0.401009,-0.98805 0,-0.64492 0.541569,-1.12448 0.541569,-0.47955 1.463477,-0.47955 0.892968,0 1.451074,0.52916 0.558105,0.5333 0.558105,1.27744 0,0.55811 -0.297656,0.91778 -0.293522,0.35966 -0.611849,0.35966 -0.157096,0 -0.256315,-0.10335 -0.09508,-0.0992 -0.09508,-0.28112 0,-0.24391 0.157097,-0.36793 0.08682,-0.0703 0.330729,-0.0951 0.243913,-0.0207 0.37207,-0.16536 0.124024,-0.1447 0.124024,-0.40101 0,-0.41341 -0.305925,-0.6656 -0.405143,-0.33486 -1.070735,-0.33486 -0.677995,0 -1.198894,0.33073 -0.516764,0.33486 -0.516764,0.90124 0,0.40514 0.276986,0.7276 0.190169,0.22738 0.690397,0.44235 z"
     style="font-style:normal;font-variant:normal;font-weight:normal;font-stretch:normal;font-size:8.46666622px;font-family:'Times New Roman';-inkscape-font-specification:'Times New Roman, ';stroke-width:0.26458332px"
     id="path959-3-3-7"
     inkscape:connector-curvature="0" /><path
     d="m 31.489841,118.9195 q 0,0.8599 -0.65319,1.38079 -0.558105,0.44235 -1.281575,0.44235 -0.508496,0 -1.029395,-0.24391 -0.520898,-0.24391 -0.785481,-0.67386 -0.264584,-0.42581 -0.264584,-0.95085 0,-0.85576 0.682129,-1.36012 0.574642,-0.42581 1.289844,-0.42581 0.520898,0 1.033528,0.25631 0.516765,0.26045 0.760677,0.68213 0.248047,0.42168 0.248047,0.89297 z m -0.268717,-0.12816 q 0,-0.21911 -0.132292,-0.44235 -0.128157,-0.21911 -0.454752,-0.35553 -0.326595,-0.13643 -0.839226,-0.13643 -0.826822,0 -1.426269,0.3266 -0.599447,0.33073 -0.599447,0.86816 0,0.40101 0.330729,0.66146 0.33073,0.26045 1.136882,0.26045 1.008724,0 1.5875,-0.43408 0.396875,-0.29352 0.396875,-0.74828 z"
     style="font-style:normal;font-variant:normal;font-weight:normal;font-stretch:normal;font-size:8.46666622px;font-family:'Times New Roman';-inkscape-font-specification:'Times New Roman, ';stroke-width:0.26458332px"
     id="path961-7-3-8"
     inkscape:connector-curvature="0" /><path
     d="m 30.683689,122.42523 q 0.413411,0.41341 0.475423,0.48782 0.157096,0.18604 0.243913,0.40101 0.08682,0.21497 0.08682,0.42581 0,0.35554 -0.206705,0.61185 -0.206706,0.25632 -0.599447,0.34313 0.496094,0.42582 0.649056,0.71934 0.157096,0.29352 0.157096,0.60358 0,0.30179 -0.157096,0.5333 -0.152962,0.23565 -0.504362,0.37207 -0.239779,0.0909 -0.752409,0.0909 h -1.628841 q -0.355534,0 -0.487826,0.0538 -0.09095,0.0413 -0.157096,0.15296 -0.06201,0.11162 -0.06201,0.3638 h -0.148828 v -1.86862 h 0.148828 v 0.0785 q 0,0.24391 0.09509,0.38034 0.06615,0.0951 0.21084,0.13642 0.07028,0.0165 0.401009,0.0165 h 1.628841 q 0.463021,0 0.65319,-0.11162 0.264583,-0.16123 0.264583,-0.51677 0,-0.2191 -0.111621,-0.44235 -0.107487,-0.2191 -0.405143,-0.5333 l -0.04547,-0.008 -0.177767,0.008 h -1.806608 q -0.388607,0 -0.483691,0.0413 -0.09509,0.0455 -0.161231,0.16537 -0.06201,0.11989 -0.06201,0.40928 h -0.148828 v -1.9141 h 0.148829 q 0,0.31419 0.07441,0.42995 0.07441,0.11989 0.223242,0.16536 0.07028,0.0207 0.409277,0.0207 h 1.628841 q 0.463021,0 0.665593,-0.13642 0.264583,-0.1819 0.264583,-0.5085 0,-0.22324 -0.119889,-0.44235 -0.181901,-0.34313 -0.409278,-0.52916 h -2.02985 q -0.37207,0 -0.483691,0.0496 -0.111621,0.0537 -0.169499,0.15296 -0.05374,0.10335 -0.05374,0.41341 h -0.148829 l 1e-6,-1.87276 h 0.148828 q 0,0.26045 0.05374,0.36381 0.05788,0.10335 0.177767,0.15709 0.124023,0.0537 0.475423,0.0537 h 1.44694 q 0.624251,0 0.806153,-0.0372 0.136425,-0.0289 0.186035,-0.0909 0.05374,-0.062 0.05374,-0.1695 0,-0.11575 -0.06201,-0.27698 l 0.148829,-0.062 0.46302,1.14102 v 0.17777 z"
     style="font-style:normal;font-variant:normal;font-weight:normal;font-stretch:normal;font-size:8.46666622px;font-family:'Times New Roman';-inkscape-font-specification:'Times New Roman, ';stroke-width:0.26458332px"
     id="path963-1-1-5"
     inkscape:connector-curvature="0" /><path
     d="m 31.002016,127.60941 0.471289,1.16582 v 0.15709 h -0.884701 q 0.500228,0.29353 0.698666,0.58705 0.202571,0.29765 0.202571,0.62425 0,0.57051 -0.446484,0.95085 -0.545703,0.46715 -1.422135,0.46715 -0.979786,0 -1.620573,-0.56224 -0.525033,-0.46302 -0.525033,-1.16582 0,-0.30592 0.08682,-0.52917 0.06201,-0.16536 0.248047,-0.37207 h -1.153418 q -0.388607,0 -0.49196,0.0455 -0.107487,0.0496 -0.169499,0.16536 -0.06201,0.11989 -0.06201,0.42995 h -0.152963 v -1.98437 h 0.152963 v 0.10335 q -0.0041,0.22738 0.08682,0.38861 0.04547,0.0785 0.148828,0.11989 0.09922,0.0455 0.51263,0.0455 h 3.580143 q 0.367937,0 0.467155,-0.0331 0.09922,-0.0331 0.148828,-0.10749 0.04961,-0.0703 0.04961,-0.1943 0,-0.0992 -0.05788,-0.25218 z m -0.657324,1.32291 h -1.413867 q -0.458887,0 -0.603581,0.0372 -0.239779,0.0579 -0.42168,0.28112 -0.181901,0.22738 -0.181901,0.57051 0,0.41341 0.322461,0.66973 0.42168,0.33486 1.186491,0.33486 0.868164,0 1.335319,-0.38034 0.322461,-0.26458 0.322461,-0.62839 0,-0.19843 -0.09922,-0.39274 -0.07441,-0.14882 -0.446484,-0.49196 z"
     style="font-style:normal;font-variant:normal;font-weight:normal;font-stretch:normal;font-size:8.46666622px;font-family:'Times New Roman';-inkscape-font-specification:'Times New Roman, ';stroke-width:0.26458332px"
     id="path965-0-3-9"
     inkscape:connector-curvature="0" /><path
     d="m 31.489841,133.96768 q 0,0.8599 -0.65319,1.38079 -0.558105,0.44235 -1.281575,0.44235 -0.508496,0 -1.029395,-0.24391 -0.520898,-0.24391 -0.785481,-0.67386 -0.264584,-0.42581 -0.264584,-0.95085 0,-0.85576 0.682129,-1.36012 0.574642,-0.42581 1.289844,-0.42581 0.520898,0 1.033528,0.25631 0.516765,0.26045 0.760677,0.68213 0.248047,0.42168 0.248047,0.89297 z m -0.268717,-0.12816 q 0,-0.21911 -0.132292,-0.44235 -0.128157,-0.21911 -0.454752,-0.35553 -0.326595,-0.13643 -0.839226,-0.13643 -0.826822,0 -1.426269,0.3266 -0.599447,0.33073 -0.599447,0.86816 0,0.40101 0.330729,0.66146 0.33073,0.26045 1.136882,0.26045 1.008724,0 1.5875,-0.43408 0.396875,-0.29353 0.396875,-0.74828 z"
     style="font-style:normal;font-variant:normal;font-weight:normal;font-stretch:normal;font-size:8.46666622px;font-family:'Times New Roman';-inkscape-font-specification:'Times New Roman, ';stroke-width:0.26458332px"
     id="path967-2-9-9"
     inkscape:connector-curvature="0" /><path
     d="m 31.489841,138.79631 h -1.289843 v -0.13642 q 0.607714,-0.1571 0.826822,-0.40514 0.219109,-0.24392 0.219109,-0.62426 0,-0.28938 -0.152963,-0.46715 -0.152962,-0.17777 -0.338997,-0.17777 -0.23151,0 -0.396875,0.13229 -0.169499,0.12816 -0.359668,0.5209 l -0.293522,0.60358 q -0.409277,0.83923 -1.079004,0.83923 -0.516764,0 -0.835091,-0.39274 -0.314193,-0.38861 -0.314193,-0.8723 0,-0.34727 0.124024,-0.79375 0.04134,-0.13643 0.04134,-0.22324 0,-0.0951 -0.107487,-0.14883 v -0.13643 h 1.351855 v 0.13643 q -0.578776,0.11575 -0.872298,0.44235 -0.293522,0.32659 -0.293522,0.73174 0,0.28525 0.165365,0.46302 0.169498,0.1819 0.405143,0.1819 0.285254,0 0.479557,-0.20257 0.194303,-0.19844 0.49196,-0.79789 0.297656,-0.59944 0.537435,-0.78548 0.235644,-0.18603 0.595312,-0.18603 0.467155,0 0.781348,0.31832 0.314192,0.32246 0.314192,0.83096 0,0.22324 -0.09508,0.54157 -0.06201,0.21084 -0.06201,0.28112 0,0.0661 0.02894,0.10335 0.02894,0.0372 0.128157,0.0868 z"
     style="font-style:normal;font-variant:normal;font-weight:normal;font-stretch:normal;font-size:8.46666622px;font-family:'Times New Roman';-inkscape-font-specification:'Times New Roman, ';stroke-width:0.26458332px"
     id="path969-8-9-1"
     inkscape:connector-curvature="0" /><path
     d="m 33.470082,140.60292 q 0,0.17364 -0.124023,0.29353 -0.11989,0.12402 -0.293522,0.12402 -0.173633,0 -0.297657,-0.12402 -0.124023,-0.11989 -0.124023,-0.29353 0,-0.17363 0.124023,-0.29765 0.124024,-0.12403 0.297657,-0.12403 0.173632,0 0.293522,0.11989 0.124023,0.12403 0.124023,0.30179 z m -1.980241,0.34314 h -3.042708 q -0.355534,0 -0.475423,0.0496 -0.115755,0.0538 -0.173633,0.15297 -0.05788,0.10335 -0.05788,0.37207 h -0.148829 l 1e-6,-1.83968 h 0.148828 q 0,0.27698 0.05374,0.37207 0.05374,0.0951 0.177767,0.14882 0.124023,0.0579 0.475423,0.0579 h 1.459343 q 0.615983,0 0.797884,-0.0372 0.132291,-0.0289 0.181901,-0.091 0.05374,-0.062 0.05374,-0.16949 0,-0.11576 -0.06201,-0.28112 l 0.148829,-0.0579 0.46302,1.14101 z"
     style="font-style:normal;font-variant:normal;font-weight:normal;font-stretch:normal;font-size:8.46666622px;font-family:'Times New Roman';-inkscape-font-specification:'Times New Roman, ';stroke-width:0.26458332px"
     id="path971-0-2-4"
     inkscape:connector-curvature="0" /><path
     d="M 32.622589,143.08752 H 31.37822 v 0.8847 h -0.289388 v -0.8847 h -2.455664 q -0.367936,0 -0.496093,0.10336 -0.128158,0.10748 -0.128158,0.27285 0,0.13642 0.08268,0.26458 0.08682,0.12816 0.252181,0.19844 v 0.16123 q -0.405143,-0.14469 -0.611849,-0.40928 -0.202571,-0.26458 -0.202571,-0.5457 0,-0.19017 0.103353,-0.37207 0.107487,-0.1819 0.30179,-0.26872 0.198437,-0.0868 0.607715,-0.0868 h 2.546614 v -0.59945 h 0.136426 q 0.09095,0.22738 0.305925,0.46302 0.219108,0.23978 0.516764,0.42581 0.157096,0.0951 0.574642,0.26459 z"
     style="font-style:normal;font-variant:normal;font-weight:normal;font-stretch:normal;font-size:8.46666622px;font-family:'Times New Roman';-inkscape-font-specification:'Times New Roman, ';stroke-width:0.26458332px"
     id="path973-9-5-0"
     inkscape:connector-curvature="0" /><path
     d="m 33.470082,145.29929 q 0,0.17363 -0.124023,0.29352 -0.11989,0.12402 -0.293522,0.12402 -0.173633,0 -0.297657,-0.12402 -0.124023,-0.11989 -0.124023,-0.29352 0,-0.17363 0.124023,-0.29766 0.124024,-0.12402 0.297657,-0.12402 0.173632,0 0.293522,0.11989 0.124023,0.12402 0.124023,0.30179 z m -1.980241,0.34313 h -3.042708 q -0.355534,0 -0.475423,0.0496 -0.115755,0.0537 -0.173633,0.15296 -0.05788,0.10335 -0.05788,0.37207 h -0.148829 l 1e-6,-1.83968 h 0.148828 q 0,0.27699 0.05374,0.37207 0.05374,0.0951 0.177767,0.14883 0.124023,0.0579 0.475423,0.0579 h 1.459343 q 0.615983,0 0.797884,-0.0372 0.132291,-0.0289 0.181901,-0.0909 0.05374,-0.062 0.05374,-0.1695 0,-0.11575 -0.06201,-0.28112 l 0.148829,-0.0579 0.46302,1.14102 z"
     style="font-style:normal;font-variant:normal;font-weight:normal;font-stretch:normal;font-size:8.46666622px;font-family:'Times New Roman';-inkscape-font-specification:'Times New Roman, ';stroke-width:0.26458332px"
     id="path975-8-6-3"
     inkscape:connector-curvature="0" /><path
     d="m 31.489841,148.5363 q 0,0.85989 -0.65319,1.38079 -0.558105,0.44235 -1.281575,0.44235 -0.508496,0 -1.029395,-0.24391 -0.520898,-0.24391 -0.785481,-0.67386 -0.264584,-0.42581 -0.264584,-0.95085 0,-0.85576 0.682129,-1.36012 0.574642,-0.42581 1.289844,-0.42581 0.520898,0 1.033528,0.25631 0.516765,0.26045 0.760677,0.68213 0.248047,0.42168 0.248047,0.89297 z m -0.268717,-0.12816 q 0,-0.21911 -0.132292,-0.44235 -0.128157,-0.21911 -0.454752,-0.35553 -0.326595,-0.13643 -0.839226,-0.13643 -0.826822,0 -1.426269,0.3266 -0.599447,0.33073 -0.599447,0.86816 0,0.40101 0.330729,0.66146 0.33073,0.26045 1.136882,0.26045 1.008724,0 1.5875,-0.43408 0.396875,-0.29353 0.396875,-0.74828 z"
     style="font-style:normal;font-variant:normal;font-weight:normal;font-stretch:normal;font-size:8.46666622px;font-family:'Times New Roman';-inkscape-font-specification:'Times New Roman, ';stroke-width:0.26458332px"
     id="path977-8-9-1"
     inkscape:connector-curvature="0" /><path
     d="m 30.687823,152.02135 q 0.802018,0.66559 0.802018,1.26917 0,0.31006 -0.157096,0.5333 -0.152962,0.22324 -0.508496,0.35553 -0.248047,0.0909 -0.760677,0.0909 h -1.616439 q -0.359668,0 -0.487825,0.0579 -0.103353,0.0455 -0.161231,0.1447 -0.05788,0.10335 -0.05788,0.3762 h -0.148828 v -1.87275 h 0.148829 v 0.0785 q 0,0.26459 0.07855,0.36794 0.08268,0.10749 0.239778,0.14883 0.06201,0.0165 0.388607,0.0165 h 1.550293 q 0.516764,0 0.748275,-0.13643 0.235644,-0.13229 0.235644,-0.45062 0,-0.49196 -0.537435,-0.97978 h -1.996777 q -0.384472,0 -0.475423,0.0455 -0.119889,0.0579 -0.177767,0.1571 -0.05374,0.10335 -0.05374,0.41341 h -0.148829 l 1e-6,-1.87275 h 0.148828 v 0.0827 q 0,0.28939 0.144694,0.3886 0.148828,0.10336 0.562239,0.10336 h 1.405599 q 0.682129,0 0.830957,-0.0331 0.148828,-0.0289 0.202572,-0.0951 0.05374,-0.062 0.05374,-0.1695 0,-0.11575 -0.06201,-0.27698 l 0.148829,-0.062 0.46302,1.14102 v 0.17777 z"
     style="font-style:normal;font-variant:normal;font-weight:normal;font-stretch:normal;font-size:8.46666622px;font-family:'Times New Roman';-inkscape-font-specification:'Times New Roman, ';stroke-width:0.26458332px"
     id="path979-3-5-7"
     inkscape:connector-curvature="0" /><path
     d="m 27.591371,162.72457 v -1.49654 l 2.621029,-1.89756 q -0.0083,-0.21084 -0.0083,-0.34313 0,-0.0537 0,-0.11576 0.0041,-0.062 0.0083,-0.12816 h -1.628841 q -0.529167,0 -0.657324,0.11576 -0.181901,0.15709 -0.181901,0.47129 v 0.2191 h -0.152963 l 1e-6,-2.40192 h 0.152962 v 0.21084 q 0,0.35554 0.23151,0.5085 0.128158,0.0868 0.607715,0.0868 h 3.621484 q 0.529167,0 0.657324,-0.11576 0.181901,-0.16123 0.181901,-0.47956 v -0.21084 h 0.152963 v 2.04226 q -1e-6,0.89297 -0.132292,1.31465 -0.128158,0.42581 -0.479557,0.71933 -0.347266,0.29766 -0.830957,0.29766 -0.516765,0 -0.897103,-0.339 -0.380339,-0.33486 -0.537435,-1.0418 l -1.608171,1.15756 q -0.553971,0.39687 -0.735872,0.68212 -0.181901,0.28526 -0.23151,0.74414 z m 2.881478,-3.98115 q 0,0.0786 -0.0041,0.13643 0,0.0579 0,0.0951 0,0.80202 0.347266,1.20716 0.347265,0.40928 0.8847,0.40928 0.525033,0 0.851628,-0.33073 0.330729,-0.32659 0.330729,-0.86816 0,-0.23978 -0.07855,-0.64906 z"
     style="font-style:normal;font-variant:normal;font-weight:normal;font-stretch:normal;font-size:8.46666622px;font-family:'Times New Roman';-inkscape-font-specification:'Times New Roman, ';stroke-width:0.26458332px"
     id="path981-0-5-8"
     inkscape:connector-curvature="0" /><path
     d="m 28.137075,165.06862 q -0.450619,-0.58291 -0.520899,-0.73174 -0.103353,-0.22324 -0.103353,-0.47542 0,-0.39274 0.268718,-0.64906 0.268717,-0.25218 0.706933,-0.25218 0.276986,0 0.479558,0.12403 0.281119,0.16949 0.529166,0.58704 0.248047,0.42168 0.603581,1.39733 h 0.148828 q 0.566374,0 0.777213,-0.1819 0.21084,-0.17777 0.21084,-0.5209 0,-0.26045 -0.14056,-0.41341 -0.140559,-0.1571 -0.32246,-0.1571 l -0.239779,0.008 q -0.190169,0 -0.293522,-0.0992 -0.103353,-0.0951 -0.103353,-0.25218 0,-0.15296 0.107487,-0.25218 0.107487,-0.0951 0.293522,-0.0951 0.355534,0 0.65319,0.3638 0.297656,0.3638 0.297656,1.02112 0,0.50437 -0.169498,0.82683 -0.128158,0.24391 -0.40101,0.35967 -0.177766,0.0744 -0.727604,0.0744 H 28.90602 q -0.541569,0 -0.665593,0.0207 -0.119889,0.0207 -0.16123,0.0661 -0.04134,0.0496 -0.04134,0.11162 0,0.0661 0.02894,0.11575 0.05374,0.0868 0.30179,0.33487 h -0.231511 q -0.620117,-0.46303 -0.620117,-0.8847 0,-0.20258 0.14056,-0.32247 0.14056,-0.11989 0.479558,-0.12402 z m 0.268717,0 h 1.442806 q -0.248047,-0.62425 -0.3514,-0.80615 -0.181901,-0.3266 -0.380338,-0.46716 -0.198438,-0.14056 -0.434082,-0.14056 -0.297657,0 -0.496094,0.17777 -0.194303,0.17777 -0.194303,0.40928 0,0.31419 0.413411,0.82682 z"
     style="font-style:normal;font-variant:normal;font-weight:normal;font-stretch:normal;font-size:8.46666622px;font-family:'Times New Roman';-inkscape-font-specification:'Times New Roman, ';stroke-width:0.26458332px"
     id="path983-9-5-9"
     inkscape:connector-curvature="0" /><path
     d="M 32.622589,167.77646 H 31.37822 v 0.8847 h -0.289388 v -0.8847 h -2.455664 q -0.367936,0 -0.496093,0.10335 -0.128158,0.10749 -0.128158,0.27285 0,0.13643 0.08268,0.26459 0.08682,0.12815 0.252181,0.19843 v 0.16123 q -0.405143,-0.14469 -0.611849,-0.40927 -0.202571,-0.26459 -0.202571,-0.54571 0,-0.19017 0.103353,-0.37207 0.107487,-0.1819 0.30179,-0.26871 0.198437,-0.0868 0.607715,-0.0868 h 2.546614 v -0.59945 h 0.136426 q 0.09095,0.22738 0.305925,0.46302 0.219108,0.23978 0.516764,0.42582 0.157096,0.0951 0.574642,0.26458 z"
     style="font-style:normal;font-variant:normal;font-weight:normal;font-stretch:normal;font-size:8.46666622px;font-family:'Times New Roman';-inkscape-font-specification:'Times New Roman, ';stroke-width:0.26458332px"
     id="path985-2-1-8"
     inkscape:connector-curvature="0" /><path
     d="m 29.951951,169.66161 q -0.84336,-0.004 -1.322917,0.40928 -0.479557,0.41341 -0.479557,0.97152 0,0.37207 0.202571,0.64492 0.206706,0.27698 0.7028,0.46302 l -0.08268,0.12816 q -0.566374,-0.0868 -1.033529,-0.50436 -0.463021,-0.41755 -0.463021,-1.04594 0,-0.68212 0.529167,-1.16995 0.533301,-0.48369 1.430404,-0.48369 0.971516,0 1.513085,0.49609 0.545703,0.50023 0.545703,1.25264 0,0.63665 -0.421679,1.04593 -0.417546,0.40928 -1.120345,0.40928 z m 0.239778,0 v 1.75287 q 0.363802,-0.0207 0.512631,-0.0868 0.23151,-0.10335 0.363802,-0.31006 0.132291,-0.20257 0.132291,-0.42581 0,-0.34313 -0.268717,-0.61598 -0.264583,-0.26872 -0.740007,-0.3142 z"
     style="font-style:normal;font-variant:normal;font-weight:normal;font-stretch:normal;font-size:8.46666622px;font-family:'Times New Roman';-inkscape-font-specification:'Times New Roman, ';stroke-width:0.26458332px"
     id="path987-5-6-3"
     inkscape:connector-curvature="0" /></g><g
   transform="matrix(1.6807525,0,0,-1.8911397,557.35475,751.6743)"
   inkscape:label="epsilon"
   id="g981-9-9-9"
   style="stroke-width:0.56090117"><g
     transform="scale(0.1)"
     id="g983-3-1-9"
     style="stroke-width:0.56090117"><path
       inkscape:connector-curvature="0"
       id="path985-1-9-6-6"
       style="fill:#000000;fill-opacity:1;fill-rule:nonzero;stroke:none;stroke-width:0.56090117"
       d="m 25.6094,23.4531 c 1.5781,0 3.375,0 3.375,1.6875 0,1.3907 -1.2031,1.3907 -2.8906,1.3907 H 10 c 2.3906,8.4375 7.9531,14.2031 17,14.2031 h 3.0781 c 1.6875,0 3.2657,0 3.2657,1.6875 0,1.3906 -1.2813,1.3906 -2.9688,1.3906 H 26.8906 C 13.9844,43.8125 0.671875,33.875 0.671875,18.6875 0.671875,7.75 8.125,-0.09375 18.6563,-0.09375 c 6.4531,0 12.9062,3.96875 12.9062,5.0625 0,0.29688 -0.0937,1.39063 -1,1.39063 -0.1875,0 -0.3906,0 -1.2812,-0.59375 C 26.2031,3.78125 22.5156,2.09375 18.8438,2.09375 13.0938,2.09375 8.125,6.26563 8.125,15 c 0,3.4844 0.78125,7.2656 1.09375,8.4531 H 25.6094" /></g></g><path
   style="fill:none;fill-rule:evenodd;stroke:#000000;stroke-width:0.74999994px;stroke-linecap:butt;stroke-linejoin:miter;stroke-opacity:1"
   d="M 62.641038,728.7137 Z"
   id="path2155-9"
   inkscape:connector-curvature="0" /><path
   style="fill:none;fill-rule:evenodd;stroke:#0044aa;stroke-width:1.98425198;stroke-linecap:butt;stroke-linejoin:miter;stroke-miterlimit:4;stroke-dasharray:none;stroke-opacity:1"
   d="M 581.44406,737.7458 C 533.49968,726.6279 490.7541,703.47781 456.05821,672.05596 431.95839,650.35853 398.7759,616.33305 382.51771,602.66029 292.6295,524.65653 181.88988,543.49742 59.076838,538.81882"
   id="path1060-4-3"
   inkscape:connector-curvature="0"
   sodipodi:nodetypes="cccc" /><g
   transform="matrix(1.6598511,0,0,-1.6598511,300.53375,759.733)"
   inkscape:label="THETA"
   id="g2850"
   style="stroke-width:0.60246366"><g
     transform="scale(0.1)"
     id="g2852"
     style="stroke-width:0.60246366"><path
       inkscape:connector-curvature="0"
       id="path2854"
       style="fill:#000000;fill-opacity:1;fill-rule:nonzero;stroke:none;stroke-width:0.60246366"
       d="m 41.2031,64.6719 c 0,6.5469 -1.7968,20.3594 -11.9218,20.3594 -13.8125,0 -29.109425,-28.0157 -29.109425,-50.7657 0,-9.3281 2.875005,-20.3593 11.921925,-20.3593 14,0 29.1093,28.5156 29.1093,50.7656 z m -30.5,-13.6094 c 1.6875,6.3594 3.6719,14.2969 7.6407,21.3594 2.6875,4.8594 6.3593,10.4219 10.8281,10.4219 4.875,0 5.4687,-6.3594 5.4687,-12.0157 0,-4.875 -0.7968,-9.9375 -3.1718,-19.7656 z M 30.5625,47.875 c -1.0781,-4.5625 -3.1719,-13 -6.9531,-20.1562 -3.4688,-6.7657 -7.25,-11.625 -11.5156,-11.625 -3.2813,0 -5.35942,2.875 -5.35942,12.125 0,4.1718 0.59375,9.9218 3.17187,19.6562 H 30.5625" /><path
       inkscape:connector-curvature="0"
       id="path2856"
       style="fill:#000000;fill-opacity:1;fill-rule:nonzero;stroke:none;stroke-width:0.60246366"
       d="m 62.3281,46.4688 c -0.625,1.5468 -1.1875,1.5468 -2.6718,1.5468 H 47.3594 v -2.5312 h 1.6875 c 5.4062,0 5.5469,-0.7031 5.5469,-3.1563 V 7.59375 c 0,-1.90625 0,-5.0625 -7.2344,-5.0625 V 0 c 2.875,0.203125 5.6875,0.28125 8.5781,0.28125 2.875,0 5.6875,-0.078125 8.5781,-0.28125 v 2.53125 c -7.25,0 -7.25,3.15625 -7.25,5.0625 V 44.6406 L 57.3438,44.7031 75.625,1.60938 C 75.9688,0.765625 76.3281,0 77.375,0 c 0.5,0 1.125,0.203125 1.6875,1.46875 L 97.625,45.4063 97.6875,45.3438 V 5.6875 c 0,-2.39062 -0.1406,-3.15625 -5.5469,-3.15625 H 90.4531 V 0 c 3.375,0.140625 7.3125,0.28125 10.1879,0.28125 2.89,0 6.828,-0.140625 10.203,-0.28125 v 2.53125 h -1.688 c -5.422,0 -5.562,0.70313 -5.562,3.15625 v 36.6406 c 0,2.375 0.14,3.1563 5.562,3.1563 h 1.688 v 2.5312 H 98.6094 c -1.4063,0 -2.0469,0 -2.6094,-1.4062 L 79.1406,6.75 62.3281,46.4688" /><path
       inkscape:connector-curvature="0"
       id="path2858"
       style="fill:#000000;fill-opacity:1;fill-rule:nonzero;stroke:none;stroke-width:0.60246366"
       d="m 146.359,18.8438 c 0,3.7187 0,6.3906 -3.234,9 -2.891,2.3906 -6.266,3.5156 -10.406,3.5156 -6.688,0 -11.391,-2.5313 -11.391,-6.8281 0,-2.25 1.547,-3.4375 3.375,-3.4375 1.891,0 3.297,1.4062 3.297,3.2968 0,1.2032 -0.562,2.6719 -2.453,3.2344 2.531,1.7656 6.609,1.7656 7.031,1.7656 3.938,0 8.219,-2.6093 8.219,-8.5156 v -2.1719 c -3.859,-0.1406 -8.5,-0.3593 -13.641,-2.25 -6.328,-2.3281 -8.297,-6.1875 -8.297,-9.35935 0,-6.04687 7.313,-7.796875 12.313,-7.796875 5.625,0 8.922,3.156255 10.406,5.906255 0.281,-2.89063 2.172,-5.54688 5.406,-5.54688 0.141,0 6.969,0 6.969,6.67188 v 3.85937 h -2.39 V 6.39063 c 0,-0.70313 0,-4.07813 -2.61,-4.07813 -2.594,0 -2.594,3.3125 -2.594,4.21875 z m -5.562,-8.93755 c 0,-6.75 -5.906,-8.64062 -9.063,-8.64062 -3.593,0 -6.968,2.39062 -6.968,5.82812 0,3.87505 3.375,9.28125 16.031,9.78125 V 9.90625" /><path
       inkscape:connector-curvature="0"
       id="path2860"
       style="fill:#000000;fill-opacity:1;fill-rule:nonzero;stroke:none;stroke-width:0.60246366"
       d="m 178.828,15.75 c -0.062,0.0625 -0.562,0.625 -0.562,0.7031 0,0.2032 4.64,5.2032 5.281,5.8282 2.453,2.75 4.922,5.4218 10.469,5.4843 v 2.5313 c -1.969,-0.1406 -4,-0.2813 -5.907,-0.2813 -2.109,0 -4.843,0.0782 -6.953,0.2813 v -2.5313 c 1.188,-0.2031 1.407,-0.9843 1.407,-1.6093 0,-0.1407 0,-1.2032 -1.063,-2.3907 l -4.922,-5.5625 -5.828,6.6875 c -0.703,0.7657 -0.781,1.125 -0.781,1.4063 0,1.0469 0.984,1.4687 1.906,1.4687 v 2.5313 c -2.609,-0.2031 -5.281,-0.2813 -7.875,-0.2813 -2.109,0 -4.781,0.0782 -6.828,0.2813 v -2.5313 c 3.234,0 5.062,0 6.891,-2.1093 l 8.796,-10.125 c 0.063,-0.0625 0.563,-0.625 0.563,-0.7032 0,-0.2031 -5.281,-5.96872 -5.984,-6.74997 -2.594,-2.8125 -4.985,-5.40625 -10.61,-5.54688 L 156.828,0 c 2.11,0.140625 3.656,0.28125 5.828,0.28125 2.11,0 4.922,-0.078125 7.032,-0.28125 v 2.53125 c -0.844,0.14063 -1.407,0.625 -1.407,1.60938 0,1.34375 0.782,2.25 1.907,3.45312 L 175.109,13 l 6.11,-6.95312 c 1.344,-1.48438 1.344,-1.625 1.344,-2.04688 0,-1.40625 -1.625,-1.46875 -1.907,-1.46875 V 0 c 0.641,0.0625 5.703,0.28125 7.953,0.28125 2.25,0 4.5,-0.078125 6.75,-0.28125 v 2.53125 c -4.718,0 -5.281,0.42188 -6.89,2.25 L 178.828,15.75" /></g></g><path
   style="fill:none;fill-rule:evenodd;stroke:#808080;stroke-width:1.6015749;stroke-linecap:butt;stroke-linejoin:miter;stroke-miterlimit:4;stroke-dasharray:4.80472456, 1.60157485;stroke-dashoffset:0;stroke-opacity:1"
   d="m 320.35107,573.7122 0.53569,165.5328"
   id="path2870"
   inkscape:connector-curvature="0" /><path
   style="fill:url(#linearGradient1006-1-3-3);fill-opacity:1;fill-rule:evenodd;stroke:url(#linearGradient996-9-6-8);stroke-width:1.89921272;stroke-linecap:butt;stroke-linejoin:miter;stroke-miterlimit:4;stroke-dasharray:3.79842531, 1.89921266;stroke-dashoffset:6.69999981;stroke-opacity:1"
   d="M 63.974338,737.563 C 189.96057,741.1293 252.86684,580.11896 313.51923,574.41315 c 8.72142,-0.82045 3.79704,-1.70523 11.76656,0.46843 82.66995,22.54802 139.52183,161.16252 219.99924,161.67132 l 26.65834,1.4609"
   id="path1758-6-4-1-0"
   inkscape:connector-curvature="0"
   sodipodi:nodetypes="csscc" /><path
   style="fill:none;fill-rule:evenodd;stroke:#008000;stroke-width:1.98425198;stroke-linecap:butt;stroke-linejoin:miter;stroke-miterlimit:4;stroke-dasharray:none;stroke-opacity:1"
   d="m 58.676283,737.61772 c 47.944387,-11.1179 90.689967,-34.26799 125.385857,-65.68984 24.09982,-21.69743 57.28231,-55.72291 73.5405,-69.39567 89.88821,-78.00376 200.62783,-59.16287 323.44087,-63.84147"
   id="path1060-4-3-8"
   inkscape:connector-curvature="0"
   sodipodi:nodetypes="cccc" /><path
   style="fill:none;fill-rule:evenodd;stroke:#000000;stroke-width:1.88503969;stroke-linecap:butt;stroke-linejoin:miter;stroke-miterlimit:4;stroke-dasharray:none;stroke-opacity:1;marker-start:url(#Arrow2Mstart-0-4-6-0);marker-end:url(#Arrow2Mend-9-5-4-4)"
   d="M 59.159238,308.22432 V 739.0149 H 635.53992"
   id="path3987-8-5-7-3"
   inkscape:connector-curvature="0" /></g></svg>